<?xml version="1.0" standalone="no"?>
<!DOCTYPE svg PUBLIC "-//W3C//DTD SVG 1.1//EN" "http://www.w3.org/Graphics/SVG/1.1/DTD/svg11.dtd" >
<svg>
<metadata>
Created by FontForge 20090914 at Thu Oct 18 02:37:21 2012
 By www-data
Digitized data copyright The Monotype Corporation 1991-1995. All rights reserved. Perpetua&#194;&#174; is a trademark of The Monotype Corporation which may be registered in certain jurisdictions.
</metadata>
<defs>
<font id="Perpetua" horiz-adv-x="938" >
  <font-face 
    font-family="Perpetua"
    font-weight="400"
    font-stretch="normal"
    units-per-em="2048"
    panose-1="2 2 5 2 6 4 1 2 3 3"
    ascent="1638"
    descent="-410"
    x-height="723"
    cap-height="1173"
    bbox="-311 -620.999 2060 1878"
    underline-thickness="102"
    underline-position="-103"
    unicode-range="U+0020-U+F003"
  />
<missing-glyph horiz-adv-x="2048" 
d="M256 0v1536h1536v-1536h-1536zM384 128h1280v1280h-1280v-1280z" />
    <glyph glyph-name=".notdef" horiz-adv-x="2048" 
d="M256 0v1536h1536v-1536h-1536zM384 128h1280v1280h-1280v-1280z" />
    <glyph glyph-name="space" unicode=" " horiz-adv-x="461" 
 />
    <glyph glyph-name="exclam" unicode="!" horiz-adv-x="598" 
d="M379 1016l-62.001 -733h-32l-54 733c-4 62 -6 101.667 -6 119c0 30.667 7.5 55.667 22.5 75s34.167 29 57.5 29c24.667 0 44.834 -9.5 60.501 -28.5s23.5 -44.167 23.5 -75.5c0 -16.667 -2.33301 -45.667 -7 -87zM298.999 170c26.667 0 49.334 -9.33398 68.001 -28.001
s28 -41.334 28 -68.001c0 -27.333 -9.33301 -50.666 -28 -69.999s-41.334 -29 -68.001 -29s-49.667 9.83301 -69 29.5s-29 42.834 -29 69.501c0 26 9.66699 48.5 29 67.5s42.333 28.5 69 28.5z" />
    <glyph glyph-name="quotedbl" unicode="&#x22;" horiz-adv-x="836" 
d="M655 1059l-55 -324h-37l-55 324c-8 44 -12 81.333 -12 112c0 28 7.83301 50.833 23.5 68.5s36.5 26.5 62.5 26.5c25.333 0 46 -8.83301 62 -26.5s24 -40.5 24 -68.5c0 -34 -4.33301 -71.333 -13 -112zM326 1059l-56 -324h-37l-55 324c-8 44 -12 81.333 -12 112
c0 28 8 50.833 24 68.5s36.667 26.5 62 26.5s46 -8.83301 62 -26.5s24 -40.5 24 -68.5c0 -30.667 -4 -68 -12 -112z" />
    <glyph glyph-name="numbersign" unicode="#" horiz-adv-x="1368" 
d="M96 862v88h334l88 416h88l-88 -416h457l88 416h88l-88 -416h209v-88h-228l-88 -405h316v-88h-334l-88 -416h-88l88 416h-457l-88 -416h-88l88 416h-209v88h228l88 405h-316zM956 862h-456l-88 -405h456z" />
    <glyph glyph-name="dollar" unicode="$" 
d="M430 1102h35v-76c82 -2 157.667 -26 227 -72l-30 -209h-35c0.666992 11.333 1 22.333 1 33c0 59.333 -14.333 107.5 -43 144.5s-68.667 59.167 -120 66.5v-371c105.333 -71.333 178.333 -132.333 219 -183s61 -106.334 61 -167.001
c0 -70.667 -25.5 -133.834 -76.5 -189.501s-118.833 -85.167 -203.5 -88.5v-211h-35v211c-94.667 2 -178.667 29.333 -252 82l45 229h35c-1.33301 -18 -2 -35 -2 -51c0 -129.333 58 -202.333 174 -219v444c-81.333 52.667 -138.833 102.334 -172.5 149.001
s-50.5 100 -50.5 160c0 65.333 19.167 118.833 57.5 160.5s93.5 68.834 165.5 81.501v76zM430 643v346c-40.667 -6 -72.334 -22.333 -95.001 -49s-34 -60.667 -34 -102s9.83301 -76.833 29.5 -106.5s52.834 -59.167 99.501 -88.5zM465 449v-418
c50 1.33301 90.5 21.5 121.5 60.5s46.5 82.833 46.5 131.5c0 84.667 -56 160 -168 226z" />
    <glyph glyph-name="percent" unicode="%" horiz-adv-x="1536" 
d="M455 872c0 86 -13 153.666 -39 202.999s-61 74 -105 74c-45.333 0 -80.5 -24.667 -105.5 -74s-37.5 -119.666 -37.5 -210.999c0 -82.667 12.833 -148 38.5 -196s60.5 -72 104.5 -72s79 24.5 105 73.5s39 116.5 39 202.5zM563 871.999
c0 -94.667 -24.001 -173.167 -72.001 -235.5s-108 -93.5 -180 -93.5c-72.667 0 -132.834 31.167 -180.501 93.5s-71.5 140.833 -71.5 235.5c0 95.333 23.833 174.166 71.5 236.499s107.834 93.5 180.501 93.5s132.834 -31.167 180.501 -93.5s71.5 -141.166 71.5 -236.499z
M1159 1202h70l-852 -1202h-70zM1477 318.999c0 -94 -24 -172.331 -72 -234.998s-108 -94 -180 -94c-72.667 0 -132.834 31 -180.501 93s-71.5 140.667 -71.5 236s23.833 174.166 71.5 236.499s107.834 93.5 180.501 93.5c72 0 132 -31.333 180 -94s72 -141.334 72 -236.001z
M1368 319.001c0 86.667 -12.833 154.499 -38.5 203.499s-60.5 73.5 -104.5 73.5c-46 0 -81.5 -24.667 -106.5 -74s-37.5 -119.666 -37.5 -210.999c0 -82.667 13 -148 39 -196s61 -72 105 -72s78.833 24.5 104.5 73.5s38.5 116.5 38.5 202.5z" />
    <glyph glyph-name="ampersand" unicode="&#x26;" horiz-adv-x="1260" 
d="M211 850c0 78 26.168 142.174 78.501 192.507s118.833 75.5 199.5 75.5c65.333 0 121 -20.833 167 -62.5s69 -91.834 69 -150.501c0 -99.333 -70.333 -186 -211 -260c82 -70.667 182.333 -178.334 301 -323.001c57.333 98 86 179.667 86 245
c0 36.667 -6.16699 62.167 -18.5 76.5s-34.833 22.5 -67.5 24.5v34h334v-34c-52 0 -87.333 -7.33301 -106 -22s-35.334 -33.334 -50.001 -56.001s-33 -62 -55 -118c-30.667 -80.667 -61.334 -144.334 -92.001 -191.001c76 -96 129.5 -157.667 160.5 -185
s57.167 -41 78.5 -41c24 0 50.667 13.667 80 41l27 -22c-46.667 -68.667 -108.667 -103 -186 -103c-33.333 0 -65.166 8.5 -95.499 25.5s-68.5 51.833 -114.5 104.5c-18.667 21.333 -32.667 36.666 -42 45.999c-96.667 -117.333 -210 -176 -340 -176
c-91.333 0 -168.833 28.167 -232.5 84.5s-95.5 125.166 -95.5 206.499c0 60 22.167 118.667 66.5 176s107.5 108.666 189.5 153.999c-87.333 81.333 -131 167.333 -131 258zM311.001 915.007c0 -34.667 15.667 -74.166 47 -118.499s73 -86.5 125 -126.5
c90 52 135 125.667 135 221c0 49.333 -14.333 89.666 -43 120.999s-66 47 -112 47c-44 0 -80.333 -13.5 -109 -40.5s-43 -61.5 -43 -103.5zM227.001 334.008c0 -68.667 28 -131.333 84 -188s118.333 -85 187 -85c42 0 80.667 9.66699 116 29s73 51.333 113 96
c-128 158 -246 283 -354 375c-43.333 -23.333 -78.5 -56 -105.5 -98s-40.5 -85 -40.5 -129z" />
    <glyph glyph-name="quotesingle" unicode="'" horiz-adv-x="369" 
d="M258 1059l-55 -324h-37l-55 324c-8.66699 40.667 -13 78 -13 112c0 28 8 50.833 24 68.5s36.667 26.5 62 26.5c26 0 46.833 -8.83301 62.5 -26.5s23.5 -40.5 23.5 -68.5c0 -30.667 -4 -68 -12 -112z" />
    <glyph glyph-name="parenleft" unicode="(" horiz-adv-x="641" 
d="M578 -430l-21 -27.001c-138.667 122.667 -247.334 256 -326.001 400s-118 281.667 -118 413c0 132.667 42.333 275.834 127 429.501s190.334 282.834 317.001 387.501l21 -26c-111.333 -119.333 -191.5 -239.833 -240.5 -361.5s-73.5 -261.167 -73.5 -418.5
c0 -166.667 23.833 -311.334 71.5 -434.001s128.5 -243.667 242.5 -363z" />
    <glyph glyph-name="parenright" unicode=")" horiz-adv-x="641" 
d="M63 1147l23 26c138 -121.333 246.167 -254 324.5 -398s117.5 -282.333 117.5 -415c0 -135.333 -43.667 -281.333 -131 -438s-191 -283 -311 -379l-23 27c111.333 118.667 191.5 239 240.5 361s73.5 261.667 73.5 419c0 172.667 -24.5 321 -73.5 445
s-129.167 241.333 -240.5 352z" />
    <glyph glyph-name="asterisk" unicode="*" 
d="M106 592c0 28.667 11.502 52 34.502 70s71.5 35.667 145.5 53c72 17.333 119.333 34.333 142 51c-28 18 -77.333 36.333 -148 55s-116.5 36.667 -137.5 54s-31.5 39.666 -31.5 66.999c0 41.333 19.667 62 59 62c22.667 0 45.667 -7 69 -21s55.666 -43.333 96.999 -88
c49.333 -52.667 87 -82.667 113 -90c0 44.667 -9 94.667 -27 150c-15.333 46 -23 84.667 -23 116c0 28 7 51.667 21 71s31 29 51 29c22 0 39.5 -9.16699 52.5 -27.5s19.5 -43.166 19.5 -74.499c0 -26.667 -8 -64 -24 -112c-20 -60 -30 -110.667 -30 -152
c34 10.667 76 43.667 126 99c36 39.333 64.167 65 84.5 77s41.166 18 62.499 18c19.333 0 36.166 -5.66699 50.499 -17s21.5 -24.666 21.5 -39.999c0 -28 -10 -50.5 -30 -67.5s-65 -34.5 -135 -52.5c-72.667 -18.667 -125.667 -37.334 -159 -56.001
c53.333 -26 113 -46.333 179 -61c51.333 -12 87.5 -28.833 108.5 -50.5s31.5 -43.834 31.5 -66.501c0 -16.667 -6 -30.834 -18 -42.501s-26.333 -17.5 -43 -17.5c-21.333 0 -44 6.83301 -68 20.5s-59.333 42.834 -106 87.501c-46 43.333 -81 72.333 -105 87
c0 -39.333 9.66699 -95.333 29 -168c14 -50 21 -84.667 21 -104c0 -25.333 -7.33301 -47.5 -22 -66.5s-32 -28.5 -52 -28.5c-19.333 0 -35.833 8.83301 -49.5 26.5s-20.5 38.834 -20.5 63.501c0 28 8 67.333 24 118c20 62.667 30 115.667 30 159
c-34.667 -18 -75.667 -52 -123 -102c-36.667 -37.333 -65 -61.5 -85 -72.5s-41 -16.5 -63 -16.5c-21.333 0 -38.666 5.5 -51.999 16.5s-20 25.5 -20 43.5z" />
    <glyph glyph-name="plus" unicode="+" horiz-adv-x="1366" 
d="M145 610v88h494v494h88v-494h494v-88h-494v-493h-88v493h-494z" />
    <glyph glyph-name="comma" unicode="," horiz-adv-x="598" 
d="M180 -352l0.00195312 34.9971c53.333 27.333 90.666 58 111.999 92s32 79.667 32 137c0 15.333 -2.16699 25.333 -6.5 30s-14.5 7 -30.5 7c-30 0 -55.333 9.5 -76 28.5s-31 42.167 -31 69.5c0 26.667 9.66699 49.334 29 68.001s42.666 28 69.999 28
c44.667 0 81 -18.333 109 -55s42 -83.667 42 -141c0 -71.333 -23.167 -134.666 -69.5 -189.999s-106.5 -91.666 -180.5 -108.999z" />
    <glyph glyph-name="hyphen" unicode="-" horiz-adv-x="641" 
d="M119 399h401v-77h-401v77z" />
    <glyph glyph-name="period" unicode="." horiz-adv-x="598" 
d="M299 143c26.667 0 49.333 -9.33203 68 -27.999s28 -41.334 28 -68.001s-9.5 -49.667 -28.5 -69s-41.5 -29 -67.5 -29c-26.667 0 -49.667 9.66699 -69 29s-29 42.333 -29 69c0 26 9.66699 48.5 29 67.5s42.333 28.5 69 28.5z" />
    <glyph glyph-name="slash" unicode="/" horiz-adv-x="1024" 
d="M166 -25l598 1244h94l-598 -1244h-94z" />
    <glyph glyph-name="zero" unicode="0" 
d="M874 590c0 -120 -17.333 -225.829 -52 -317.496s-84 -163.834 -148 -216.501s-132.333 -79 -205 -79c-74 0 -143.167 26.333 -207.5 79s-113.833 125.167 -148.5 217.5s-52 199.166 -52 320.499c0 118 17.5 222.667 52.5 314s84.5 163.166 148.5 215.499
s133 78.5 207 78.5s142.667 -26.333 206 -79s112.333 -124.834 147 -216.501s52 -197.167 52 -316.5zM719 590.004c0 176.667 -21.499 314 -64.499 412s-104.833 147 -185.5 147s-142.834 -49.5 -186.501 -148.5s-65.5 -235.833 -65.5 -410.5c0 -176 22 -313.167 66 -411.5
s106 -147.5 186 -147.5s141.667 48.333 185 145s65 234.667 65 414z" />
    <glyph glyph-name="one" unicode="1" 
d="M412 160v804.999c0 27.333 -5.66699 41 -17 41c-2.66699 0 -11.334 -2.66699 -26.001 -8c-51.333 -20 -95.666 -31 -132.999 -33v34c149.333 78.667 241.333 145 276 199h35v-1038c0 -54 7.5 -89 22.5 -105s47.833 -24 98.5 -24v-31h-377v31
c50.667 0 83.5 8.33301 98.5 25s22.5 51.334 22.5 104.001z" />
    <glyph glyph-name="two" unicode="2" 
d="M213 84l577.998 0.000976562v-84h-672v41c182.667 188.667 312 341 388 457s114 223 114 321c0 84 -19.167 150.167 -57.5 198.5s-90.833 72.5 -157.5 72.5c-59.333 0 -108.5 -18.833 -147.5 -56.5s-61.833 -89.834 -68.5 -156.501h-34
c0.666992 48 15.834 99.167 45.501 153.5s67.5 96.5 113.5 126.5s96.667 45 152 45c82.667 0 152.834 -31.333 210.501 -94s86.5 -140.667 86.5 -234c0 -106 -41.833 -219.167 -125.5 -339.5s-225.5 -270.5 -425.5 -450.5z" />
    <glyph glyph-name="three" unicode="3" 
d="M246 596l0.000976562 34.999c240 42 360 141 360 297c0 57.333 -19.167 105.833 -57.5 145.5s-85.833 59.5 -142.5 59.5c-40 0 -76.833 -11 -110.5 -33s-59.834 -52 -78.501 -90l-33 14c19.333 54.667 53.833 98 103.5 130s106.834 48 171.501 48
c81.333 0 149 -25 203 -75s81 -112.333 81 -187c0 -58 -17.833 -110.833 -53.5 -158.5s-87.167 -85.5 -154.5 -113.5v-4c81.333 -21.333 145 -60.666 191 -117.999s69 -126 69 -206c0 -107.333 -34.333 -194.666 -103 -261.999s-157.334 -101 -266.001 -101
c-60 0 -112 9.66699 -156 29s-89.667 52.666 -137 99.999l25 25c78.667 -64 155.667 -96 231 -96c74.667 0 136.667 23 186 69s74 106.333 74 181c0 81.333 -26.333 154.5 -79 219.5s-121 97.5 -205 97.5z" />
    <glyph glyph-name="four" unicode="4" 
d="M907 387h-289v-403h-122v403h-484v35l572 780h34v-721h289v-94zM127 483h369v501z" />
    <glyph glyph-name="five" unicode="5" 
d="M760 1063l-441 0.000976562l-12 -416c32.667 4.66699 63.667 7 93 7c112.667 0 202.5 -31.333 269.5 -94s100.5 -140.667 100.5 -234c0 -100 -34 -183.167 -102 -249.5s-153.333 -99.5 -256 -99.5c-129.333 0 -235.333 56 -318 168l31 19c63.333 -78 139 -117 227 -117
c75.333 0 138.5 25 189.5 75s76.5 111.667 76.5 185s-26.5 133.166 -79.5 179.499s-125.167 69.5 -216.5 69.5c-24.667 0 -50.667 -1.66699 -78 -5l18 622h498v-110z" />
    <glyph glyph-name="six" unicode="6" 
d="M842 1204l-0.000976562 -35.001c-174.667 -31.333 -314.167 -102.833 -418.5 -214.5s-164.166 -253.167 -179.499 -424.5c92 86 188 129 288 129c93.333 0 170 -31.167 230 -93.5s90 -142.166 90 -239.499c0 -98.667 -35.167 -181.5 -105.5 -248.5
s-157.5 -100.5 -261.5 -100.5c-114.667 0 -209.5 43.5 -284.5 130.5s-112.5 197.167 -112.5 330.5c0 204 70.667 377.5 212 520.5s322 224.833 542 245.5zM710.999 288.999c0 84.667 -21.832 152.501 -65.499 203.501s-101.834 76.5 -174.501 76.5
c-79.333 0 -155 -33.333 -227 -100v-14c0 -130.667 24 -234 72 -310s111.333 -114 190 -114c60 0 109.167 24.167 147.5 72.5s57.5 110.166 57.5 185.499z" />
    <glyph glyph-name="seven" unicode="7" 
d="M102 911h-34l63 301h35c7.33301 -18 16 -29 26 -33s23 -6 39 -6h648v-40l-404 -1149h-147l454 1075h-514c-35.333 0 -63 -8.83301 -83 -26.5s-47.667 -58.167 -83 -121.5z" />
    <glyph glyph-name="eight" unicode="8" 
d="M801 293c0 -88.667 -33.3311 -163.501 -99.998 -224.501s-148.667 -91.5 -246 -91.5c-98.667 0 -179.334 26.833 -242.001 80.5s-94 122.5 -94 206.5c0 64 20 121.333 60 172s105.333 101.334 196 152.001c-72 37.333 -127.167 83.833 -165.5 139.5
s-57.5 116.834 -57.5 183.501c0 86 29.167 156 87.5 210s134.166 81 227.499 81c87.333 0 160 -25.5 218 -76.5s87 -114.833 87 -191.5c0 -112.667 -67.667 -206.334 -203 -281.001c154.667 -106.667 232 -226.667 232 -360zM262.002 976.999
c0 -51.333 20.667 -99.833 62 -145.5s110.666 -96.834 207.999 -153.501c89.333 46 134 123 134 231c0 74 -19.667 133.833 -59 179.5s-90.666 68.5 -153.999 68.5c-54.667 0 -100.167 -17.167 -136.5 -51.5s-54.5 -77.166 -54.5 -128.499zM233.002 288.999
c0 -72 22.5 -132.333 67.5 -181s101.167 -73 168.5 -73c60.667 0 111 19.167 151 57.5s60 86.833 60 145.5c0 115.333 -89.333 220.333 -268 315c-119.333 -56 -179 -144 -179 -264z" />
    <glyph glyph-name="nine" unicode="9" 
d="M98 -20l-0.00195312 33.999c168.667 22.667 307.834 92.5 417.501 209.5s170.5 260.167 182.5 429.5c-92 -86 -188.667 -129 -290 -129c-92.667 0 -169.167 31.333 -229.5 94s-90.5 142 -90.5 238c0 98 35.333 180.167 106 246.5s158.334 99.5 263.001 99.5
c114.667 0 209.167 -43.167 283.5 -129.5s111.5 -196.166 111.5 -329.499c0 -204 -71.5 -377.5 -214.5 -520.5s-322.833 -223.833 -539.5 -242.5zM228.998 892.999c0 -84.667 22.168 -152.667 66.501 -204s102.833 -77 175.5 -77c79.333 0 155 36.667 227 110
c0 133.333 -23.833 237.833 -71.5 313.5s-111.167 113.5 -190.5 113.5c-60.667 0 -110.334 -24 -149.001 -72s-58 -109.333 -58 -184z" />
    <glyph glyph-name="colon" unicode=":" horiz-adv-x="598" 
d="M299 672c26.667 0 49.333 -9.5 68 -28.5s28 -41.833 28 -68.5s-9.5 -49.667 -28.5 -69s-41.5 -29 -67.5 -29c-26.667 0 -49.667 9.66699 -69 29s-29 42.333 -29 69s9.66699 49.5 29 68.5s42.333 28.5 69 28.5zM298.999 143c26.667 0 49.333 -9.33203 68 -27.999
s28 -41.334 28 -68.001s-9.5 -49.667 -28.5 -69s-41.5 -29 -67.5 -29c-26.667 0 -49.667 9.66699 -69 29s-29 42.333 -29 69c0 26 9.66699 48.5 29 67.5s42.333 28.5 69 28.5z" />
    <glyph glyph-name="semicolon" unicode=";" horiz-adv-x="598" 
d="M180 -352v34.9971c52.667 26 89.834 56.167 111.501 90.5s32.5 80.5 32.5 138.5c0 15.333 -2.16699 25.333 -6.5 30s-14.5 7 -30.5 7c-30 0 -55.333 9.5 -76 28.5s-31 42.167 -31 69.5c0 26.667 9.66699 49.334 29 68.001s42.666 28 69.999 28
c44.667 0 81 -18.333 109 -55s42 -83.667 42 -141c0 -71.333 -23.167 -134.666 -69.5 -189.999s-106.5 -91.666 -180.5 -108.999zM299 671.997c26.667 0 49.333 -9.5 68 -28.5s28 -41.833 28 -68.5s-9.5 -49.667 -28.5 -69s-41.5 -29 -67.5 -29
c-26.667 0 -49.667 9.66699 -69 29s-29 42.333 -29 69s9.66699 49.5 29 68.5s42.333 28.5 69 28.5z" />
    <glyph glyph-name="less" unicode="&#x3c;" horiz-adv-x="1366" 
d="M1221 166l-1076 452v78l1076 453v-96l-959 -396l959 -395v-96z" />
    <glyph glyph-name="equal" unicode="=" horiz-adv-x="1366" 
d="M145 848v88h1076v-88h-1076zM145 385v88h1076v-88h-1076z" />
    <glyph glyph-name="greater" unicode="&#x3e;" horiz-adv-x="1366" 
d="M1221 696v-78l-1076 -452v96l959 395l-959 396v96z" />
    <glyph glyph-name="question" unicode="?" horiz-adv-x="641" 
d="M287 307l-0.00195312 -63h-39v227c0 39.333 9.5 75.5 28.5 108.5s58.5 73.5 118.5 121.5c53.333 43.333 88.166 78.5 104.499 105.5s24.5 55.833 24.5 86.5c0 48 -19.667 86.667 -59 116s-91.333 44 -156 44c-40 0 -73.5 -5.33301 -100.5 -16
s-58.833 -31.334 -95.5 -62.001v47c54.667 80.667 124.334 121 209.001 121c72.667 0 133.834 -31.167 183.501 -93.5s74.5 -138.5 74.5 -228.5c0 -57.333 -10 -106.333 -30 -147s-61.667 -85 -125 -133c-57.333 -44 -94.666 -82.667 -111.999 -116
s-26 -72.666 -26 -117.999zM284.998 170c26.667 0 49.3359 -9.33301 68.0029 -28s28 -41.334 28 -68.001c0 -27.333 -9.33301 -50.666 -28 -69.999s-41.334 -29 -68.001 -29s-49.834 9.66699 -69.501 29s-29.5 42.666 -29.5 69.999c0 26.667 9.66699 49.334 29 68.001
s42.666 28 69.999 28z" />
    <glyph glyph-name="at" unicode="@" horiz-adv-x="1886" 
d="M1087 307l-3.99805 3.99512c-76.667 -100 -144.667 -172.333 -204 -217s-116.666 -67 -171.999 -67c-58.667 0 -105.834 20.833 -141.501 62.5s-53.5 97.167 -53.5 166.5c0 100 28.833 203.5 86.5 310.5s132.334 198.667 224.001 275s171.834 114.5 240.501 114.5
c50 0 88.167 -10.5 114.5 -31.5s46.166 -56.833 59.499 -107.5h4l23 115l135 18l-203 -704c-7.33301 -25.333 -11 -48 -11 -68c0 -62.667 31 -94 93 -94c63.333 0 130.333 31.833 201 95.5s126.5 144.334 167.5 242.001s61.5 200.834 61.5 309.501
c0 190.667 -60.333 344.5 -181 461.5s-278.667 175.5 -474 175.5c-164.667 0 -312.334 -42.167 -443.001 -126.5s-234 -203 -310 -356s-114 -315.833 -114 -488.5c0 -144.667 34.167 -278.667 102.5 -402s162.166 -218.833 281.499 -286.5s255.666 -101.5 408.999 -101.5
c180.667 0 345 51 493 153s252.667 236.667 314 404h55c-65.333 -184.667 -176.666 -332.5 -333.999 -443.5s-334 -166.5 -530 -166.5c-254.667 0 -463.5 83.833 -626.5 251.5s-244.5 382.834 -244.5 645.501c0 178 41.5 341.333 124.5 490s197.333 265.5 343 350.5
s305.5 127.5 479.5 127.5c214 0 384.833 -62.833 512.5 -188.5s191.5 -294.167 191.5 -505.5c0 -123.333 -24.5 -239.166 -73.5 -347.499s-115.333 -195.666 -199 -261.999s-168.834 -99.5 -255.501 -99.5c-110.667 0 -166 47.333 -166 142c0 13.333 8 63 24 149z
M778.002 134.995c57.333 0 119.668 33.167 187.001 99.5s123.666 149 168.999 248s68 190.167 68 273.5c0 49.333 -12.5 87.5 -37.5 114.5s-60.167 40.5 -105.5 40.5c-54 0 -113 -34.333 -177 -103s-118.167 -154.167 -162.5 -256.5s-66.5 -194.166 -66.5 -275.499
c0 -42.667 11.333 -76.834 34 -102.501s53 -38.5 91 -38.5z" />
    <glyph glyph-name="A" unicode="A" horiz-adv-x="1217" 
d="M758 0v34.998c67.333 0 101 23.333 101 70c0 13.333 -3 28.333 -9 45l-107 325h-378l-80 -235c-20 -59.333 -30 -102.333 -30 -129c0 -49.333 31 -74.666 93 -75.999v-35h-303v35c43.333 6 77 20.333 101 43s48.333 69.667 73 141l324 967h121l340 -1010
c20 -59.333 40.833 -97.666 62.5 -114.999s56.5 -26 104.5 -26v-35h-413zM387 546.998h330l-166 497z" />
    <glyph glyph-name="B" unicode="B" horiz-adv-x="1044" 
d="M612 0h-540v35c50 0 84.667 13.5 104 40.5s29 75.5 29 145.5v731c0 71.333 -9.16699 120.333 -27.5 147s-53.5 40 -105.5 40v34h442c126.667 0 226.334 -26.167 299.001 -78.5s109 -121.5 109 -207.5c0 -126 -78.667 -214.667 -236 -266v-5
c89.333 -18 162.166 -57.5 218.499 -118.5s84.5 -131.167 84.5 -210.5c0 -86.667 -34.5 -156.167 -103.5 -208.5s-160.167 -78.5 -273.5 -78.5zM360 1128v-496.999h121c84.667 0 152 22.167 202 66.5s75 104.166 75 179.499c0 79.333 -24.5 141 -73.5 185
s-118.167 66 -207.5 66h-117zM471 586.001l-111 -0.000976562v-344c0 -76 8.33301 -127.833 25 -155.5s48.667 -41.5 96 -41.5h97c68 0 123.5 22.833 166.5 68.5s64.5 106.834 64.5 183.501c0 87.333 -30.833 157.333 -92.5 210s-143.5 79 -245.5 79z" />
    <glyph glyph-name="C" unicode="C" horiz-adv-x="1260" 
d="M1155 1190l0.000976562 -350.001h-35c-28 108.667 -72.833 188.667 -134.5 240s-143.834 77 -246.501 77c-133.333 0 -239 -48 -317 -144s-117 -224 -117 -384c0 -175.333 41.167 -316.5 123.5 -423.5s190.166 -160.5 323.499 -160.5c184.667 0 321 86 409 258l31 -29
c-39.333 -93.333 -102.833 -167.166 -190.5 -221.499s-187.5 -81.5 -299.5 -81.5c-106 0 -204.167 25 -294.5 75s-160 118.833 -209 206.5s-73.5 188.5 -73.5 302.5c0 186.667 57.333 341.167 172 463.5s259.334 183.5 434.001 183.5c58.667 0 133 -10.333 223 -31
c50.667 -12 85.667 -18 105 -18c30 0 51 12.333 63 37h33z" />
    <glyph glyph-name="D" unicode="D" horiz-adv-x="1366" 
d="M63 0v35c50.667 0 85.667 13.833 105 41.5s29 75.834 29 144.501v731c0 70 -9.66699 118.667 -29 146s-54.333 41 -105 41v34h543c200.667 0 361.167 -57 481.5 -171s180.5 -259 180.5 -435c0 -172.667 -57 -310.334 -171 -413.001s-272.667 -154 -476 -154h-558z
M575 1128h-223v-866c0 -83.333 10 -140.333 30 -171s60 -46 120 -46h121c144 0 257.333 46.5 340 139.5s124 219.833 124 380.5c0 170.667 -45.167 307.167 -135.5 409.5s-215.833 153.5 -376.5 153.5z" />
    <glyph glyph-name="E" unicode="E" horiz-adv-x="1044" 
d="M813 729l35.001 -0.000976562v-285h-35c-12.667 50 -28 81.333 -46 94s-57.333 19 -118 19h-291v-420c0 -29.333 6.5 -50 19.5 -62s35.167 -18 66.5 -18h205c73.333 0 124 4 152 12s51.667 22.833 71 44.5s40 56.834 62 105.501h35l-54 -219h-845v35
c52.667 0 88 13.5 106 40.5s27 74.833 27 143.5v733c0 71.333 -9.33301 120.333 -28 147s-53.667 40 -105 40v34h845v-196h-22c-12 56 -29.167 93.167 -51.5 111.5s-70.833 27.5 -145.5 27.5h-338v-502h328c44.667 0 75.167 8 91.5 24s28.166 46.333 35.499 91z" />
    <glyph glyph-name="F" unicode="F" 
d="M670 567h-309.999v-346c0 -70 9.66699 -118.5 29 -145.5s54.333 -40.5 105 -40.5v-35h-422v35c50.667 0 85.5 13.5 104.5 40.5s28.5 75.5 28.5 145.5v731c0 70.667 -9.33301 119.5 -28 146.5s-53.667 40.5 -105 40.5v34h805v-208h-27
c-12.667 62 -29.334 102.667 -50.001 122s-67.667 29 -141 29h-299v-491h306c41.333 0 72 10.5 92 31.5s33 56.833 39 107.5h32v-330h-32c-4 88.667 -46.333 133 -127 133z" />
    <glyph glyph-name="G" unicode="G" horiz-adv-x="1343" 
d="M1282 508v-35.001c-52 0 -89.167 -11.833 -111.5 -35.5s-33.5 -64.5 -33.5 -122.5v-315c-27.333 -7.33301 -78.5 -14 -153.5 -20s-133.167 -9 -174.5 -9c-216.667 0 -385.5 53.333 -506.5 160s-181.5 247.334 -181.5 422.001c0 122 26.5 232 79.5 330
s127 175.667 222 233s195.833 86 302.5 86c64 0 133.667 -11.333 209 -34c48 -14 84.667 -21 110 -21c33.333 0 55.333 13 66 39h37v-346h-33c-13.333 96 -56.833 172.833 -130.5 230.5s-159.834 86.5 -258.501 86.5c-124 0 -225.667 -49.5 -305 -148.5
s-119 -226.833 -119 -383.5c0 -172 45.833 -314.667 137.5 -428s206.834 -170 345.501 -170c131.333 0 197 41.667 197 125v127c0 72 -9.5 122.333 -28.5 151s-52.5 43 -100.5 43h-45v35h475z" />
    <glyph glyph-name="H" unicode="H" horiz-adv-x="1366" 
d="M1001 221v339.998h-639v-340c0 -69.333 9.83301 -117.666 29.5 -144.999s55.167 -41 106.5 -41v-35h-424v35c51.333 0 86.333 13.833 105 41.5s28 75.834 28 144.501v731c0 72 -9.5 121.167 -28.5 147.5s-53.833 39.5 -104.5 39.5v34h424v-34
c-51.333 0 -86.833 -14.167 -106.5 -42.5s-29.5 -76.5 -29.5 -144.5v-334h639v334c0 72 -9.16699 121.167 -27.5 147.5s-52.833 39.5 -103.5 39.5v34h420v-34c-50 0 -84.667 -13.667 -104 -41s-29 -76 -29 -146v-731c0 -70 9.66699 -118.5 29 -145.5s54 -40.5 104 -40.5v-35
h-420v35c52 0 86.833 13.5 104.5 40.5s26.5 75.5 26.5 145.5z" />
    <glyph glyph-name="I" unicode="I" horiz-adv-x="532" 
d="M477 1173v-34.001c-50 0 -84.667 -13.667 -104 -41s-29 -76 -29 -146v-731c0 -70 9.66699 -118.5 29 -145.5s54 -40.5 104 -40.5v-35h-422v35c51.333 0 86.333 13.333 105 40s28 75.334 28 146.001v731c0 72 -9.16699 121.167 -27.5 147.5s-53.5 39.5 -105.5 39.5v34h422
z" />
    <glyph glyph-name="J" unicode="J" horiz-adv-x="662" 
d="M578 1173v-34.001c-50 0 -84.833 -13.667 -104.5 -41s-29.5 -76 -29.5 -146v-1083c0 -101.333 -26.833 -180.666 -80.5 -237.999s-124.167 -86 -211.5 -86c-84.667 0 -149 35 -193 105l29 20c26.667 -35.333 62 -53 106 -53c57.333 0 104.166 25.333 140.499 76
s54.5 121.667 54.5 213v1046c0 70.667 -9.66699 119.5 -29 146.5s-54.666 40.5 -105.999 40.5v34h424z" />
    <glyph glyph-name="K" unicode="K" horiz-adv-x="1260" 
d="M80 0v35c51.333 0 86.333 13.833 105 41.5s28 75.834 28 144.501v731c0 70.667 -9.16699 119.5 -27.5 146.5s-53.5 40.5 -105.5 40.5v34h420v-34c-49.333 0 -83.5 -14 -102.5 -42s-28.5 -76.333 -28.5 -145v-354l383 377c40.667 40.667 61 73.334 61 98.001
c0 34 -24.667 56 -74 66v34h443v-34h-58c-35.333 0 -75.833 -11.833 -121.5 -35.5s-87.5 -54.834 -125.5 -93.501l-365 -361l485 -491c48 -49.333 85 -81.333 111 -96s62.333 -23.667 109 -27v-35h-279l-569 575v-354c0 -68.667 9.16699 -116.834 27.5 -144.501
s52.833 -41.5 103.5 -41.5v-35h-420z" />
    <glyph glyph-name="L" unicode="L" horiz-adv-x="1024" 
d="M975 256h35l-72 -256h-850v35c48 0 82.167 15 102.5 45s30.5 80.333 30.5 151v738c0 63.333 -9.5 107.5 -28.5 132.5s-53.833 37.5 -104.5 37.5v34h420v-34c-46.667 0 -80.167 -14.333 -100.5 -43s-30.5 -76 -30.5 -142v-784c0 -43.333 9.16699 -73 27.5 -89
s53.5 -24 105.5 -24h233c72 0 122.333 12.5 151 37.5s55.667 78.833 81 161.5z" />
    <glyph glyph-name="M" unicode="M" horiz-adv-x="1579" 
d="M1171 1173l276.998 0.00195312v-34c-88 -2 -132 -54 -132 -156c0 -8.66699 0.333008 -17.667 1 -27l59 -723c6.66699 -76.667 19.834 -127.667 39.501 -153s55.167 -40.333 106.5 -45v-35h-422v35c44.667 7.33301 76.167 22 94.5 44s27.5 55.667 27.5 101
c0 9.33301 -0.333008 19.666 -1 30.999l-62 758l-401 -969h-31l-397 969l-66 -723c-0.666992 -11.333 -1 -22 -1 -32c0 -100.667 51 -160.334 153 -179.001v-35h-365v35c48.667 6.66699 83.834 23.667 105.501 51s36.5 82 44.5 164l71 807
c-41.333 44.667 -92.333 72 -153 82v34h297l375 -923z" />
    <glyph glyph-name="N" unicode="N" horiz-adv-x="1366" 
d="M934 1139v33.999h354v-34c-56.667 0 -96 -13.333 -118 -40s-33 -75 -33 -145v-954h-35l-832 1020v-823c0 -58 11.833 -99.5 35.5 -124.5s63.167 -37.5 118.5 -37.5v-35h-356v35c56.667 0 95 14.833 115 44.5s30 81.834 30 156.501v686c0 74 -13.5 127.167 -40.5 159.5
s-71.5 51.5 -133.5 57.5v34h301l737 -913v686c0 72 -10.167 122.167 -30.5 150.5s-57.833 42.5 -112.5 42.5z" />
    <glyph glyph-name="O" unicode="O" horiz-adv-x="1493" 
d="M121 592c0 174 60 319.167 180 435.5s269.667 174.5 449 174.5c174 0 321.167 -59 441.5 -177s180.5 -262.333 180.5 -433c0 -174 -60.667 -321 -182 -441s-269.666 -180 -444.999 -180c-174.667 0 -322.334 60 -443.001 180s-181 267 -181 441zM301 590
c0 -171.333 40.665 -309.834 121.998 -415.501s188 -158.5 320 -158.5c133.333 0 241.5 54 324.5 162s124.5 242.667 124.5 404c0 173.333 -40.667 312.5 -122 417.5s-186.666 157.5 -315.999 157.5c-137.333 0 -247.166 -51.667 -329.499 -155
s-123.5 -240.666 -123.5 -411.999z" />
    <glyph glyph-name="P" unicode="P" horiz-adv-x="1024" 
d="M78 1173h427.999c140 0 250.833 -31 332.5 -93s122.5 -142 122.5 -240c0 -97.333 -35.667 -172.166 -107 -224.499s-173.666 -78.5 -306.999 -78.5c-51.333 0 -111.333 4 -180 12v-328c0 -70.667 9.5 -119.334 28.5 -146.001s53.833 -40 104.5 -40v-35h-422v35
c50.667 0 85.5 14 104.5 42s28.5 74.667 28.5 140v735c0 70 -9.5 118.667 -28.5 146s-53.833 41 -104.5 41v34zM511.999 1128h-144.998v-526c39.333 -13.333 87.666 -20 144.999 -20c88 0 157.5 22.667 208.5 68s76.5 107.333 76.5 186c0 84.667 -25.333 154.5 -76 209.5
s-120.334 82.5 -209.001 82.5z" />
    <glyph glyph-name="Q" unicode="Q" horiz-adv-x="1473" 
d="M1382 -324l13.001 -31.998c-57.333 -26 -122.333 -39 -195 -39c-60 0 -115.667 7.83301 -167 23.5s-99.5 39.667 -144.5 72s-99.833 86.166 -164.5 161.499c-57.333 66.667 -101.333 108 -132 124c-134 27.333 -249.167 98 -345.5 212s-144.5 244 -144.5 390
c0 108.667 27.667 211 83 307s130.333 171.167 225 225.5s199.667 81.5 315 81.5c178 0 328 -59.167 450 -177.5s183 -263.833 183 -436.5c0 -145.333 -47 -274.833 -141 -388.5s-214.333 -184.834 -361 -213.501c14 -11.333 39 -39.666 75 -84.999
c76.667 -94.667 140.667 -158.834 192 -192.501s102.333 -50.5 153 -50.5c37.333 0 72.666 6 105.999 18zM1178 578.002c0 179.333 -41.001 320.668 -123.001 424.001s-188 155 -318 155c-138 0 -248.167 -51.833 -330.5 -155.5s-123.5 -242.167 -123.5 -415.5
c0 -168.667 40.833 -305.834 122.5 -411.501s188.167 -158.5 319.5 -158.5c136.667 0 246.334 51.167 329.001 153.5s124 238.5 124 408.5z" />
    <glyph glyph-name="R" unicode="R" horiz-adv-x="1217" 
d="M453 543l-95.002 0.00292969v-322c0 -69.333 9.83301 -117.666 29.5 -144.999s54.5 -41 104.5 -41v-35h-422v35c52 0 87.167 13.667 105.5 41s27.5 75.666 27.5 144.999v735c0 69.333 -9 117.166 -27 143.499s-53.333 39.5 -106 39.5v34h481
c118.667 0 213.5 -28.833 284.5 -86.5s106.5 -131.167 106.5 -220.5c0 -144 -80.667 -240 -242 -288c35.333 -22.667 69.833 -53.834 103.5 -93.501s77.834 -105.5 132.501 -197.5c61.333 -102 109.333 -168.833 144 -200.5s70.667 -48.834 108 -51.501v-35h-240
c-49.333 60 -109 147.333 -179 262c-74.667 120.667 -133.167 197.667 -175.5 231s-89.166 50 -140.499 50zM480.998 1128l-123.001 0.000976562v-536h144c86 0 153.5 24.667 202.5 74s73.5 114.666 73.5 195.999c0 79.333 -27.167 143.5 -81.5 192.5
s-126.166 73.5 -215.499 73.5z" />
    <glyph glyph-name="S" unicode="S" horiz-adv-x="854" 
d="M696 1190l33.0029 -0.000976562v-275h-35c-8 76 -35.5 135.333 -82.5 178s-106.167 64 -177.5 64c-63.333 0 -114.333 -16 -153 -48s-58 -74.667 -58 -128c0 -49.333 16 -94.333 48 -135s101.333 -93 208 -157c124 -74 207.333 -138.667 250 -194
s64 -118.666 64 -189.999c0 -92 -32.667 -170.667 -98 -236s-144 -98 -236 -98c-53.333 0 -121.333 14.667 -204 44c-34 12 -55.667 18 -65 18c-19.333 0 -34.333 -15 -45 -45h-34v317h34c0.666992 -87.333 29.167 -157.333 85.5 -210s122.166 -79 197.499 -79
c71.333 0 128.5 19 171.5 57s64.5 88.667 64.5 152c0 47.333 -17.667 92.666 -53 135.999s-109 99.333 -221 168c-91.333 56.667 -152.333 101.334 -183 134.001s-53.334 68.5 -68.001 107.5s-22 81.833 -22 128.5c0 90 29.5 163 88.5 219s135.833 84 230.5 84
c52 0 108.667 -10.333 170 -31c28.667 -9.33301 48.667 -14 60 -14c9.33301 0 15.666 2 18.999 6s7 13 11 27z" />
    <glyph glyph-name="T" unicode="T" horiz-adv-x="1153" 
d="M829 1116l-177.999 0.000976562v-901c0 -70.667 8.66699 -118.334 26 -143.001s51 -37 101 -37v-35h-416v35c52 0 87.333 14.167 106 42.5s28 76.166 28 143.499v895h-170c-81.333 0 -140.5 -13 -177.5 -39s-57.833 -69 -62.5 -129h-35v269h35
c31.333 -29.333 90 -44 176 -44h615c88.667 0 150.667 14.667 186 44h37v-269h-23c-14.667 64.667 -40.834 108.834 -78.501 132.501s-94.167 35.5 -169.5 35.5z" />
    <glyph glyph-name="U" unicode="U" horiz-adv-x="1366" 
d="M999 246l0.000976562 706.001c0 68.667 -9.16699 116.5 -27.5 143.5s-50.833 41.5 -97.5 43.5v34h414v-34c-50 0 -84.667 -13.667 -104 -41s-29 -76 -29 -146v-731c0 -68.667 9.5 -116.834 28.5 -144.501s53.833 -41.5 104.5 -41.5v-35h-289v164
c-110 -128.667 -240.333 -193 -391 -193c-124 0 -221.5 37 -292.5 111s-106.5 171.667 -106.5 293v577c0 70 -9.16699 118.667 -27.5 146s-53.5 41 -105.5 41v34h424v-34c-52.667 0 -88.334 -13.333 -107.001 -40s-28 -75 -28 -145v-594c0 -96 26.333 -171.5 79 -226.5
s126 -82.5 220 -82.5c139.333 0 251 65 335 195z" />
    <glyph glyph-name="V" unicode="V" horiz-adv-x="1217" 
d="M1188 1173v-36c-86 0 -157 -76 -213 -228l-346 -925h-33l-363 952c-34 88 -63.333 143.5 -88 166.5s-60 35.167 -106 36.5v34h426v-34c-68.667 0 -103 -26.333 -103 -79c0 -17.333 4.33301 -37 13 -59l287 -757l272 731c11.333 31.333 17 58.333 17 81
c0 55.333 -35 83 -105 83v34h342z" />
    <glyph glyph-name="W" unicode="W" horiz-adv-x="1878" 
d="M1835 1173l0.000976562 -33.999c-46 -3.33301 -84.333 -22.5 -115 -57.5s-61.334 -95.167 -92.001 -180.5l-330 -917h-36l-320 866l-311 -866h-33l-358 968c-20 53.333 -37.833 92.833 -53.5 118.5s-32.5 43.5 -50.5 53.5s-49.667 15 -95 15v34h434v-34
c-68.667 -8 -103 -33.333 -103 -76c0 -17.333 5 -39.333 15 -66l275 -745l249 682l-26 76c-16.667 47.333 -37 80.666 -61 99.999s-58.333 29 -103 29v34h430v-34c-76 0 -114 -23.333 -114 -70c0 -19.333 5.33301 -44 16 -74l274 -743l240 657c19.333 52.667 29 96 29 130
c0 68 -39 102 -117 102v32h356z" />
    <glyph glyph-name="X" unicode="X" horiz-adv-x="1260" 
d="M987 1012l-291 -374.999l299 -408c54 -73.333 95.833 -122.333 125.5 -147s65.834 -40.334 108.501 -47.001v-35h-471v35c60 1.33301 90 28.666 90 81.999c0 34.667 -14.333 71.334 -43 110.001l-207 285l-225 -293c-35.333 -45.333 -53 -83.666 -53 -114.999
c0 -40.667 30.667 -63.667 92 -69v-35h-375v35c42.667 0 79 9.83301 109 29.5s64.667 54.834 104 105.501l309 395l-283 391c-48.667 67.333 -89.834 114.666 -123.501 141.999s-72.167 41 -115.5 41v34h450v-34c-56.667 0 -85 -20.333 -85 -61c0 -22 10 -46.667 30 -74
l223 -310l219 277c34 43.333 51 79.666 51 108.999c0 39.333 -31.333 59 -94 59v34h375v-34c-48 0 -86 -7.66699 -114 -23s-63 -50 -105 -104z" />
    <glyph glyph-name="Y" unicode="Y" horiz-adv-x="1153" 
d="M915 1006l-263.999 -416.001v-369c0 -71.333 9.16699 -120.166 27.5 -146.499s52.166 -39.5 101.499 -39.5v-35h-428v35c58 0 96.5 14 115.5 42s28.5 76 28.5 144v369l-250 389c-41.333 64.667 -75 107 -101 127s-62 31 -108 33v34h459v-34
c-80.667 0 -121 -18.333 -121 -55c0 -16.667 8 -37.334 24 -62.001l232 -356l186 295c27.333 44 41 81.667 41 113c0 43.333 -26 65 -78 65v34h322v-34c-43.333 -2.66699 -76.833 -12.167 -100.5 -28.5s-52.5 -51.166 -86.5 -104.499z" />
    <glyph glyph-name="Z" unicode="Z" horiz-adv-x="1153" 
d="M1055 283h35.001l-43 -283h-984v31l773 1085h-506c-74 0 -127.333 -9.83301 -160 -29.5s-57.334 -57.5 -74.001 -113.5h-33l19 200h954v-36l-768 -1080h443c97.333 0 172.5 17.5 225.5 52.5s92.5 92.833 118.5 173.5z" />
    <glyph glyph-name="bracketleft" unicode="[" horiz-adv-x="532" 
d="M139 -410v1583h326v-36h-62c-26 0 -50.333 -8.33301 -73 -25s-36.5 -37.667 -41.5 -63s-7.5 -56.333 -7.5 -93v-1149c0 -57.333 5 -95.833 15 -115.5s24.5 -35.334 43.5 -47.001s40.167 -17.5 63.5 -17.5h62v-37h-326z" />
    <glyph glyph-name="backslash" unicode="\" horiz-adv-x="1024" 
d="M166 1219h94l598 -1244h-94z" />
    <glyph glyph-name="bracketright" unicode="]" horiz-adv-x="532" 
d="M393 1173v-1583h-325v37h61c24 0 47.167 8 69.5 24s36.833 35.333 43.5 58s10 55.334 10 98.001v1149c0 120.667 -41 181 -123 181h-61v36h325z" />
    <glyph glyph-name="asciicircum" unicode="^" horiz-adv-x="961" 
d="M467 1386h31l426 -716h-93l-350 585l-350 -585h-94z" />
    <glyph glyph-name="underscore" unicode="_" horiz-adv-x="1024" 
d="M-18 -256v102h1060v-102h-1060z" />
    <glyph glyph-name="grave" unicode="`" horiz-adv-x="682" 
d="M182 1286h113l133 -409h-39z" />
    <glyph glyph-name="a" unicode="a" horiz-adv-x="748" 
d="M268 -23c-56.667 0 -105.334 18.833 -146.001 56.5s-61 83.167 -61 136.5c0 50.667 17.5 92.5 52.5 125.5s106.167 64.5 213.5 94.5c67.333 18.667 112.666 34.667 135.999 48v54c0 52.667 -14.667 95.167 -44 127.5s-68.666 48.5 -117.999 48.5
c-44.667 0 -84.334 -14 -119.001 -42s-59 -66 -73 -114l-37 10c14.667 67.333 46.5 121.333 95.5 162s106.5 61 172.5 61c78 0 141.167 -23.5 189.5 -70.5s72.5 -112.167 72.5 -195.5v-311c0 -44 2.83301 -73.833 8.5 -89.5s16.5 -23.5 32.5 -23.5
c10.667 0 19.334 4.5 26.001 13.5s14.334 27.833 23.001 56.5h35c-3.33301 -45.333 -17.5 -81.333 -42.5 -108s-57.833 -40 -98.5 -40c-59.333 0 -100.333 34.333 -123 103c-36 -39.333 -68 -66.333 -96 -81s-61 -22 -99 -22zM463 147v245.999
c-20.667 -8.66699 -50.667 -19.667 -90 -33c-72.667 -24.667 -119.167 -49.167 -139.5 -73.5s-30.5 -57.166 -30.5 -98.499c0 -36 10.833 -67.167 32.5 -93.5s47.5 -39.5 77.5 -39.5c27.333 0 56 8.83301 86 26.5s51.333 39.5 64 65.5z" />
    <glyph glyph-name="b" unicode="b" horiz-adv-x="917" 
d="M231 1286l34.9971 0.000976562v-649c30.667 33.333 67.834 59.666 111.501 78.999s87.834 29 132.501 29c94 0 173.5 -34.167 238.5 -102.5s97.5 -152.166 97.5 -251.499c0 -116.667 -43.833 -212.334 -131.5 -287.001s-208.5 -112 -362.5 -112
c-60 0 -135 7.33301 -225 22v1088c0 56.667 -7.16699 91.667 -21.5 105s-50.166 20 -107.499 20v35zM265.997 584.001v-414c0 -54 9.16699 -91 27.5 -111s50.166 -30 95.499 -30c94 0 168.333 30.333 223 91s82 145.667 82 255c0 91.333 -23.667 166 -71 224
s-104 87 -170 87c-69.333 0 -131.666 -34 -186.999 -102z" />
    <glyph glyph-name="c" unicode="c" horiz-adv-x="788" 
d="M735 745l0.000976562 -256.001h-35c-15.333 66.667 -44.666 119.334 -87.999 158.001s-95 58 -155 58c-72 0 -130.667 -28 -176 -84s-68 -128.667 -68 -218c0 -98.667 26.833 -184 80.5 -256s117.5 -108 191.5 -108c49.333 0 98.166 13.333 146.499 40
s89.833 63.667 124.5 111v-53c-78.667 -106.667 -185.334 -160 -320.001 -160c-107.333 0 -194.833 34 -262.5 102s-101.5 156.333 -101.5 265c0 111.333 36.5 206 109.5 284s161.167 117 264.5 117c46 0 97.333 -9.33301 154 -28c24.667 -8 41.667 -12 51 -12
c20.667 0 37 13.333 49 40h35z" />
    <glyph glyph-name="d" unicode="d" 
d="M750 1286h34.002v-1145c0 -40 8.66699 -67.667 26 -83s49 -23 95 -23v-35h-422c-130 0 -232.833 35.667 -308.5 107s-113.5 161.333 -113.5 270c0 102 33.167 188.833 99.5 260.5s146.5 107.5 240.5 107.5c75.333 0 156.666 -29.333 243.999 -88v445
c0 48.667 -6.33301 81.667 -19 99s-38.334 26 -77.001 26h-41v35zM645.002 143v437c-28 38 -60.833 67.833 -98.5 89.5s-75.167 32.5 -112.5 32.5c-66 0 -119.333 -27.167 -160 -81.5s-61 -125.166 -61 -212.499c0 -112.667 27.833 -203.334 83.5 -272.001
s133.5 -103 233.5 -103c40.667 0 70 8.66699 88 26s27 45.333 27 84z" />
    <glyph glyph-name="e" unicode="e" horiz-adv-x="831" 
d="M764 186l-0.000976562 -52.999c-44 -56 -88.833 -96 -134.5 -120s-100.5 -36 -164.5 -36c-113.333 0 -206.833 35.5 -280.5 106.5s-110.5 161.167 -110.5 270.5c0 110 35.167 202.667 105.5 278s156.5 113 258.5 113c84 0 157.333 -28.333 220 -85
s94 -124.334 94 -203.001v-15h-533v-10c0 -80 12.167 -149.5 36.5 -208.5s59.833 -105.167 106.5 -138.5s95.334 -50 146.001 -50c47.333 0 87.833 9.83301 121.5 29.5s78.5 60.167 134.5 121.5zM218.999 477.001h395.001v14c0 64.667 -18.5 116 -55.5 154
s-83.167 57 -138.5 57c-58.667 0 -105.834 -20 -141.501 -60s-55.5 -95 -59.5 -165z" />
    <glyph glyph-name="f" unicode="f" horiz-adv-x="532" 
d="M481 670l-180.001 0.00195312v-527c0 -38 8.16699 -65.5 24.5 -82.5s43.166 -25.5 80.499 -25.5h34v-35h-411v35h32c36.667 0 62.667 7.16699 78 21.5s23 39.166 23 74.499v539h-101v35c46.667 18.667 80.334 35 101.001 49v143c0 112.667 27.833 205.667 83.5 279
s131.5 110 227.5 110c84.667 0 153 -19.667 205 -59l-70 -183h-35c0.666992 10.667 1 21 1 31c0 53.333 -12.167 94.666 -36.5 123.999s-58.166 44 -101.499 44c-42 0 -75 -15 -99 -45s-36 -71.667 -36 -125v-350h180v-53z" />
    <glyph glyph-name="g" unicode="g" horiz-adv-x="854" 
d="M596 737l233.002 0.00195312v-82h-192c54.667 -66 82 -136.333 82 -211c0 -73.333 -26.5 -138.333 -79.5 -195s-116.5 -87 -190.5 -91c-52.667 -2.66699 -105.167 -19.667 -157.5 -51s-78.5 -59.333 -78.5 -84c0 -26.667 13.833 -46.667 41.5 -60s92.5 -29 194.5 -47
c113.333 -20.667 192.166 -39.334 236.499 -56.001s79 -40.5 104 -71.5s37.5 -66.167 37.5 -105.5c0 -85.333 -43.167 -157.333 -129.5 -216s-191.833 -88 -316.5 -88c-106 0 -191.833 20.5 -257.5 61.5s-98.5 94.5 -98.5 160.5c0 46 18.833 86.833 56.5 122.5
s97.167 70.5 178.5 104.5v4c-49.333 11.333 -88 28.833 -116 52.5s-42 50.5 -42 80.5c0 80 74.667 146.333 224 199v4c-72.667 19.333 -128.834 52.833 -168.501 100.5s-59.5 105.5 -59.5 173.5c0 87.333 29.167 159.666 87.5 216.999s131.833 86 220.5 86
c17.333 0 49.333 -1.33301 96 -4s78 -4 94 -4zM229.002 457.002c0 -78.667 16.334 -142 49.001 -190s76 -72 130 -72c55.333 0 99.166 23.5 131.499 70.5s48.5 110.833 48.5 191.5c0 73.333 -16.5 133 -49.5 179s-75.833 69 -128.5 69c-54 0 -97.667 -22.833 -131 -68.5
s-50 -105.5 -50 -179.5zM752.003 -380.998c0 47.333 -29.6689 84.167 -89.002 110.5s-171.666 53.833 -336.999 82.5c-140.667 -38 -211 -95.333 -211 -172c0 -52 34.667 -95.5 104 -130.5s156 -52.5 260 -52.5c80.667 0 146.334 15 197.001 45s76 69 76 117z" />
    <glyph glyph-name="h" unicode="h" horiz-adv-x="897" 
d="M629 152l0.000976562 358.001c0 48 -13.333 86.333 -40 115s-62 43 -106 43c-40.667 0 -77.167 -10.5 -109.5 -31.5s-66.166 -56.5 -101.499 -106.5v-397c0 -37.333 8.66699 -63 26 -77s49 -21 95 -21v-35h-389v35c55.333 1.33301 90.666 10.333 105.999 27s23 54 23 112
v944c0 44 -7.83301 73.167 -23.5 87.5s-50.834 21.5 -105.501 21.5v35l234 24h34v-686c46.667 53.333 88.834 90.833 126.501 112.5s80.167 32.5 127.5 32.5c70.667 0 128.667 -22.667 174 -68s68 -106.333 68 -183v-320c0 -56.667 7.66699 -94 23 -112
s46.666 -27 93.999 -27v-35h-377v35c49.333 0 81.833 7.66699 97.5 23s23.5 46.666 23.5 93.999z" />
    <glyph glyph-name="i" unicode="i" horiz-adv-x="469" 
d="M270 745h35v-610c0 -40 8.66699 -66.667 26 -80s49 -20 95 -20v-35h-397v35c58 0 95.333 6.5 112 19.5s25 39.833 25 80.5v445c0 44 -7.66699 73 -23 87s-53.333 21 -114 21v35zM238 1120c24.667 0 45.5 -8.5 62.5 -25.5s25.5 -37.833 25.5 -62.5
s-8.66699 -45.834 -26 -63.501s-38 -26.5 -62 -26.5c-24.667 0 -46 8.83301 -64 26.5s-27 38.834 -27 63.501s8.83301 45.5 26.5 62.5s39.167 25.5 64.5 25.5z" />
    <glyph glyph-name="j" unicode="j" horiz-adv-x="469" 
d="M283 745h34v-860c0 -249.333 -126 -374 -378 -374h-21v34h6c90.667 0 155.667 25 195 75s59 131.667 59 245v731c0 38 -9.16699 62.833 -27.5 74.5s-54.833 17.5 -109.5 17.5v35zM238 1120c24.667 0 45.5 -8.5 62.5 -25.5s25.5 -37.833 25.5 -62.5
s-8.66699 -45.834 -26 -63.501s-38 -26.5 -62 -26.5c-24.667 0 -46 8.83301 -64 26.5s-27 38.834 -27 63.501s8.83301 45.5 26.5 62.5s39.167 25.5 64.5 25.5z" />
    <glyph glyph-name="k" unicode="k" horiz-adv-x="897" 
d="M610 600l-187.999 -171.999l301 -301c34 -34 63.167 -57.333 87.5 -70s54.5 -20 90.5 -22v-35h-237l-377 362c0 -190 8 -292 24 -306s48.333 -21 97 -21v-35h-390v35c56 1.33301 91.5 10.166 106.5 26.499s22.5 53.833 22.5 112.5v954c0 42 -7.83301 69 -23.5 81
s-50.834 18 -105.501 18v35l234 24h35v-917l194 178c37.333 34 56 64.333 56 91c0 32 -29.333 48.667 -88 50v35h395v-35h-35c-70 0 -136.333 -29.333 -199 -88z" />
    <glyph glyph-name="l" unicode="l" horiz-adv-x="492" 
d="M432 35h19.001v-35h-404v35h37c37.333 0 62.666 9.66699 75.999 29s20 55.333 20 108v956c0 37.333 -7.33301 63.166 -22 77.499s-40 21.5 -76 21.5h-47v35l250 24h34v-1149c0 -39.333 8 -66.166 24 -80.499s45.667 -21.5 89 -21.5z" />
    <glyph glyph-name="m" unicode="m" horiz-adv-x="1473" 
d="M301 745l0.000976562 -151.002h4c30 46 68.5 82.667 115.5 110s94.5 41 142.5 41c52.667 0 99.5 -14.5 140.5 -43.5s70.167 -68.833 87.5 -119.5c77.333 108.667 166.666 163 267.999 163c70.667 0 129.334 -21.833 176.001 -65.5s70 -103.5 70 -179.5v-365
c0 -39.333 8.66699 -65.833 26 -79.5s49.333 -20.5 96 -20.5v-35h-385v35c52.667 0 86.334 8.5 101.001 25.5s22 54.833 22 113.5v344c0 46.667 -14 83.334 -42 110.001s-66.333 40 -115 40c-76 0 -144.333 -46.667 -205 -140v-389c0 -40.667 8.66699 -68.167 26 -82.5
s49 -21.5 95 -21.5v-35h-381v35c54.667 0 88.5 8.66699 101.5 26s19.5 55 19.5 113v336c0 48 -14.333 86.333 -43 115s-65.667 43 -111 43c-39.333 0 -77.833 -12.667 -115.5 -38s-68.834 -59.333 -93.501 -102v-395c0 -37.333 9 -63.333 27 -78s50 -22 96 -22v-33h-385v35
c53.333 0 87.166 8.33301 101.499 25s21.5 47.334 21.5 92.001v430c0 37.333 -7.83301 64.333 -23.5 81s-41.5 25 -77.5 25h-45v35l250 22h35z" />
    <glyph glyph-name="n" unicode="n" 
d="M281 745l-0.00195312 -144.999c84.667 96.667 172 145 262 145c70 0 128.333 -23.833 175 -71.5s70 -110.5 70 -188.5v-327c0 -50 8.33301 -83 25 -99s49.334 -24 98.001 -24v-35h-387v35c48 0 80.833 6.16699 98.5 18.5s26.5 36.166 26.5 71.499v379
c0 50.667 -15.167 91 -45.5 121s-69.166 45 -116.499 45c-68 0 -136.667 -47.333 -206 -142v-354c0 -60 7.83301 -98.167 23.5 -114.5s48.5 -24.5 98.5 -24.5v-35h-383v35c55.333 0 89.333 8.83301 102 26.5s19 55.167 19 112.5v408c0 43.333 -7.66699 71.833 -23 85.5
s-48 20.5 -98 20.5v35l226 22h35z" />
    <glyph glyph-name="o" unicode="o" 
d="M866 360c0 -109.333 -37.833 -200.5 -113.5 -273.5s-170.167 -109.5 -283.5 -109.5s-207.833 36.5 -283.5 109.5s-113.5 164.167 -113.5 273.5c0 110.667 37.667 202.5 113 275.5s170 109.5 284 109.5s208.667 -36.5 284 -109.5s113 -164.833 113 -275.5zM715 360
c0 103.333 -22.002 186.666 -66.002 249.999s-104 95 -180 95s-136 -31 -180 -93s-66 -146 -66 -252c0 -104 21.833 -187 65.5 -249s103.834 -93 180.501 -93s136.834 31.333 180.501 94s65.5 145.334 65.5 248.001z" />
    <glyph glyph-name="p" unicode="p" 
d="M285 745l-0.00195312 -121.999c46 44.667 87.833 76.167 125.5 94.5s79.834 27.5 126.501 27.5c94 0 172 -35.833 234 -107.5s93 -161.834 93 -270.501c0 -112 -34.167 -205 -102.5 -279s-154.166 -111 -257.499 -111c-71.333 0 -144.333 28.667 -219 86v-477
c0 -49.333 8.5 -81.833 25.5 -97.5s48.833 -23.5 95.5 -23.5v-34h-388v34c50 0 83.667 7 101 21s26 40.667 26 80v1009c0 48.667 -7.33301 79.667 -22 93s-49.667 20 -105 20v35l232 22h35zM284.998 569.001l-0.00195312 -453.999c56.667 -60 123.334 -90 200.001 -90
c64.667 0 118.834 30.333 162.501 91s65.5 136 65.5 226c0 97.333 -21.833 177.666 -65.5 240.999s-99.167 95 -166.5 95c-68 0 -133.333 -36.333 -196 -109z" />
    <glyph glyph-name="q" unicode="q" horiz-adv-x="917" 
d="M635 -432l0.000976562 466.999c-68 -38.667 -139.667 -58 -215 -58c-106.667 0 -193.5 33.333 -260.5 100s-100.5 153.667 -100.5 261c0 122.667 42.167 217.5 126.5 284.5s206.166 100.5 365.499 100.5c38.667 0 113 -3.33301 223 -10v-1143
c0 -41.333 8.66699 -69.166 26 -83.499s50.333 -21.5 99 -21.5v-34h-383v34c46 0 77.333 7.33301 94 22s25 41.667 25 81zM635.001 79.999v582c-32.667 6.66699 -64.667 10 -96 10c-101.333 0 -181.333 -28.667 -240 -86s-88 -135.333 -88 -234c0 -90 24 -165.667 72 -227
s112 -92 192 -92c50 0 103.333 15.667 160 47z" />
    <glyph glyph-name="r" unicode="r" horiz-adv-x="705" 
d="M303 745l-0.00292969 -157c66.667 58 118.5 98.667 155.5 122s67.833 35 92.5 35c46 0 90.333 -19 133 -57l-55 -129c-77.333 42.667 -134.666 64 -171.999 64c-41.333 0 -92.666 -29.333 -153.999 -88v-398c0 -40 8.33301 -67 25 -81s48.667 -21 96 -21v-35h-383v35
c50.667 0 83.834 8 99.501 24s23.5 54.333 23.5 115v395c0 50 -8.5 82.333 -25.5 97s-58.5 22 -124.5 22v35l254 22h35z" />
    <glyph glyph-name="s" unicode="s" horiz-adv-x="641" 
d="M537 745l0.000976562 -223.002h-41c-6.66699 56 -26.667 100.5 -60 133.5s-73.666 49.5 -120.999 49.5c-36 0 -65 -9 -87 -27s-33 -42 -33 -72c0 -29.333 10.167 -55.166 30.5 -77.499s64.5 -49.166 132.5 -80.499c88 -40 146.167 -78.333 174.5 -115
s42.5 -80.667 42.5 -132c0 -60.667 -22.667 -113.167 -68 -157.5s-99 -66.5 -161 -66.5c-32 0 -74.333 11.667 -127 35c-28.667 12.667 -47.667 19 -57 19c-12.667 0 -23.334 -4.66699 -32.001 -14s-13.667 -21 -15 -35h-35v247h35c12.667 -64.667 40.667 -116 84 -154
s93 -57 149 -57c36 0 66.167 12 90.5 36s36.5 53.667 36.5 89c0 34 -11.167 63.5 -33.5 88.5s-70.833 53.833 -145.5 86.5c-84 36.667 -139.333 71 -166 103s-40 70.667 -40 116c0 56.667 21.833 105.5 65.5 146.5s95.5 61.5 155.5 61.5c28 0 58.333 -6.66699 91 -20
c23.333 -9.33301 42.333 -14 57 -14c19.333 0 33.666 11.333 42.999 34h35z" />
    <glyph glyph-name="t" unicode="t" horiz-adv-x="598" 
d="M274 971h35v-244h252v-53h-252v-467c0 -48.667 11.333 -86.167 34 -112.5s55 -39.5 97 -39.5c49.333 0 94.333 23.333 135 70l23 -27c-63.333 -80.667 -136.333 -121 -219 -121c-62 0 -112.333 19.667 -151 59s-58 90 -58 152v486h-137v35
c100 50 180.333 137.333 241 262z" />
    <glyph glyph-name="u" unicode="u" 
d="M754 745l34 0.000976562v-608c0 -40 8.5 -67 25.5 -81s50.167 -21 99.5 -21v-35l-264 -14v133h-4c-72.667 -94.667 -157.334 -142 -254.001 -142c-69.333 0 -126.166 23.167 -170.499 69.5s-66.5 104.5 -66.5 174.5v371c0 37.333 -9.33301 62.666 -28 75.999
s-52.334 20 -101.001 20v35l233 22h35v-518c0 -50.667 14.833 -90.667 44.5 -120s69.5 -44 119.5 -44c69.333 0 133.333 39.667 192 119v391c0 50 -7.66699 81.333 -23 94s-54.666 19.667 -117.999 21v35z" />
    <glyph glyph-name="v" unicode="v" horiz-adv-x="854" 
d="M383 723v-35.0029c-47.333 -4 -71 -24 -71 -60c0 -17.333 5.33301 -39 16 -65l161 -387l142 367c14.667 36.667 22 64.334 22 83.001c0 36.667 -31.333 57.334 -94 62.001v35h266v-35c-43.333 -4 -73.5 -12.667 -90.5 -26s-33.167 -39.333 -48.5 -78l-233 -600h-35
l-232 569c-23.333 56.667 -43.5 92.834 -60.5 108.501s-47.833 24.5 -92.5 26.5v35h350z" />
    <glyph glyph-name="w" unicode="w" horiz-adv-x="1366" 
d="M381 723l-0.000976562 -35c-50.667 -1.33301 -76 -15.666 -76 -42.999c0 -14 5.66699 -35 17 -63l163 -406l170 436c-15.333 30 -29.833 50 -43.5 60s-34.5 15.333 -62.5 16v35h350v-35c-62 -1.33301 -93 -20.333 -93 -57c0 -12.667 3.66699 -28.334 11 -47.001l162 -408
l149 379c12 30.667 18 55 18 73c0 38.667 -30.333 58.667 -91 60v35h282v-35c-50.667 0 -85.5 -7.83301 -104.5 -23.5s-40.167 -52.167 -63.5 -109.5l-225 -571h-35l-231 571l-227 -571h-35l-254 624c-21.333 53.333 -65.666 80 -132.999 80v35h352z" />
    <glyph glyph-name="x" unicode="x" 
d="M326 0h-295.001v35c52.667 0 91.334 7.5 116.001 22.5s57.667 47.167 99 96.5l157 186l-172 225c-36 47.333 -66.5 78.833 -91.5 94.5s-61.167 25.167 -108.5 28.5v35h399v-35c-42.667 -3.33301 -64 -17.333 -64 -42c0 -16.667 9.66699 -38.667 29 -66l97 -136l98 121
c25.333 30.667 38 57.334 38 80.001c0 28.667 -19 43 -57 43v35h287v-35c-44.667 -4.66699 -80.167 -15.5 -106.5 -32.5s-61.833 -51.833 -106.5 -104.5l-121 -143l219 -287c44.667 -57.333 98.667 -86 162 -86v-35h-381v35c36.667 5.33301 55 18.666 55 39.999
c0 13.333 -7.33301 30 -22 50l-127 174l-129 -162c-18 -22 -27 -42 -27 -60c0 -26 17.333 -40 52 -42v-35z" />
    <glyph glyph-name="y" unicode="y" horiz-adv-x="854" 
d="M381 723l0.000976562 -35.002c-41.333 -6 -62 -27 -62 -63c0 -14 3.66699 -29.667 11 -47l174 -410l127 383c10 31.333 15 56.333 15 75c0 38.667 -24.333 59.334 -73 62.001v35h256v-35c-38.667 0 -70.667 -13.167 -96 -39.5s-48.333 -69.833 -69 -130.5l-289 -854
c-28 -81.333 -63.667 -145.666 -107 -192.999s-87.666 -71 -132.999 -71c-26.667 0 -56.667 10.333 -90 31l47 125c25.333 -11.333 48.666 -17 69.999 -17c43.333 0 79.166 13.667 107.499 41s53.833 73 76.5 137l94 263l-260 600c-19.333 43.333 -38.5 72 -57.5 86
s-48.833 21.333 -89.5 22v35h348z" />
    <glyph glyph-name="z" unicode="z" horiz-adv-x="748" 
d="M80 723l608 0.000976562v-35l-461 -653h226c76 0 131 14.667 165 44s52 76.666 54 141.999h35l-19 -221h-627v35l461 653h-203c-62 0 -113 -15.833 -153 -47.5s-63.333 -74.5 -70 -128.5h-35z" />
    <glyph glyph-name="braceleft" unicode="{" horiz-adv-x="983" 
d="M524 127c0 59.333 -21.833 110.495 -65.5 153.495s-100.834 69.5 -171.501 79.5v46c70.667 10 127.834 36.5 171.501 79.5s65.5 94.167 65.5 153.5c0 30.667 -7 75 -21 133c-14.667 62 -22 116.667 -22 164c0 92.667 32.333 174.5 97 245.5
s148.334 116.167 251.001 135.5l9 -37c-72 -16.667 -128 -45 -168 -85s-60 -88 -60 -144c0 -31.333 7.33301 -86.666 22 -165.999c14 -76 21 -127.333 21 -154c0 -74 -24.667 -141.167 -74 -201.5s-119.333 -109.166 -210 -146.499
c90.667 -37.333 160.667 -86.166 210 -146.499s74 -127.5 74 -201.5c0 -26.667 -7 -78 -21 -154c-14.667 -79.333 -22 -134.666 -22 -165.999c0 -56 20 -104 60 -144s96 -68.333 168 -85l-9 -37c-102.667 19.333 -186.334 64.5 -251.001 135.5s-97 152.833 -97 245.5
c0 46.667 7.33301 101.334 22 164.001c14 60 21 104.333 21 133z" />
    <glyph glyph-name="bar" unicode="|" horiz-adv-x="1016" 
d="M463 -483v1702h90v-1702h-90z" />
    <glyph glyph-name="braceright" unicode="}" horiz-adv-x="983" 
d="M459 639c0 -59.333 21.833 -110.494 65.5 -153.494s100.834 -69.5 171.501 -79.5v-46c-70.667 -10 -127.834 -36.5 -171.501 -79.5s-65.5 -94.167 -65.5 -153.5c0 -30 7.33301 -74.333 22 -133c14 -58.667 21 -113.334 21 -164.001c0 -92.667 -32.333 -174.5 -97 -245.5
s-148.334 -116.167 -251.001 -135.5l-9 37c72 16.667 128 45 168 85s60 88 60 144c0 31.333 -7.33301 86.666 -22 165.999c-14 76 -21 127.333 -21 154c0 74 24.667 141.167 74 201.5s119.333 109.166 210 146.499c-90.667 37.333 -160.667 86.166 -210 146.499
s-74 127.5 -74 201.5c0 26.667 7 78 21 154c14.667 79.333 22 134.666 22 165.999c0 56 -20 104 -60 144s-96 68.333 -168 85l9 37c102.667 -19.333 186.334 -64.5 251.001 -135.5s97 -152.833 97 -245.5c0 -56.667 -6.66699 -111.334 -20 -164.001
c-15.333 -62 -23 -106.333 -23 -133z" />
    <glyph glyph-name="asciitilde" unicode="~" horiz-adv-x="1366" 
d="M195 518h-48v9c0 80.667 23.167 147.167 69.5 199.5s105.833 78.5 178.5 78.5c52 0 156.333 -32.667 313 -98c144 -59.333 237.667 -89 281 -89c51.333 0 93 16.167 125 48.5s51 77.833 57 136.5h48c-2.66699 -85.333 -27 -154.5 -73 -207.5s-105 -79.5 -177 -79.5
c-51.333 0 -157.333 32.333 -318 97c-141.333 56.667 -232 85 -272 85c-102.667 0 -164 -60 -184 -180z" />
    <glyph glyph-name="nonbreakingspace" unicode="&#xa0;" horiz-adv-x="461" 
 />
    <glyph glyph-name="exclamdown" unicode="&#xa1;" horiz-adv-x="598" 
d="M219 -360l62.001 733.002h32l54 -733c4 -62 6 -101.667 6 -119c0 -30.667 -7.5 -55.834 -22.5 -75.501s-34.167 -29.5 -57.5 -29.5c-24.667 0 -44.834 9.66699 -60.501 29s-23.5 44.666 -23.5 75.999c0 16.667 2.33301 45 7 85zM299.001 485.002
c-26.667 0 -49.333 9.5 -68 28.5s-28 41.833 -28 68.5s9.5 49.667 28.5 69s41.5 29 67.5 29c26.667 0 49.667 -9.66699 69 -29s29 -42.333 29 -69s-9.66699 -49.5 -29 -68.5s-42.333 -28.5 -69 -28.5z" />
    <glyph glyph-name="cent" unicode="&#xa2;" horiz-adv-x="854" 
d="M643 1059h35l-105 -326c19.333 -2.66699 41.666 -8.66699 66.999 -18c18.667 -6.66699 32.667 -10 42 -10c19.333 0 36.333 13.333 51 40h35v-256h-35c-24.667 107.333 -82 175 -172 203l-190 -592c44.667 -40.667 94.334 -61 149.001 -61c102.667 0 192 50.333 268 151
v-53c-79.333 -106.667 -185.666 -160 -318.999 -160c-48.667 0 -92.334 7 -131.001 21l-88 -272h-35l92 284c-135.333 62 -203 173.333 -203 334c0 110.667 36.5 205 109.5 283s161.167 117 264.5 117c20.667 0 41.667 -1.66699 63 -5zM344 125l184 575
c-15.333 2.66699 -30 4 -44 4c-71.333 0 -128.833 -28.333 -172.5 -85s-65.5 -130 -65.5 -220c0 -110 32.667 -201.333 98 -274z" />
    <glyph glyph-name="sterling" unicode="&#xa3;" 
d="M145 -23c-30 0 -53.833 6.33398 -71.5 19.001s-26.5 29.667 -26.5 51c0 38.667 23.5 73.834 70.5 105.501s102.5 47.5 166.5 47.5c7.33301 0 15 -0.333008 23 -1c9.33301 32 14 64.667 14 98s-4.66699 68.666 -14 105.999h-217v46h217c-23.333 80 -35 169.333 -35 268
c0 90 25.333 163.333 76 220s116.334 85 197.001 85c108 0 191.333 -53.333 250 -160l-33 -16c-52 84.667 -109.333 127 -172 127c-50.667 0 -90.334 -19.833 -119.001 -59.5s-43 -94.167 -43 -163.5c0 -45.333 1.66699 -99 5 -161c3.33301 -56 5 -102.667 5 -140h221v-46
h-221c-6.66699 -85.333 -23 -153.333 -49 -204c52 -12.667 116 -34 192 -64c75.333 -30 130 -45 164 -45c33.333 0 60.166 14.167 80.499 42.5s31.833 68.166 34.5 119.499h33c2.66699 -13.333 4 -26.333 4 -39c0 -62.667 -23.833 -117.667 -71.5 -165
s-102.167 -71 -163.5 -71c-48 0 -102.167 12.833 -162.5 38.5s-111.5 57.5 -153.5 95.5c-24 -39.333 -54.667 -71.5 -92 -96.5s-73.666 -37.5 -108.999 -37.5zM285 137.001c-20.667 6.66699 -40.001 10 -58.001 10c-33.333 0 -65.166 -9.16699 -95.499 -27.5
s-45.5 -37.833 -45.5 -58.5c0 -12 4.5 -22.167 13.5 -30.5s20.167 -12.5 33.5 -12.5c28.667 0 57 11 85 33s50.333 50.667 67 86z" />
    <glyph glyph-name="currency" unicode="&#xa4;" horiz-adv-x="1389" 
d="M289 1122l123 -123.001c87.333 67.333 181.333 101 282 101c104 0 198.333 -33.667 283 -101l123 123l61 -61l-123 -123c67.333 -77.333 101 -171.666 101 -282.999c0 -52.667 -9 -104.167 -27 -154.5s-42.667 -92.833 -74 -127.5l123 -123l-61 -62l-125 125
c-73.333 -68 -167 -102 -281 -102c-103.333 0 -197.333 33.333 -282 100l-123 -123l-62 62l123 123c-66.667 80.667 -100 174.667 -100 282c0 104.667 33.333 199 100 283l-123 123zM694 1010c-98 0 -181.5 -34.5 -250.5 -103.5s-103.5 -152.833 -103.5 -251.5
c0 -98 34.5 -181.5 103.5 -250.5s152.5 -103.5 250.5 -103.5c98.667 0 182.5 34.5 251.5 103.5s103.5 152.5 103.5 250.5c0 98.667 -34.5 182.5 -103.5 251.5s-152.833 103.5 -251.5 103.5z" />
    <glyph glyph-name="yen" unicode="&#xa5;" horiz-adv-x="1153" 
d="M1104 590l-452.998 -0.000976562v-209h453v-57h-453v-103c0 -71.333 9.16699 -120.166 27.5 -146.499s52.166 -39.5 101.499 -39.5v-35h-428v35c57.333 0 95.666 14 114.999 42s29 76 29 144v103h-453v57h453v209h-453v57h449l-213 332
c-42 65.333 -75.833 107.833 -101.5 127.5s-61.5 30.5 -107.5 32.5v34h458v-34c-80.667 0 -121 -17.667 -121 -53c0 -16.667 8.33301 -38 25 -64l195 -305l157 246c26 42.667 39 79.667 39 111c0 43.333 -25 65 -75 65v34h321v-34c-43.333 -2.66699 -77 -12.5 -101 -29.5
s-52.333 -51.5 -85 -103.5l-228 -359h449v-57z" />
    <glyph glyph-name="brokenbar" unicode="&#xa6;" horiz-adv-x="1016" 
d="M463 -483v719h90v-719h-90zM463 498v721h90v-721h-90z" />
    <glyph glyph-name="section" unicode="&#xa7;" horiz-adv-x="854" 
d="M154 922c0 74 25.9971 134.331 77.9971 180.998s119.333 70 202 70c72 0 133 -18.667 183 -56s75 -82.666 75 -135.999c0 -24 -6.83301 -44 -20.5 -60s-30.5 -24 -50.5 -24c-19.333 0 -35.5 6.66699 -48.5 20s-19.5 30 -19.5 50c0 10 3.33301 25 10 45
c6.66699 20.667 10 36.334 10 47.001c0 21.333 -13.667 39 -41 53s-62 21 -104 21c-55.333 0 -100.833 -13.667 -136.5 -41s-53.5 -62.333 -53.5 -105c0 -38 14.5 -76.833 43.5 -116.5s92.167 -97.834 189.5 -174.501c121.333 -96 196.333 -167 225 -213s43 -98.333 43 -157
c0 -52.667 -11.667 -101.167 -35 -145.5s-62.666 -92.833 -117.999 -145.5c43.333 -48 73.5 -89 90.5 -123s25.5 -70.333 25.5 -109c0 -76.667 -26.833 -139.167 -80.5 -187.5s-123.5 -72.5 -209.5 -72.5c-66.667 0 -125 19.167 -175 57.5s-75 82.833 -75 133.5
c0 25.333 6.83301 46 20.5 62s31.5 24 53.5 24c18 0 33 -6.66699 45 -20s18 -30 18 -50c0 -13.333 -4.66699 -31.666 -14 -54.999c-6 -16 -9 -27 -9 -33c0 -22.667 13.167 -41.334 39.5 -56.001s59.833 -22 100.5 -22c60 0 108 13.833 144 41.5s54 64.5 54 110.5
c0 36 -14.667 73.833 -44 113.5s-91.666 97.167 -186.999 172.5c-97.333 77.333 -166.666 142.5 -207.999 195.5s-62 112.167 -62 177.5c0 55.333 12.333 105.833 37 151.5s64.667 92.834 120 141.501c-77.333 72 -116 150 -116 234zM298.997 654.998
c-70.667 -56.667 -105.999 -119.333 -105.999 -188c0 -38 13.167 -75.5 39.5 -112.5s88.833 -96.167 187.5 -177.5c60 -48 106.333 -86.667 139 -116c39.333 39.333 66.666 72.833 81.999 100.5s23 56.5 23 86.5c0 44.667 -19.833 89.667 -59.5 135s-141.5 136 -305.5 272z
" />
    <glyph glyph-name="dieresis" unicode="&#xa8;" horiz-adv-x="682" 
d="M500 1163c23.333 0 43.5 -8.5 60.5 -25.5s25.5 -37.167 25.5 -60.5s-8.5 -43.5 -25.5 -60.5s-37.167 -25.5 -60.5 -25.5s-43.5 8.5 -60.5 25.5s-25.5 37.167 -25.5 60.5s8.5 43.5 25.5 60.5s37.167 25.5 60.5 25.5zM184 1163c23.333 0 43.5 -8.5 60.5 -25.5
s25.5 -37.167 25.5 -60.5s-8.5 -43.5 -25.5 -60.5s-37.167 -25.5 -60.5 -25.5s-43.5 8.5 -60.5 25.5s-25.5 37.167 -25.5 60.5s8.5 43.5 25.5 60.5s37.167 25.5 60.5 25.5z" />
    <glyph glyph-name="copyright" unicode="&#xa9;" horiz-adv-x="1556" 
d="M1063 1137l31.0029 0.000976562l18 -297h-31c-19.333 79.333 -53.5 140 -102.5 182s-109.5 63 -181.5 63c-90 0 -163 -37.333 -219 -112s-84 -172.334 -84 -293.001c0 -121.333 28.667 -216.833 86 -286.5s135.666 -104.5 234.999 -104.5
c59.333 0 112.166 13.5 158.499 40.5s92.5 71.5 138.5 133.5l21 -14c-84.667 -146.667 -201 -220 -349 -220c-122.667 0 -224.334 42 -305.001 126s-121 189.667 -121 317c0 128 41.5 236 124.5 324s184.833 132 305.5 132c50.667 0 105 -11 163 -33
c32 -12 55.667 -18 71 -18c23.333 0 37 20 41 60zM776.003 1319c-180 0 -333.833 -63.833 -461.5 -191.5s-191.5 -281.5 -191.5 -461.5c0 -180.667 63.833 -335.167 191.5 -463.5s281.5 -192.5 461.5 -192.5c180.667 0 335.167 64.167 463.5 192.5
s192.5 282.833 192.5 463.5c0 180 -64.167 333.833 -192.5 461.5s-282.833 191.5 -463.5 191.5zM776.003 1372c127.333 0 245.666 -31.5 354.999 -94.5s195.666 -149 258.999 -258s95 -226.833 95 -353.5c0 -127.333 -31.667 -245.666 -95 -354.999
s-149.666 -195.666 -258.999 -258.999s-227.666 -95 -354.999 -95c-126.667 0 -244.5 31.667 -353.5 95s-195 149.666 -258 258.999s-94.5 227.666 -94.5 354.999s31.5 245.333 94.5 354s148.833 194.5 257.5 257.5s226.667 94.5 354 94.5z" />
    <glyph glyph-name="ordfeminine" unicode="&#xaa;" horiz-adv-x="492" 
d="M297 1016l-0.00292969 43.001c0 26.667 -9.16699 48.334 -27.5 65.001s-41.833 25 -70.5 25c-53.333 0 -93.666 -30 -120.999 -90h-35c11.333 44 33.333 78.833 66 104.5s71.334 38.5 116.001 38.5c50 0 91.5 -14.167 124.5 -42.5s49.5 -66.833 49.5 -115.5v-190
c0 -39.333 6.33301 -59 19 -59c12 0 20.667 13.667 26 41h35c0 -26.667 -9.33301 -48.5 -28 -65.5s-42.667 -25.5 -72 -25.5c-40.667 0 -68 16.667 -82 50c-37.333 -33.333 -77.666 -50 -120.999 -50c-38.667 0 -71.5 11.167 -98.5 33.5s-40.5 49.5 -40.5 81.5
c0 29.333 11 53.666 33 72.999s70 38.666 144 57.999c37.333 10 65 18.333 83 25zM296.997 836.001v147c-65.333 -18 -107.666 -35 -126.999 -51s-29 -38 -29 -66c0 -22 6.5 -40.5 19.5 -55.5s29.167 -22.5 48.5 -22.5c33.333 0 62.666 16 87.999 48z" />
    <glyph glyph-name="guillemotleft" unicode="&#xab;" horiz-adv-x="854" 
d="M811 707l-264 -375l264 -375h-41l-387 375l387 375h41zM481 707l-264 -375l264 -375h-41l-387 375l387 375h41z" />
    <glyph glyph-name="logicalnot" unicode="&#xac;" horiz-adv-x="1366" 
d="M145 848v88h1076v-551h-88v463h-988z" />
    <glyph glyph-name="sfthyphen" unicode="&#xad;" horiz-adv-x="641" 
d="M119 399h401v-77h-401v77z" />
    <glyph glyph-name="registered" unicode="&#xae;" horiz-adv-x="1556" 
d="M653 649l-37.001 -10v-219c0 -60.667 8.33301 -99.334 25 -116.001s52.334 -25 107.001 -25l-7 -35h-368l8 35c53.333 0 86.5 7.83301 99.5 23.5s19.5 54.834 19.5 117.501v526c0 51.333 -7.5 86 -22.5 104s-43.833 27 -86.5 27h-16l6 31h336
c96 0 170.5 -19.833 223.5 -59.5s79.5 -93.5 79.5 -161.5c0 -59.333 -19.833 -107.833 -59.5 -145.5s-94.167 -60.167 -163.5 -67.5l192 -264c40 -54 72.167 -88.667 96.5 -104s57.833 -24.333 100.5 -27l-6 -35h-197l-295 395zM615.999 1049l-0.000976562 -359h43
c73.333 0 130.333 18.167 171 54.5s61 87.166 61 152.499c0 52.667 -16.667 93.834 -50 123.501s-79.666 44.5 -138.999 44.5c-28 0 -56.667 -5.33301 -86 -16zM775.998 1319c-180 0 -333.833 -63.833 -461.5 -191.5s-191.5 -281.5 -191.5 -461.5
c0 -180.667 63.833 -335.167 191.5 -463.5s281.5 -192.5 461.5 -192.5c180.667 0 335.167 64.167 463.5 192.5s192.5 282.833 192.5 463.5c0 180 -64.167 333.833 -192.5 461.5s-282.833 191.5 -463.5 191.5zM775.998 1372c127.333 0 245.666 -31.5 354.999 -94.5
s195.666 -149 258.999 -258s95 -226.833 95 -353.5c0 -127.333 -31.667 -245.666 -95 -354.999s-149.666 -195.666 -258.999 -258.999s-227.666 -95 -354.999 -95c-126.667 0 -244.5 31.667 -353.5 95s-195 149.666 -258 258.999s-94.5 227.666 -94.5 354.999
s31.5 245.333 94.5 354s148.833 194.5 257.5 257.5s226.667 94.5 354 94.5z" />
    <glyph glyph-name="overscore" unicode="&#xaf;" horiz-adv-x="1024" 
d="M-15 1275v102h1060v-102h-1060z" />
    <glyph glyph-name="degree" unicode="&#xb0;" horiz-adv-x="817" 
d="M408 1386c85.333 0 157.833 -29.833 217.5 -89.5s89.5 -132.167 89.5 -217.5s-30 -157.833 -90 -217.5s-132.333 -89.5 -217 -89.5c-85.333 0 -158 30 -218 90s-90 132.333 -90 217s30 157 90 217s132.667 90 218 90zM408 1305c-62.667 0 -116 -21.999 -160 -65.999
s-66 -97.333 -66 -160s22 -115.834 66 -159.501s97.333 -65.5 160 -65.5c62 0 115 22 159 66s66 97 66 159c0 62.667 -22 116 -66 160s-97 66 -159 66z" />
    <glyph glyph-name="plusminus" unicode="&#xb1;" horiz-adv-x="1366" 
d="M145 770v88h494v494h88v-494h494v-88h-494v-494h-88v494h-494zM145 -37v88h1076v-88h-1076z" />
    <glyph glyph-name="twosuperior" unicode="&#xb2;" horiz-adv-x="618" 
d="M90 553l0.000976562 53.001c198 165.333 297 293 297 383c0 37.333 -10.333 66.833 -31 88.5s-49.334 32.5 -86.001 32.5c-69.333 0 -108 -37 -116 -111h-43c2 57.333 21.833 105.5 59.5 144.5s83.167 58.5 136.5 58.5c52.667 0 97 -18 133 -54s54 -80 54 -132
c0 -56.667 -21.833 -112.834 -65.5 -168.501s-122.167 -128.5 -235.5 -218.5v-4h317v-72h-420z" />
    <glyph glyph-name="threesuperior" unicode="&#xb3;" horiz-adv-x="618" 
d="M240 862l-76.001 -0.00195312v45c143.333 12.667 215 59.334 215 140.001c0 24.667 -10.167 46.167 -30.5 64.5s-45.166 27.5 -74.499 27.5c-24 0 -44.167 -5 -60.5 -15s-34.833 -29 -55.5 -57l-35 14c29.333 80.667 89.333 121 180 121
c51.333 0 94.166 -14.5 128.499 -43.5s51.5 -65.5 51.5 -109.5c0 -59.333 -32 -105.333 -96 -138v-4c84.667 -34 127 -88.667 127 -164c0 -58.667 -21.333 -106.667 -64 -144s-97.667 -56 -165 -56c-40.667 0 -74.667 5.66699 -102 17s-59.666 33 -96.999 65l31 26
c51.333 -34 99 -51 143 -51c40.667 0 74.667 11.167 102 33.5s41 49.5 41 81.5c0 44.667 -14.167 80.334 -42.5 107.001s-68.5 40 -120.5 40z" />
    <glyph glyph-name="acute" unicode="&#xb4;" horiz-adv-x="682" 
d="M254 877l133 409h113l-207 -409h-39z" />
    <glyph glyph-name="mu" unicode="&#xb5;" horiz-adv-x="1044" 
d="M207 170v575h139v-518c0 -50 14.833 -89.833 44.5 -119.5s69.5 -44.5 119.5 -44.5c69.333 0 133.333 39.667 192 119v563h140v-608c0 -40 8.5 -67 25.5 -81s50.167 -21 99.5 -21v-35l-265 -14v133h-4c-71.333 -94.667 -156.666 -142 -255.999 -142
c-76.667 0 -138 28 -184 84l-1 -55c0 -79.333 10.667 -147.333 32 -204c12 -30.667 18 -57.667 18 -81c0 -22.667 -7.66699 -41.5 -23 -56.5s-34.333 -22.5 -57 -22.5s-42.334 7.5 -59.001 22.5s-25 33.167 -25 54.5c0 20.667 5.66699 46.667 17 78
c31.333 86.667 47 211 47 373z" />
    <glyph glyph-name="paragraph" unicode="&#xb6;" horiz-adv-x="928" 
d="M719 -444v1742h-182v-1742h-60v1071h-19c-146 0 -257.167 29.833 -333.5 89.5s-114.5 145.834 -114.5 258.501s38.333 204 115 274s181.667 105 315 105h480l-9 -35c-56.667 -5.33301 -93 -17.333 -109 -36s-24 -58 -24 -118v-1609h-59z" />
    <glyph glyph-name="periodcentered" unicode="&#xb7;" horiz-adv-x="598" 
d="M299 709c26.667 0 49.333 -9.5 68 -28.5s28 -41.833 28 -68.5s-9.5 -49.667 -28.5 -69s-41.5 -29 -67.5 -29c-26.667 0 -49.667 9.66699 -69 29s-29 42.333 -29 69s9.66699 49.5 29 68.5s42.333 28.5 69 28.5z" />
    <glyph glyph-name="periodcentered" unicode="&#x2219;" horiz-adv-x="598" 
d="M299 709c26.667 0 49.333 -9.5 68 -28.5s28 -41.833 28 -68.5s-9.5 -49.667 -28.5 -69s-41.5 -29 -67.5 -29c-26.667 0 -49.667 9.66699 -69 29s-29 42.333 -29 69s9.66699 49.5 29 68.5s42.333 28.5 69 28.5z" />
    <glyph glyph-name="cedilla" unicode="&#xb8;" horiz-adv-x="682" 
d="M369 16l33.999 0.000976562l-34 -127c42 -8 75.667 -25.5 101 -52.5s38 -59.167 38 -96.5c0 -52.667 -23.333 -94.334 -70 -125.001s-111 -46 -193 -46c-9.33301 0 -18.666 0.333008 -27.999 1v39c124 2 186 40.333 186 115c0 41.333 -32.667 70 -98 86z" />
    <glyph glyph-name="onesuperior" unicode="&#xb9;" horiz-adv-x="618" 
d="M430 598v-44.999h-237v45c32 0 51.5 2.16699 58.5 6.5s10.5 17.833 10.5 40.5v397c0 20.667 -4 31 -12 31c-2.66699 0 -9 -1.66699 -19 -5c-25.333 -8 -49 -13 -71 -15v39c90.667 38.667 148 74.667 172 108h26v-551c0 -22.667 3.5 -36.834 10.5 -42.501
s27.5 -8.5 61.5 -8.5z" />
    <glyph glyph-name="ordmasculine" unicode="&#xba;" horiz-adv-x="598" 
d="M37 973c0 68.667 24.166 124 72.499 166s111.5 63 189.5 63c78.667 0 142.334 -21.167 191.001 -63.5s73 -97.5 73 -165.5c0 -67.333 -24.5 -122.166 -73.5 -164.499s-112.5 -63.5 -190.5 -63.5s-141.167 21.167 -189.5 63.5s-72.5 97.166 -72.5 164.499zM146.999 973
c0 -62.667 13.333 -111.5 40 -146.5s64 -52.5 112 -52.5s85.667 17.667 113 53s41 84 41 146c0 62.667 -13.5 111.667 -40.5 147s-64.833 53 -113.5 53c-48 0 -85.333 -17.5 -112 -52.5s-40 -84.167 -40 -147.5z" />
    <glyph glyph-name="guillemotright" unicode="&#xbb;" horiz-adv-x="854" 
d="M375 -43l262 375l-262 375h41l385 -375l-385 -375h-41zM43 -43l262 375l-262 375h41l385 -375l-385 -375h-41z" />
    <glyph glyph-name="onequarter" unicode="&#xbc;" horiz-adv-x="1536" 
d="M409 598v-44.999h-237v45c32 0 51.5 2.16699 58.5 6.5s10.5 17.833 10.5 40.5v397c0 20.667 -4 31 -12 31c-2.66699 0 -9 -1.66699 -19 -5c-25.333 -8 -49 -13 -71 -15v39c90.667 38.667 148 74.667 172 108h26v-551c0 -22.667 3.5 -36.834 10.5 -42.501
s27.5 -8.5 61.5 -8.5zM1134 1202h69l-860 -1202h-61zM1212 651.001h35v-391h170v-63h-170v-197h-98v197h-285v45zM952 260.001h197v232z" />
    <glyph glyph-name="onehalf" unicode="&#xbd;" horiz-adv-x="1536" 
d="M409 606v-44.999h-237v45c32 0 51.5 2.16699 58.5 6.5s10.5 17.833 10.5 40.5v397c0 20.667 -4 31 -12 31c-2.66699 0 -9 -1.66699 -19 -5c-25.333 -8 -49 -13 -71 -15v39c90.667 38.667 148 74.667 172 108h26v-551c0 -22.667 3.5 -36.834 10.5 -42.501
s27.5 -8.5 61.5 -8.5zM1140 1202h69l-860 -1202h-61zM985 -0.999023l0.000976562 53.001c198 165.333 297 293 297 383c0 37.333 -10.333 66.833 -31 88.5s-49.334 32.5 -86.001 32.5c-69.333 0 -108 -37 -116 -111h-43c2 57.333 21.833 105.5 59.5 144.5
s83.167 58.5 136.5 58.5c52.667 0 97 -18 133 -54s54 -80 54 -132c0 -56.667 -21.833 -112.834 -65.5 -168.501s-122.167 -128.5 -235.5 -218.5v-4h317v-72h-420z" />
    <glyph glyph-name="threequarters" unicode="&#xbe;" horiz-adv-x="1536" 
d="M293 862l-76.001 -0.00195312v45c143.333 12.667 215 59.334 215 140.001c0 24.667 -10.167 46.167 -30.5 64.5s-45.166 27.5 -74.499 27.5c-24 0 -44.167 -5 -60.5 -15s-34.833 -29 -55.5 -57l-35 14c29.333 80.667 89.333 121 180 121
c51.333 0 94.166 -14.5 128.499 -43.5s51.5 -65.5 51.5 -109.5c0 -59.333 -32 -105.333 -96 -138v-4c84.667 -34 127 -88.667 127 -164c0 -58.667 -21.333 -106.667 -64 -144s-97.667 -56 -165 -56c-40.667 0 -74.667 5.66699 -102 17s-59.666 33 -96.999 65l31 26
c51.333 -34 99 -51 143 -51c40.667 0 74.667 11.167 102 33.5s41 49.5 41 81.5c0 44.667 -14.167 80.334 -42.5 107.001s-68.5 40 -120.5 40zM1212 1202h69l-860 -1202h-61zM1290 650.998h35v-391h170v-63h-170v-197h-98v197h-285v45zM1030 259.998h197v232z" />
    <glyph glyph-name="questiondown" unicode="&#xbf;" horiz-adv-x="641" 
d="M354 354l0.00195312 64.0029h39v-228c0 -39.333 -9.5 -75.333 -28.5 -108s-58.5 -73.334 -118.5 -122.001c-53.333 -42.667 -88.166 -77.5 -104.499 -104.5s-24.5 -55.833 -24.5 -86.5c0 -48 19.667 -86.667 59 -116s91.333 -44 156 -44c40.667 0 74.5 5.5 101.5 16.5
s58.5 31.5 94.5 61.5v-47c-54.667 -80.667 -124.334 -121 -209.001 -121c-72.667 0 -133.834 31 -183.501 93s-74.5 138 -74.5 228c0 57.333 10 106.5 30 147.5s61.667 85.5 125 133.5c57.333 43.333 94.666 81.666 111.999 114.999s26 72.666 26 117.999zM356.002 492.003
c-26.667 0 -49.335 9.33301 -68.002 28s-28 41.334 -28 68.001s9.5 49.667 28.5 69s41.5 29 67.5 29c26.667 0 49.834 -9.66699 69.501 -29s29.5 -42.333 29.5 -69s-9.66699 -49.334 -29 -68.001s-42.666 -28 -69.999 -28z" />
    <glyph glyph-name="Agrave" unicode="&#xc0;" horiz-adv-x="1217" 
d="M758 0v34.998c67.333 0 101 23.333 101 70c0 13.333 -3 28.333 -9 45l-107 325h-378l-80 -235c-20 -59.333 -30 -102.333 -30 -129c0 -49.333 31 -74.666 93 -75.999v-35h-303v35c43.333 6 77 20.333 101 43s48.333 69.667 73 141l324 967h121l340 -1010
c20 -59.333 40.833 -97.666 62.5 -114.999s56.5 -26 104.5 -26v-35h-413zM387 546.998h330l-166 497zM450 1651h113l133 -409h-39z" />
    <glyph glyph-name="Aacute" unicode="&#xc1;" horiz-adv-x="1217" 
d="M758 0v34.998c67.333 0 101 23.333 101 70c0 13.333 -3 28.333 -9 45l-107 325h-378l-80 -235c-20 -59.333 -30 -102.333 -30 -129c0 -49.333 31 -74.666 93 -75.999v-35h-303v35c43.333 6 77 20.333 101 43s48.333 69.667 73 141l324 967h121l340 -1010
c20 -59.333 40.833 -97.666 62.5 -114.999s56.5 -26 104.5 -26v-35h-413zM387 546.998h330l-166 497zM522 1242l133 409h113l-207 -409h-39z" />
    <glyph glyph-name="Acircumflex" unicode="&#xc2;" horiz-adv-x="1217" 
d="M758 0v34.998c67.333 0 101 23.333 101 70c0 13.333 -3 28.333 -9 45l-107 325h-378l-80 -235c-20 -59.333 -30 -102.333 -30 -129c0 -49.333 31 -74.666 93 -75.999v-35h-303v35c43.333 6 77 20.333 101 43s48.333 69.667 73 141l324 967h121l340 -1010
c20 -59.333 40.833 -97.666 62.5 -114.999s56.5 -26 104.5 -26v-35h-413zM387 546.998h330l-166 497zM585 1651h52l209 -401h-46l-196 266l-189 -266h-41z" />
    <glyph glyph-name="Atilde" unicode="&#xc3;" horiz-adv-x="1217" 
d="M758 0v34.998c67.333 0 101 23.333 101 70c0 13.333 -3 28.333 -9 45l-107 325h-378l-80 -235c-20 -59.333 -30 -102.333 -30 -129c0 -49.333 31 -74.666 93 -75.999v-35h-303v35c43.333 6 77 20.333 101 43s48.333 69.667 73 141l324 967h121l340 -1010
c20 -59.333 40.833 -97.666 62.5 -114.999s56.5 -26 104.5 -26v-35h-413zM387 546.998h330l-166 497zM348 1323h-39c0.666992 46 18 86.667 52 122s72.667 53 116 53c36 0 90.333 -16.333 163 -49c68.667 -30.667 120 -46 154 -46c20.667 0 38 8 52 24s22.667 37.333 26 64
h37c-0.666992 -48 -16.667 -89 -48 -123s-68.666 -51 -111.999 -51c-48.667 0 -108.334 17 -179.001 51c-69.333 33.333 -115.333 50 -138 50c-42.667 0 -70.667 -31.667 -84 -95z" />
    <glyph glyph-name="Adieresis" unicode="&#xc4;" horiz-adv-x="1217" 
d="M758 0v34.998c67.333 0 101 23.333 101 70c0 13.333 -3 28.333 -9 45l-107 325h-378l-80 -235c-20 -59.333 -30 -102.333 -30 -129c0 -49.333 31 -74.666 93 -75.999v-35h-303v35c43.333 6 77 20.333 101 43s48.333 69.667 73 141l324 967h121l340 -1010
c20 -59.333 40.833 -97.666 62.5 -114.999s56.5 -26 104.5 -26v-35h-413zM387 546.998h330l-166 497zM768 1528c23.333 0 43.5 -8.5 60.5 -25.5s25.5 -37.167 25.5 -60.5s-8.5 -43.5 -25.5 -60.5s-37.167 -25.5 -60.5 -25.5s-43.5 8.5 -60.5 25.5s-25.5 37.167 -25.5 60.5
s8.5 43.5 25.5 60.5s37.167 25.5 60.5 25.5zM452 1528c23.333 0 43.5 -8.5 60.5 -25.5s25.5 -37.167 25.5 -60.5s-8.5 -43.5 -25.5 -60.5s-37.167 -25.5 -60.5 -25.5s-43.5 8.5 -60.5 25.5s-25.5 37.167 -25.5 60.5s8.5 43.5 25.5 60.5s37.167 25.5 60.5 25.5z" />
    <glyph glyph-name="Aring" unicode="&#xc5;" horiz-adv-x="1217" 
d="M758 0v34.998c67.333 0 101 23.333 101 70c0 13.333 -3 28.333 -9 45l-107 325h-378l-80 -235c-20 -59.333 -30 -102.333 -30 -129c0 -49.333 31 -74.666 93 -75.999v-35h-303v35c43.333 6 77 20.333 101 43s48.333 69.667 73 141l324 967h121l340 -1010
c20 -59.333 40.833 -97.666 62.5 -114.999s56.5 -26 104.5 -26v-35h-413zM387 546.998h330l-166 497zM610 1551c-36 0 -66.833 -12.833 -92.5 -38.5s-38.5 -56.5 -38.5 -92.5s12.833 -66.833 38.5 -92.5s56.5 -38.5 92.5 -38.5s66.833 12.833 92.5 38.5s38.5 56.5 38.5 92.5
s-12.833 66.833 -38.5 92.5s-56.5 38.5 -92.5 38.5zM610 1600c50 0 92.5 -17.5 127.5 -52.5s52.5 -77.5 52.5 -127.5c0 -50.667 -17.5 -93.5 -52.5 -128.5s-77.5 -52.5 -127.5 -52.5s-92.5 17.5 -127.5 52.5s-52.5 77.833 -52.5 128.5c0 50 17.5 92.5 52.5 127.5
s77.5 52.5 127.5 52.5z" />
    <glyph glyph-name="AE" unicode="&#xc6;" horiz-adv-x="1579" 
d="M1372 725l34.999 0.000976562v-287h-35c-8 44 -21.667 74.833 -41 92.5s-49.333 26.5 -90 26.5h-287v-387c0 -42.667 8.33301 -72.167 25 -88.5s46.667 -24.5 90 -24.5h113c110 0 181.167 9 213.5 27s60.833 61.667 85.5 131h35l-52 -215h-796v35
c52 0 86.833 13.667 104.5 41s26.5 76.333 26.5 147v334h-283l-162 -297c-31.333 -57.333 -47 -102.333 -47 -135c0 -47.333 33 -77.333 99 -90v-35h-377v35c59.333 2.66699 104.166 17.667 134.499 45s73.5 92.666 129.5 195.999l489 897h682v-200h-24
c-12 50 -31.167 86.333 -57.5 109s-63.166 34 -110.499 34h-318v-502h265c54 0 90.833 7 110.5 21s33.834 44 42.501 90zM546.999 614.001h252v467h-4z" />
    <glyph glyph-name="Ccedilla" unicode="&#xc7;" horiz-adv-x="1260" 
d="M1155 1190l0.000976562 -350.001h-35c-28 108.667 -72.833 188.667 -134.5 240s-143.834 77 -246.501 77c-133.333 0 -239 -48 -317 -144s-117 -224 -117 -384c0 -175.333 41.167 -316.5 123.5 -423.5s190.166 -160.5 323.499 -160.5c184.667 0 321 86 409 258l31 -29
c-39.333 -93.333 -102.833 -167.166 -190.5 -221.499s-187.5 -81.5 -299.5 -81.5c-106 0 -204.167 25 -294.5 75s-160 118.833 -209 206.5s-73.5 188.5 -73.5 302.5c0 186.667 57.333 341.167 172 463.5s259.334 183.5 434.001 183.5c58.667 0 133 -10.333 223 -31
c50.667 -12 85.667 -18 105 -18c30 0 51 12.333 63 37h33zM645.001 15.999l33.999 0.000976562l-34 -127c42 -8 75.667 -25.5 101 -52.5s38 -59.167 38 -96.5c0 -52.667 -23.333 -94.334 -70 -125.001s-111 -46 -193 -46c-9.33301 0 -18.666 0.333008 -27.999 1v39
c124 2 186 40.333 186 115c0 41.333 -32.667 70 -98 86z" />
    <glyph glyph-name="Egrave" unicode="&#xc8;" horiz-adv-x="1044" 
d="M813 729l35.001 -0.000976562v-285h-35c-12.667 50 -28 81.333 -46 94s-57.333 19 -118 19h-291v-420c0 -29.333 6.5 -50 19.5 -62s35.167 -18 66.5 -18h205c73.333 0 124 4 152 12s51.667 22.833 71 44.5s40 56.834 62 105.501h35l-54 -219h-845v35
c52.667 0 88 13.5 106 40.5s27 74.833 27 143.5v733c0 71.333 -9.33301 120.333 -28 147s-53.667 40 -105 40v34h845v-196h-22c-12 56 -29.167 93.167 -51.5 111.5s-70.833 27.5 -145.5 27.5h-338v-502h328c44.667 0 75.167 8 91.5 24s28.166 46.333 35.499 91z
M364.001 1651h113l133 -409h-39z" />
    <glyph glyph-name="Eacute" unicode="&#xc9;" horiz-adv-x="1044" 
d="M813 729l35.001 -0.000976562v-285h-35c-12.667 50 -28 81.333 -46 94s-57.333 19 -118 19h-291v-420c0 -29.333 6.5 -50 19.5 -62s35.167 -18 66.5 -18h205c73.333 0 124 4 152 12s51.667 22.833 71 44.5s40 56.834 62 105.501h35l-54 -219h-845v35
c52.667 0 88 13.5 106 40.5s27 74.833 27 143.5v733c0 71.333 -9.33301 120.333 -28 147s-53.667 40 -105 40v34h845v-196h-22c-12 56 -29.167 93.167 -51.5 111.5s-70.833 27.5 -145.5 27.5h-338v-502h328c44.667 0 75.167 8 91.5 24s28.166 46.333 35.499 91z
M436.001 1242l133 409h113l-207 -409h-39z" />
    <glyph glyph-name="Ecircumflex" unicode="&#xca;" horiz-adv-x="1044" 
d="M813 729l35.001 -0.000976562v-285h-35c-12.667 50 -28 81.333 -46 94s-57.333 19 -118 19h-291v-420c0 -29.333 6.5 -50 19.5 -62s35.167 -18 66.5 -18h205c73.333 0 124 4 152 12s51.667 22.833 71 44.5s40 56.834 62 105.501h35l-54 -219h-845v35
c52.667 0 88 13.5 106 40.5s27 74.833 27 143.5v733c0 71.333 -9.33301 120.333 -28 147s-53.667 40 -105 40v34h845v-196h-22c-12 56 -29.167 93.167 -51.5 111.5s-70.833 27.5 -145.5 27.5h-338v-502h328c44.667 0 75.167 8 91.5 24s28.166 46.333 35.499 91z
M499.001 1651h52l209 -401h-46l-196 266l-189 -266h-41z" />
    <glyph glyph-name="Edieresis" unicode="&#xcb;" horiz-adv-x="1044" 
d="M813 729l35.001 -0.000976562v-285h-35c-12.667 50 -28 81.333 -46 94s-57.333 19 -118 19h-291v-420c0 -29.333 6.5 -50 19.5 -62s35.167 -18 66.5 -18h205c73.333 0 124 4 152 12s51.667 22.833 71 44.5s40 56.834 62 105.501h35l-54 -219h-845v35
c52.667 0 88 13.5 106 40.5s27 74.833 27 143.5v733c0 71.333 -9.33301 120.333 -28 147s-53.667 40 -105 40v34h845v-196h-22c-12 56 -29.167 93.167 -51.5 111.5s-70.833 27.5 -145.5 27.5h-338v-502h328c44.667 0 75.167 8 91.5 24s28.166 46.333 35.499 91z
M682.001 1528c23.333 0 43.5 -8.5 60.5 -25.5s25.5 -37.167 25.5 -60.5s-8.5 -43.5 -25.5 -60.5s-37.167 -25.5 -60.5 -25.5s-43.5 8.5 -60.5 25.5s-25.5 37.167 -25.5 60.5s8.5 43.5 25.5 60.5s37.167 25.5 60.5 25.5zM366.001 1528c23.333 0 43.5 -8.5 60.5 -25.5
s25.5 -37.167 25.5 -60.5s-8.5 -43.5 -25.5 -60.5s-37.167 -25.5 -60.5 -25.5s-43.5 8.5 -60.5 25.5s-25.5 37.167 -25.5 60.5s8.5 43.5 25.5 60.5s37.167 25.5 60.5 25.5z" />
    <glyph glyph-name="Igrave" unicode="&#xcc;" horiz-adv-x="532" 
d="M477 1173v-34.001c-50 0 -84.667 -13.667 -104 -41s-29 -76 -29 -146v-731c0 -70 9.66699 -118.5 29 -145.5s54 -40.5 104 -40.5v-35h-422v35c51.333 0 86.333 13.333 105 40s28 75.334 28 146.001v731c0 72 -9.16699 121.167 -27.5 147.5s-53.5 39.5 -105.5 39.5v34h422
zM109 1651h113l133 -409h-39z" />
    <glyph glyph-name="Iacute" unicode="&#xcd;" horiz-adv-x="532" 
d="M477 1173v-34.001c-50 0 -84.667 -13.667 -104 -41s-29 -76 -29 -146v-731c0 -70 9.66699 -118.5 29 -145.5s54 -40.5 104 -40.5v-35h-422v35c51.333 0 86.333 13.333 105 40s28 75.334 28 146.001v731c0 72 -9.16699 121.167 -27.5 147.5s-53.5 39.5 -105.5 39.5v34h422
zM180 1242l133 409h113l-207 -409h-39z" />
    <glyph glyph-name="Icircumflex" unicode="&#xce;" horiz-adv-x="532" 
d="M477 1173v-34.001c-50 0 -84.667 -13.667 -104 -41s-29 -76 -29 -146v-731c0 -70 9.66699 -118.5 29 -145.5s54 -40.5 104 -40.5v-35h-422v35c51.333 0 86.333 13.333 105 40s28 75.334 28 146.001v731c0 72 -9.16699 121.167 -27.5 147.5s-53.5 39.5 -105.5 39.5v34h422
zM266 1651h52l209 -401h-46l-196 266l-189 -266h-41z" />
    <glyph glyph-name="Idieresis" unicode="&#xcf;" horiz-adv-x="532" 
d="M477 1173v-34.001c-50 0 -84.667 -13.667 -104 -41s-29 -76 -29 -146v-731c0 -70 9.66699 -118.5 29 -145.5s54 -40.5 104 -40.5v-35h-422v35c51.333 0 86.333 13.333 105 40s28 75.334 28 146.001v731c0 72 -9.16699 121.167 -27.5 147.5s-53.5 39.5 -105.5 39.5v34h422
zM457 1528c23.333 0 43.5 -8.5 60.5 -25.5s25.5 -37.167 25.5 -60.5s-8.5 -43.5 -25.5 -60.5s-37.167 -25.5 -60.5 -25.5s-43.5 8.5 -60.5 25.5s-25.5 37.167 -25.5 60.5s8.5 43.5 25.5 60.5s37.167 25.5 60.5 25.5zM141 1528c23.333 0 43.5 -8.5 60.5 -25.5
s25.5 -37.167 25.5 -60.5s-8.5 -43.5 -25.5 -60.5s-37.167 -25.5 -60.5 -25.5s-43.5 8.5 -60.5 25.5s-25.5 37.167 -25.5 60.5s8.5 43.5 25.5 60.5s37.167 25.5 60.5 25.5z" />
    <glyph glyph-name="Eth" unicode="&#xd0;" horiz-adv-x="1366" 
d="M197 221v325.998h-134v57h134v348c0 70 -9.66699 118.667 -29 146s-54.333 41 -105 41v34h555c124.667 0 236.167 -26 334.5 -78s175.5 -125.167 231.5 -219.5s84 -197.166 84 -308.499c0 -172 -57.667 -309.5 -173 -412.5s-275 -154.5 -479 -154.5h-553v35
c50.667 0 85.667 13.833 105 41.5s29 75.834 29 144.501zM713 550.998h-361.001v-289c0 -88.667 10.333 -148.667 31 -180s60.334 -47 119.001 -47h121c144 0 257.333 47.167 340 141.5s124 223.833 124 388.5c0 172 -45.333 310.667 -136 416s-216 158 -376 158h-223v-531
h361v-57z" />
    <glyph glyph-name="Ntilde" unicode="&#xd1;" horiz-adv-x="1366" 
d="M934 1139v33.999h354v-34c-56.667 0 -96 -13.333 -118 -40s-33 -75 -33 -145v-954h-35l-832 1020v-823c0 -58 11.833 -99.5 35.5 -124.5s63.167 -37.5 118.5 -37.5v-35h-356v35c56.667 0 95 14.833 115 44.5s30 81.834 30 156.501v686c0 74 -13.5 127.167 -40.5 159.5
s-71.5 51.5 -133.5 57.5v34h301l737 -913v686c0 72 -10.167 122.167 -30.5 150.5s-57.833 42.5 -112.5 42.5zM422 1323h-39c0.666992 46 18 86.667 52 122s72.667 53 116 53c36 0 90.333 -16.333 163 -49c68.667 -30.667 120 -46 154 -46c20.667 0 38 8 52 24
s22.667 37.333 26 64h37c-0.666992 -48 -16.667 -89 -48 -123s-68.666 -51 -111.999 -51c-48.667 0 -108.334 17 -179.001 51c-69.333 33.333 -115.333 50 -138 50c-42.667 0 -70.667 -31.667 -84 -95z" />
    <glyph glyph-name="Ograve" unicode="&#xd2;" horiz-adv-x="1493" 
d="M121 592c0 174 60 319.167 180 435.5s269.667 174.5 449 174.5c174 0 321.167 -59 441.5 -177s180.5 -262.333 180.5 -433c0 -174 -60.667 -321 -182 -441s-269.666 -180 -444.999 -180c-174.667 0 -322.334 60 -443.001 180s-181 267 -181 441zM301 590
c0 -171.333 40.665 -309.834 121.998 -415.501s188 -158.5 320 -158.5c133.333 0 241.5 54 324.5 162s124.5 242.667 124.5 404c0 173.333 -40.667 312.5 -122 417.5s-186.666 157.5 -315.999 157.5c-137.333 0 -247.166 -51.667 -329.499 -155
s-123.5 -240.666 -123.5 -411.999zM586.998 1651h113l133 -409h-39z" />
    <glyph glyph-name="Oacute" unicode="&#xd3;" horiz-adv-x="1493" 
d="M121 592c0 174 60 319.167 180 435.5s269.667 174.5 449 174.5c174 0 321.167 -59 441.5 -177s180.5 -262.333 180.5 -433c0 -174 -60.667 -321 -182 -441s-269.666 -180 -444.999 -180c-174.667 0 -322.334 60 -443.001 180s-181 267 -181 441zM301 590
c0 -171.333 40.665 -309.834 121.998 -415.501s188 -158.5 320 -158.5c133.333 0 241.5 54 324.5 162s124.5 242.667 124.5 404c0 173.333 -40.667 312.5 -122 417.5s-186.666 157.5 -315.999 157.5c-137.333 0 -247.166 -51.667 -329.499 -155
s-123.5 -240.666 -123.5 -411.999zM658.998 1242l133 409h113l-207 -409h-39z" />
    <glyph glyph-name="Ocircumflex" unicode="&#xd4;" horiz-adv-x="1493" 
d="M121 592c0 174 60 319.167 180 435.5s269.667 174.5 449 174.5c174 0 321.167 -59 441.5 -177s180.5 -262.333 180.5 -433c0 -174 -60.667 -321 -182 -441s-269.666 -180 -444.999 -180c-174.667 0 -322.334 60 -443.001 180s-181 267 -181 441zM301 590
c0 -171.333 40.665 -309.834 121.998 -415.501s188 -158.5 320 -158.5c133.333 0 241.5 54 324.5 162s124.5 242.667 124.5 404c0 173.333 -40.667 312.5 -122 417.5s-186.666 157.5 -315.999 157.5c-137.333 0 -247.166 -51.667 -329.499 -155
s-123.5 -240.666 -123.5 -411.999zM721.998 1651h52l209 -401h-46l-196 266l-189 -266h-41z" />
    <glyph glyph-name="Otilde" unicode="&#xd5;" horiz-adv-x="1493" 
d="M121 592c0 174 60 319.167 180 435.5s269.667 174.5 449 174.5c174 0 321.167 -59 441.5 -177s180.5 -262.333 180.5 -433c0 -174 -60.667 -321 -182 -441s-269.666 -180 -444.999 -180c-174.667 0 -322.334 60 -443.001 180s-181 267 -181 441zM301 590
c0 -171.333 40.665 -309.834 121.998 -415.501s188 -158.5 320 -158.5c133.333 0 241.5 54 324.5 162s124.5 242.667 124.5 404c0 173.333 -40.667 312.5 -122 417.5s-186.666 157.5 -315.999 157.5c-137.333 0 -247.166 -51.667 -329.499 -155
s-123.5 -240.666 -123.5 -411.999zM485.998 1323h-39c0.666992 46 18 86.667 52 122s72.667 53 116 53c36 0 90.333 -16.333 163 -49c68.667 -30.667 120 -46 154 -46c20.667 0 38 8 52 24s22.667 37.333 26 64h37c-0.666992 -48 -16.667 -89 -48 -123
s-68.666 -51 -111.999 -51c-48.667 0 -108.334 17 -179.001 51c-69.333 33.333 -115.333 50 -138 50c-42.667 0 -70.667 -31.667 -84 -95z" />
    <glyph glyph-name="Odieresis" unicode="&#xd6;" horiz-adv-x="1493" 
d="M121 592c0 174 60 319.167 180 435.5s269.667 174.5 449 174.5c174 0 321.167 -59 441.5 -177s180.5 -262.333 180.5 -433c0 -174 -60.667 -321 -182 -441s-269.666 -180 -444.999 -180c-174.667 0 -322.334 60 -443.001 180s-181 267 -181 441zM301 590
c0 -171.333 40.665 -309.834 121.998 -415.501s188 -158.5 320 -158.5c133.333 0 241.5 54 324.5 162s124.5 242.667 124.5 404c0 173.333 -40.667 312.5 -122 417.5s-186.666 157.5 -315.999 157.5c-137.333 0 -247.166 -51.667 -329.499 -155
s-123.5 -240.666 -123.5 -411.999zM904.998 1528c23.333 0 43.5 -8.5 60.5 -25.5s25.5 -37.167 25.5 -60.5s-8.5 -43.5 -25.5 -60.5s-37.167 -25.5 -60.5 -25.5s-43.5 8.5 -60.5 25.5s-25.5 37.167 -25.5 60.5s8.5 43.5 25.5 60.5s37.167 25.5 60.5 25.5zM588.998 1528
c23.333 0 43.5 -8.5 60.5 -25.5s25.5 -37.167 25.5 -60.5s-8.5 -43.5 -25.5 -60.5s-37.167 -25.5 -60.5 -25.5s-43.5 8.5 -60.5 25.5s-25.5 37.167 -25.5 60.5s8.5 43.5 25.5 60.5s37.167 25.5 60.5 25.5z" />
    <glyph glyph-name="multiply" unicode="&#xd7;" horiz-adv-x="1368" 
d="M201 1075l61 62l422 -422l422 422l61 -62l-422 -422l422 -422l-61 -61l-422 422l-422 -422l-61 61l422 422z" />
    <glyph glyph-name="Oslash" unicode="&#xd8;" horiz-adv-x="1493" 
d="M387 217l690 780c-34.667 50.667 -80.5 90 -137.5 118s-118.833 42 -185.5 42c-138 0 -248 -52.333 -330 -157s-123 -244.667 -123 -420c0 -138 28.667 -259 86 -363zM1284 1173l-115 -129.002c64.667 -57.333 114.667 -125.166 150 -203.499s53 -161.166 53 -248.499
c0 -174 -60.667 -321 -182 -441s-269.666 -180 -444.999 -180c-142.667 0 -277 47.333 -403 142l-164 -185l-24 25l163 184c-61.333 56 -109.333 124.167 -144 204.5s-52 163.833 -52 250.5c0 174 60 319.167 180 435.5s269.667 174.5 449 174.5
c71.333 0 141.666 -12 210.999 -36s129.333 -57 180 -99l119 135zM1100 964.998l-692 -778.998c76 -113.333 187.667 -170 335 -170c134 0 242.333 54.667 325 164s124 246.666 124 411.999c0 151.333 -30.667 275.666 -92 372.999z" />
    <glyph glyph-name="Ugrave" unicode="&#xd9;" horiz-adv-x="1366" 
d="M999 246l0.000976562 706.001c0 68.667 -9.16699 116.5 -27.5 143.5s-50.833 41.5 -97.5 43.5v34h414v-34c-50 0 -84.667 -13.667 -104 -41s-29 -76 -29 -146v-731c0 -68.667 9.5 -116.834 28.5 -144.501s53.833 -41.5 104.5 -41.5v-35h-289v164
c-110 -128.667 -240.333 -193 -391 -193c-124 0 -221.5 37 -292.5 111s-106.5 171.667 -106.5 293v577c0 70 -9.16699 118.667 -27.5 146s-53.5 41 -105.5 41v34h424v-34c-52.667 0 -88.334 -13.333 -107.001 -40s-28 -75 -28 -145v-594c0 -96 26.333 -171.5 79 -226.5
s126 -82.5 220 -82.5c139.333 0 251 65 335 195zM524.001 1651h113l133 -409h-39z" />
    <glyph glyph-name="Uacute" unicode="&#xda;" horiz-adv-x="1366" 
d="M999 246l0.000976562 706.001c0 68.667 -9.16699 116.5 -27.5 143.5s-50.833 41.5 -97.5 43.5v34h414v-34c-50 0 -84.667 -13.667 -104 -41s-29 -76 -29 -146v-731c0 -68.667 9.5 -116.834 28.5 -144.501s53.833 -41.5 104.5 -41.5v-35h-289v164
c-110 -128.667 -240.333 -193 -391 -193c-124 0 -221.5 37 -292.5 111s-106.5 171.667 -106.5 293v577c0 70 -9.16699 118.667 -27.5 146s-53.5 41 -105.5 41v34h424v-34c-52.667 0 -88.334 -13.333 -107.001 -40s-28 -75 -28 -145v-594c0 -96 26.333 -171.5 79 -226.5
s126 -82.5 220 -82.5c139.333 0 251 65 335 195zM596.001 1242l133 409h113l-207 -409h-39z" />
    <glyph glyph-name="Ucircumflex" unicode="&#xdb;" horiz-adv-x="1366" 
d="M999 246l0.000976562 706.001c0 68.667 -9.16699 116.5 -27.5 143.5s-50.833 41.5 -97.5 43.5v34h414v-34c-50 0 -84.667 -13.667 -104 -41s-29 -76 -29 -146v-731c0 -68.667 9.5 -116.834 28.5 -144.501s53.833 -41.5 104.5 -41.5v-35h-289v164
c-110 -128.667 -240.333 -193 -391 -193c-124 0 -221.5 37 -292.5 111s-106.5 171.667 -106.5 293v577c0 70 -9.16699 118.667 -27.5 146s-53.5 41 -105.5 41v34h424v-34c-52.667 0 -88.334 -13.333 -107.001 -40s-28 -75 -28 -145v-594c0 -96 26.333 -171.5 79 -226.5
s126 -82.5 220 -82.5c139.333 0 251 65 335 195zM659.001 1651h52l209 -401h-46l-196 266l-189 -266h-41z" />
    <glyph glyph-name="Udieresis" unicode="&#xdc;" horiz-adv-x="1366" 
d="M999 246l0.000976562 706.001c0 68.667 -9.16699 116.5 -27.5 143.5s-50.833 41.5 -97.5 43.5v34h414v-34c-50 0 -84.667 -13.667 -104 -41s-29 -76 -29 -146v-731c0 -68.667 9.5 -116.834 28.5 -144.501s53.833 -41.5 104.5 -41.5v-35h-289v164
c-110 -128.667 -240.333 -193 -391 -193c-124 0 -221.5 37 -292.5 111s-106.5 171.667 -106.5 293v577c0 70 -9.16699 118.667 -27.5 146s-53.5 41 -105.5 41v34h424v-34c-52.667 0 -88.334 -13.333 -107.001 -40s-28 -75 -28 -145v-594c0 -96 26.333 -171.5 79 -226.5
s126 -82.5 220 -82.5c139.333 0 251 65 335 195zM842.001 1528c23.333 0 43.5 -8.5 60.5 -25.5s25.5 -37.167 25.5 -60.5s-8.5 -43.5 -25.5 -60.5s-37.167 -25.5 -60.5 -25.5s-43.5 8.5 -60.5 25.5s-25.5 37.167 -25.5 60.5s8.5 43.5 25.5 60.5s37.167 25.5 60.5 25.5z
M526.001 1528c23.333 0 43.5 -8.5 60.5 -25.5s25.5 -37.167 25.5 -60.5s-8.5 -43.5 -25.5 -60.5s-37.167 -25.5 -60.5 -25.5s-43.5 8.5 -60.5 25.5s-25.5 37.167 -25.5 60.5s8.5 43.5 25.5 60.5s37.167 25.5 60.5 25.5z" />
    <glyph glyph-name="Yacute" unicode="&#xdd;" horiz-adv-x="1153" 
d="M915 1006l-263.999 -416.001v-369c0 -71.333 9.16699 -120.166 27.5 -146.499s52.166 -39.5 101.499 -39.5v-35h-428v35c58 0 96.5 14 115.5 42s28.5 76 28.5 144v369l-250 389c-41.333 64.667 -75 107 -101 127s-62 31 -108 33v34h459v-34
c-80.667 0 -121 -18.333 -121 -55c0 -16.667 8 -37.334 24 -62.001l232 -356l186 295c27.333 44 41 81.667 41 113c0 43.333 -26 65 -78 65v34h322v-34c-43.333 -2.66699 -76.833 -12.167 -100.5 -28.5s-52.5 -51.166 -86.5 -104.499zM489.001 1242l133 409h113l-207 -409
h-39z" />
    <glyph glyph-name="Thorn" unicode="&#xde;" horiz-adv-x="1024" 
d="M78 0l0.000976562 34.999c50.667 0 85.5 14 104.5 42s28.5 74.667 28.5 140v735c0 70.667 -9.5 119.5 -28.5 146.5s-53.833 40.5 -104.5 40.5v34h422v-34c-50.667 0 -85.5 -14.167 -104.5 -42.5s-28.5 -75.166 -28.5 -140.499v-51h139c140 0 250.833 -31.167 332.5 -93.5
s122.5 -142.5 122.5 -240.5c0 -97.333 -35.833 -172.166 -107.5 -224.499s-173.834 -78.5 -306.501 -78.5c-52 0 -112 4.33301 -180 13v-60c0 -70.667 9.5 -119.334 28.5 -146.001s53.833 -40 104.5 -40v-35h-422zM512.001 859.999h-144.998v-526
c39.333 -14 87.666 -21 144.999 -21c88 0 157.5 22.667 208.5 68s76.5 107.333 76.5 186c0 85.333 -25.333 155.5 -76 210.5s-120.334 82.5 -209.001 82.5z" />
    <glyph glyph-name="germandbls" unicode="&#xdf;" 
d="M676 979c0 177.333 -68.332 266.001 -204.999 266.001c-72.667 0 -123.667 -26.333 -153 -79s-44 -146.334 -44 -281.001v-768c0 -29.333 7 -49.5 21 -60.5s42.667 -18.167 86 -21.5v-35h-369v35c50.667 0 83.834 7.16699 99.501 21.5s23.5 48.166 23.5 101.499v692
c0 139.333 31.667 247.166 95 323.499s150.666 114.5 261.999 114.5c96.667 0 176.667 -31.667 240 -95s95 -134.666 95 -213.999c0 -140 -85.333 -236.333 -256 -289v-4c97.333 -15.333 171.833 -52 223.5 -110s77.5 -133.333 77.5 -226
c0 -108.667 -30 -195.167 -90 -259.5s-141 -96.5 -243 -96.5c-22.667 0 -47.334 2 -74.001 6l-23 145h37c22 -74.667 55 -112 99 -112c44.667 0 79.667 26.167 105 78.5s38 124.5 38 216.5c0 120.667 -21.667 207.834 -65 261.501s-114.666 80.5 -213.999 80.5v35
c87.333 8 148.166 32 182.499 72s51.5 107.333 51.5 202z" />
    <glyph glyph-name="agrave" unicode="&#xe0;" horiz-adv-x="748" 
d="M268 -23c-56.667 0 -105.334 18.833 -146.001 56.5s-61 83.167 -61 136.5c0 50.667 17.5 92.5 52.5 125.5s106.167 64.5 213.5 94.5c67.333 18.667 112.666 34.667 135.999 48v54c0 52.667 -14.667 95.167 -44 127.5s-68.666 48.5 -117.999 48.5
c-44.667 0 -84.334 -14 -119.001 -42s-59 -66 -73 -114l-37 10c14.667 67.333 46.5 121.333 95.5 162s106.5 61 172.5 61c78 0 141.167 -23.5 189.5 -70.5s72.5 -112.167 72.5 -195.5v-311c0 -44 2.83301 -73.833 8.5 -89.5s16.5 -23.5 32.5 -23.5
c10.667 0 19.334 4.5 26.001 13.5s14.334 27.833 23.001 56.5h35c-3.33301 -45.333 -17.5 -81.333 -42.5 -108s-57.833 -40 -98.5 -40c-59.333 0 -100.333 34.333 -123 103c-36 -39.333 -68 -66.333 -96 -81s-61 -22 -99 -22zM463 147v245.999
c-20.667 -8.66699 -50.667 -19.667 -90 -33c-72.667 -24.667 -119.167 -49.167 -139.5 -73.5s-30.5 -57.166 -30.5 -98.499c0 -36 10.833 -67.167 32.5 -93.5s47.5 -39.5 77.5 -39.5c27.333 0 56 8.83301 86 26.5s51.333 39.5 64 65.5zM198 1286h113l133 -409h-39z" />
    <glyph glyph-name="aacute" unicode="&#xe1;" horiz-adv-x="748" 
d="M268 -23c-56.667 0 -105.334 18.833 -146.001 56.5s-61 83.167 -61 136.5c0 50.667 17.5 92.5 52.5 125.5s106.167 64.5 213.5 94.5c67.333 18.667 112.666 34.667 135.999 48v54c0 52.667 -14.667 95.167 -44 127.5s-68.666 48.5 -117.999 48.5
c-44.667 0 -84.334 -14 -119.001 -42s-59 -66 -73 -114l-37 10c14.667 67.333 46.5 121.333 95.5 162s106.5 61 172.5 61c78 0 141.167 -23.5 189.5 -70.5s72.5 -112.167 72.5 -195.5v-311c0 -44 2.83301 -73.833 8.5 -89.5s16.5 -23.5 32.5 -23.5
c10.667 0 19.334 4.5 26.001 13.5s14.334 27.833 23.001 56.5h35c-3.33301 -45.333 -17.5 -81.333 -42.5 -108s-57.833 -40 -98.5 -40c-59.333 0 -100.333 34.333 -123 103c-36 -39.333 -68 -66.333 -96 -81s-61 -22 -99 -22zM463 147v245.999
c-20.667 -8.66699 -50.667 -19.667 -90 -33c-72.667 -24.667 -119.167 -49.167 -139.5 -73.5s-30.5 -57.166 -30.5 -98.499c0 -36 10.833 -67.167 32.5 -93.5s47.5 -39.5 77.5 -39.5c27.333 0 56 8.83301 86 26.5s51.333 39.5 64 65.5zM270 876.999l133 409h113l-207 -409
h-39z" />
    <glyph glyph-name="acircumflex" unicode="&#xe2;" horiz-adv-x="748" 
d="M268 -23c-56.667 0 -105.334 18.833 -146.001 56.5s-61 83.167 -61 136.5c0 50.667 17.5 92.5 52.5 125.5s106.167 64.5 213.5 94.5c67.333 18.667 112.666 34.667 135.999 48v54c0 52.667 -14.667 95.167 -44 127.5s-68.666 48.5 -117.999 48.5
c-44.667 0 -84.334 -14 -119.001 -42s-59 -66 -73 -114l-37 10c14.667 67.333 46.5 121.333 95.5 162s106.5 61 172.5 61c78 0 141.167 -23.5 189.5 -70.5s72.5 -112.167 72.5 -195.5v-311c0 -44 2.83301 -73.833 8.5 -89.5s16.5 -23.5 32.5 -23.5
c10.667 0 19.334 4.5 26.001 13.5s14.334 27.833 23.001 56.5h35c-3.33301 -45.333 -17.5 -81.333 -42.5 -108s-57.833 -40 -98.5 -40c-59.333 0 -100.333 34.333 -123 103c-36 -39.333 -68 -66.333 -96 -81s-61 -22 -99 -22zM463 147v245.999
c-20.667 -8.66699 -50.667 -19.667 -90 -33c-72.667 -24.667 -119.167 -49.167 -139.5 -73.5s-30.5 -57.166 -30.5 -98.499c0 -36 10.833 -67.167 32.5 -93.5s47.5 -39.5 77.5 -39.5c27.333 0 56 8.83301 86 26.5s51.333 39.5 64 65.5zM357 1286h52l209 -401h-46l-196 266
l-189 -266h-41z" />
    <glyph glyph-name="atilde" unicode="&#xe3;" horiz-adv-x="748" 
d="M268 -23c-56.667 0 -105.334 18.833 -146.001 56.5s-61 83.167 -61 136.5c0 50.667 17.5 92.5 52.5 125.5s106.167 64.5 213.5 94.5c67.333 18.667 112.666 34.667 135.999 48v54c0 52.667 -14.667 95.167 -44 127.5s-68.666 48.5 -117.999 48.5
c-44.667 0 -84.334 -14 -119.001 -42s-59 -66 -73 -114l-37 10c14.667 67.333 46.5 121.333 95.5 162s106.5 61 172.5 61c78 0 141.167 -23.5 189.5 -70.5s72.5 -112.167 72.5 -195.5v-311c0 -44 2.83301 -73.833 8.5 -89.5s16.5 -23.5 32.5 -23.5
c10.667 0 19.334 4.5 26.001 13.5s14.334 27.833 23.001 56.5h35c-3.33301 -45.333 -17.5 -81.333 -42.5 -108s-57.833 -40 -98.5 -40c-59.333 0 -100.333 34.333 -123 103c-36 -39.333 -68 -66.333 -96 -81s-61 -22 -99 -22zM463 147v245.999
c-20.667 -8.66699 -50.667 -19.667 -90 -33c-72.667 -24.667 -119.167 -49.167 -139.5 -73.5s-30.5 -57.166 -30.5 -98.499c0 -36 10.833 -67.167 32.5 -93.5s47.5 -39.5 77.5 -39.5c27.333 0 56 8.83301 86 26.5s51.333 39.5 64 65.5zM120 957.999h-39
c0.666992 46 18 86.667 52 122s72.667 53 116 53c36 0 90.333 -16.333 163 -49c68.667 -30.667 120 -46 154 -46c20.667 0 38 8 52 24s22.667 37.333 26 64h37c-0.666992 -48 -16.667 -89 -48 -123s-68.666 -51 -111.999 -51c-48.667 0 -108.334 17 -179.001 51
c-69.333 33.333 -115.333 50 -138 50c-42.667 0 -70.667 -31.667 -84 -95z" />
    <glyph glyph-name="adieresis" unicode="&#xe4;" horiz-adv-x="748" 
d="M268 -23c-56.667 0 -105.334 18.833 -146.001 56.5s-61 83.167 -61 136.5c0 50.667 17.5 92.5 52.5 125.5s106.167 64.5 213.5 94.5c67.333 18.667 112.666 34.667 135.999 48v54c0 52.667 -14.667 95.167 -44 127.5s-68.666 48.5 -117.999 48.5
c-44.667 0 -84.334 -14 -119.001 -42s-59 -66 -73 -114l-37 10c14.667 67.333 46.5 121.333 95.5 162s106.5 61 172.5 61c78 0 141.167 -23.5 189.5 -70.5s72.5 -112.167 72.5 -195.5v-311c0 -44 2.83301 -73.833 8.5 -89.5s16.5 -23.5 32.5 -23.5
c10.667 0 19.334 4.5 26.001 13.5s14.334 27.833 23.001 56.5h35c-3.33301 -45.333 -17.5 -81.333 -42.5 -108s-57.833 -40 -98.5 -40c-59.333 0 -100.333 34.333 -123 103c-36 -39.333 -68 -66.333 -96 -81s-61 -22 -99 -22zM463 147v245.999
c-20.667 -8.66699 -50.667 -19.667 -90 -33c-72.667 -24.667 -119.167 -49.167 -139.5 -73.5s-30.5 -57.166 -30.5 -98.499c0 -36 10.833 -67.167 32.5 -93.5s47.5 -39.5 77.5 -39.5c27.333 0 56 8.83301 86 26.5s51.333 39.5 64 65.5zM540 1163
c23.333 0 43.5 -8.5 60.5 -25.5s25.5 -37.167 25.5 -60.5s-8.5 -43.5 -25.5 -60.5s-37.167 -25.5 -60.5 -25.5s-43.5 8.5 -60.5 25.5s-25.5 37.167 -25.5 60.5s8.5 43.5 25.5 60.5s37.167 25.5 60.5 25.5zM224 1163c23.333 0 43.5 -8.5 60.5 -25.5s25.5 -37.167 25.5 -60.5
s-8.5 -43.5 -25.5 -60.5s-37.167 -25.5 -60.5 -25.5s-43.5 8.5 -60.5 25.5s-25.5 37.167 -25.5 60.5s8.5 43.5 25.5 60.5s37.167 25.5 60.5 25.5z" />
    <glyph glyph-name="aring" unicode="&#xe5;" horiz-adv-x="748" 
d="M268 -23c-56.667 0 -105.334 18.833 -146.001 56.5s-61 83.167 -61 136.5c0 50.667 17.5 92.5 52.5 125.5s106.167 64.5 213.5 94.5c67.333 18.667 112.666 34.667 135.999 48v54c0 52.667 -14.667 95.167 -44 127.5s-68.666 48.5 -117.999 48.5
c-44.667 0 -84.334 -14 -119.001 -42s-59 -66 -73 -114l-37 10c14.667 67.333 46.5 121.333 95.5 162s106.5 61 172.5 61c78 0 141.167 -23.5 189.5 -70.5s72.5 -112.167 72.5 -195.5v-311c0 -44 2.83301 -73.833 8.5 -89.5s16.5 -23.5 32.5 -23.5
c10.667 0 19.334 4.5 26.001 13.5s14.334 27.833 23.001 56.5h35c-3.33301 -45.333 -17.5 -81.333 -42.5 -108s-57.833 -40 -98.5 -40c-59.333 0 -100.333 34.333 -123 103c-36 -39.333 -68 -66.333 -96 -81s-61 -22 -99 -22zM463 147v245.999
c-20.667 -8.66699 -50.667 -19.667 -90 -33c-72.667 -24.667 -119.167 -49.167 -139.5 -73.5s-30.5 -57.166 -30.5 -98.499c0 -36 10.833 -67.167 32.5 -93.5s47.5 -39.5 77.5 -39.5c27.333 0 56 8.83301 86 26.5s51.333 39.5 64 65.5zM382 1186
c-36 0 -66.833 -12.833 -92.5 -38.5s-38.5 -56.5 -38.5 -92.5s12.833 -66.833 38.5 -92.5s56.5 -38.5 92.5 -38.5s66.833 12.833 92.5 38.5s38.5 56.5 38.5 92.5s-12.833 66.833 -38.5 92.5s-56.5 38.5 -92.5 38.5zM382 1235c50 0 92.5 -17.5 127.5 -52.5
s52.5 -77.5 52.5 -127.5c0 -50.667 -17.5 -93.5 -52.5 -128.5s-77.5 -52.5 -127.5 -52.5s-92.5 17.5 -127.5 52.5s-52.5 77.833 -52.5 128.5c0 50 17.5 92.5 52.5 127.5s77.5 52.5 127.5 52.5z" />
    <glyph glyph-name="ae" unicode="&#xe6;" horiz-adv-x="1260" 
d="M279 -23c-62 0 -112.668 18.666 -152.001 55.999s-59 85 -59 143c0 38.667 10.333 71.834 31 99.501s44.834 49 72.501 64s73.834 28.167 138.501 39.5c83.333 15.333 144 35.666 182 60.999v39c0 56 -15.833 101.167 -47.5 135.5s-73.5 51.5 -125.5 51.5
c-42.667 0 -83 -13.167 -121 -39.5s-65.667 -63.166 -83 -110.499h-35c12 68.667 44.833 124 98.5 166s118.5 63 194.5 63c94 0 169 -37.333 225 -112c44 41.333 85.167 70.333 123.5 87s82.5 25 132.5 25c89.333 0 163.5 -27.5 222.5 -82.5s88.5 -128.5 88.5 -220.5h-524
c-2.66699 -24 -4 -47 -4 -69c0 -105.333 26.667 -188 80 -248s118.666 -90 195.999 -90c52 0 98.667 12 140 36s83.666 63.667 126.999 119v-55c-32.667 -49.333 -75.667 -88 -129 -116s-111.333 -42 -174 -42c-143.333 0 -256.666 52.667 -339.999 158
c-74 -105.333 -160 -158 -258 -158zM491.999 208.999l-0.000976562 184.002c-11.333 -7.33301 -37.666 -17.333 -78.999 -30c-80 -24.667 -134 -50.334 -162 -77.001s-42 -59.334 -42 -98.001c0 -36 12.667 -67.167 38 -93.5s55 -39.5 89 -39.5c40 0 76 14.167 108 42.5
s48 65.5 48 111.5zM642.998 477.001h387c0 68.667 -18.833 124.167 -56.5 166.5s-84.167 63.5 -139.5 63.5c-56 0 -101.833 -21.5 -137.5 -64.5s-53.5 -98.167 -53.5 -165.5z" />
    <glyph glyph-name="ccedilla" unicode="&#xe7;" horiz-adv-x="788" 
d="M735 745l0.000976562 -256.001h-35c-15.333 66.667 -44.666 119.334 -87.999 158.001s-95 58 -155 58c-72 0 -130.667 -28 -176 -84s-68 -128.667 -68 -218c0 -98.667 26.833 -184 80.5 -256s117.5 -108 191.5 -108c49.333 0 98.166 13.333 146.499 40
s89.833 63.667 124.5 111v-53c-78.667 -106.667 -185.334 -160 -320.001 -160c-107.333 0 -194.833 34 -262.5 102s-101.5 156.333 -101.5 265c0 111.333 36.5 206 109.5 284s161.167 117 264.5 117c46 0 97.333 -9.33301 154 -28c24.667 -8 41.667 -12 51 -12
c20.667 0 37 13.333 49 40h35zM400.001 15.999l33.999 0.000976562l-34 -127c42 -8 75.667 -25.5 101 -52.5s38 -59.167 38 -96.5c0 -52.667 -23.333 -94.334 -70 -125.001s-111 -46 -193 -46c-9.33301 0 -18.666 0.333008 -27.999 1v39c124 2 186 40.333 186 115
c0 41.333 -32.667 70 -98 86z" />
    <glyph glyph-name="egrave" unicode="&#xe8;" horiz-adv-x="831" 
d="M764 186l-0.000976562 -52.999c-44 -56 -88.833 -96 -134.5 -120s-100.5 -36 -164.5 -36c-113.333 0 -206.833 35.5 -280.5 106.5s-110.5 161.167 -110.5 270.5c0 110 35.167 202.667 105.5 278s156.5 113 258.5 113c84 0 157.333 -28.333 220 -85
s94 -124.334 94 -203.001v-15h-533v-10c0 -80 12.167 -149.5 36.5 -208.5s59.833 -105.167 106.5 -138.5s95.334 -50 146.001 -50c47.333 0 87.833 9.83301 121.5 29.5s78.5 60.167 134.5 121.5zM218.999 477.001h395.001v14c0 64.667 -18.5 116 -55.5 154
s-83.167 57 -138.5 57c-58.667 0 -105.834 -20 -141.501 -60s-55.5 -95 -59.5 -165zM219 1286h113l133 -409h-39z" />
    <glyph glyph-name="eacute" unicode="&#xe9;" horiz-adv-x="831" 
d="M764 186l-0.000976562 -52.999c-44 -56 -88.833 -96 -134.5 -120s-100.5 -36 -164.5 -36c-113.333 0 -206.833 35.5 -280.5 106.5s-110.5 161.167 -110.5 270.5c0 110 35.167 202.667 105.5 278s156.5 113 258.5 113c84 0 157.333 -28.333 220 -85
s94 -124.334 94 -203.001v-15h-533v-10c0 -80 12.167 -149.5 36.5 -208.5s59.833 -105.167 106.5 -138.5s95.334 -50 146.001 -50c47.333 0 87.833 9.83301 121.5 29.5s78.5 60.167 134.5 121.5zM218.999 477.001h395.001v14c0 64.667 -18.5 116 -55.5 154
s-83.167 57 -138.5 57c-58.667 0 -105.834 -20 -141.501 -60s-55.5 -95 -59.5 -165zM291 877.001l133 409h113l-207 -409h-39z" />
    <glyph glyph-name="ecircumflex" unicode="&#xea;" horiz-adv-x="831" 
d="M764 186l-0.000976562 -52.999c-44 -56 -88.833 -96 -134.5 -120s-100.5 -36 -164.5 -36c-113.333 0 -206.833 35.5 -280.5 106.5s-110.5 161.167 -110.5 270.5c0 110 35.167 202.667 105.5 278s156.5 113 258.5 113c84 0 157.333 -28.333 220 -85
s94 -124.334 94 -203.001v-15h-533v-10c0 -80 12.167 -149.5 36.5 -208.5s59.833 -105.167 106.5 -138.5s95.334 -50 146.001 -50c47.333 0 87.833 9.83301 121.5 29.5s78.5 60.167 134.5 121.5zM218.999 477.001h395.001v14c0 64.667 -18.5 116 -55.5 154
s-83.167 57 -138.5 57c-58.667 0 -105.834 -20 -141.501 -60s-55.5 -95 -59.5 -165zM377 1286h52l209 -401h-46l-196 266l-189 -266h-41z" />
    <glyph glyph-name="edieresis" unicode="&#xeb;" horiz-adv-x="831" 
d="M764 186l-0.000976562 -52.999c-44 -56 -88.833 -96 -134.5 -120s-100.5 -36 -164.5 -36c-113.333 0 -206.833 35.5 -280.5 106.5s-110.5 161.167 -110.5 270.5c0 110 35.167 202.667 105.5 278s156.5 113 258.5 113c84 0 157.333 -28.333 220 -85
s94 -124.334 94 -203.001v-15h-533v-10c0 -80 12.167 -149.5 36.5 -208.5s59.833 -105.167 106.5 -138.5s95.334 -50 146.001 -50c47.333 0 87.833 9.83301 121.5 29.5s78.5 60.167 134.5 121.5zM218.999 477.001h395.001v14c0 64.667 -18.5 116 -55.5 154
s-83.167 57 -138.5 57c-58.667 0 -105.834 -20 -141.501 -60s-55.5 -95 -59.5 -165zM560 1163c23.333 0 43.5 -8.5 60.5 -25.5s25.5 -37.167 25.5 -60.5s-8.5 -43.5 -25.5 -60.5s-37.167 -25.5 -60.5 -25.5s-43.5 8.5 -60.5 25.5s-25.5 37.167 -25.5 60.5
s8.5 43.5 25.5 60.5s37.167 25.5 60.5 25.5zM244 1163c23.333 0 43.5 -8.5 60.5 -25.5s25.5 -37.167 25.5 -60.5s-8.5 -43.5 -25.5 -60.5s-37.167 -25.5 -60.5 -25.5s-43.5 8.5 -60.5 25.5s-25.5 37.167 -25.5 60.5s8.5 43.5 25.5 60.5s37.167 25.5 60.5 25.5z" />
    <glyph glyph-name="igrave" unicode="&#xec;" horiz-adv-x="469" 
d="M29 0v35c58 0 95.333 6.5 112 19.5s25 39.833 25 80.5v445c0 44 -7.66699 73 -23 87s-53.333 21 -114 21v35l241 22h35v-610c0 -40 8.66699 -66.667 26 -80s49 -20 95 -20v-35h-397zM28 1286h113l133 -409h-39z" />
    <glyph glyph-name="iacute" unicode="&#xed;" horiz-adv-x="469" 
d="M29 0v35c58 0 95.333 6.5 112 19.5s25 39.833 25 80.5v445c0 44 -7.66699 73 -23 87s-53.333 21 -114 21v35l241 22h35v-610c0 -40 8.66699 -66.667 26 -80s49 -20 95 -20v-35h-397zM202 877l133 409h113l-207 -409h-39z" />
    <glyph glyph-name="icircumflex" unicode="&#xee;" horiz-adv-x="469" 
d="M29 0v35c58 0 95.333 6.5 112 19.5s25 39.833 25 80.5v445c0 44 -7.66699 73 -23 87s-53.333 21 -114 21v35l241 22h35v-610c0 -40 8.66699 -66.667 26 -80s49 -20 95 -20v-35h-397zM197 1286h52l209 -401h-46l-196 266l-189 -266h-41z" />
    <glyph glyph-name="idieresis" unicode="&#xef;" horiz-adv-x="469" 
d="M29 0v35c58 0 95.333 6.5 112 19.5s25 39.833 25 80.5v445c0 44 -7.66699 73 -23 87s-53.333 21 -114 21v35l241 22h35v-610c0 -40 8.66699 -66.667 26 -80s49 -20 95 -20v-35h-397zM410 1163c23.333 0 43.5 -8.5 60.5 -25.5s25.5 -37.167 25.5 -60.5
s-8.5 -43.5 -25.5 -60.5s-37.167 -25.5 -60.5 -25.5s-43.5 8.5 -60.5 25.5s-25.5 37.167 -25.5 60.5s8.5 43.5 25.5 60.5s37.167 25.5 60.5 25.5zM94 1163c23.333 0 43.5 -8.5 60.5 -25.5s25.5 -37.167 25.5 -60.5s-8.5 -43.5 -25.5 -60.5s-37.167 -25.5 -60.5 -25.5
s-43.5 8.5 -60.5 25.5s-25.5 37.167 -25.5 60.5s8.5 43.5 25.5 60.5s37.167 25.5 60.5 25.5z" />
    <glyph glyph-name="eth" unicode="&#xf0;" horiz-adv-x="948" 
d="M227 360c0 -104.667 22.1699 -187.834 66.5029 -249.501s104.166 -92.5 179.499 -92.5c77.333 0 137.666 31.5 180.999 94.5s65 150.5 65 262.5c0 102 -22 182.5 -66 241.5s-104 88.5 -180 88.5c-76.667 0 -136.834 -30.667 -180.501 -92s-65.5 -145.666 -65.5 -252.999z
M782.003 1284l23.0029 -33l-187 -123c82.667 -88 146.5 -195.333 191.5 -322s67.5 -250.667 67.5 -372c0 -142 -36.333 -253.667 -109 -335s-171.667 -122 -297 -122c-112.667 0 -206.334 36.333 -281.001 109s-112 164 -112 274c0 108.667 36.667 200 110 274
s163.666 111 270.999 111c85.333 0 161.666 -25.667 228.999 -77c-33.333 176.667 -83 313 -149 409l-222 -145l-22 33l221 143c-42 56 -96 103 -162 141l56 37c68.667 -36.667 128.667 -79.667 180 -129z" />
    <glyph glyph-name="ntilde" unicode="&#xf1;" 
d="M281 745l-0.00195312 -144.999c84.667 96.667 172 145 262 145c70 0 128.333 -23.833 175 -71.5s70 -110.5 70 -188.5v-327c0 -50 8.33301 -83 25 -99s49.334 -24 98.001 -24v-35h-387v35c48 0 80.833 6.16699 98.5 18.5s26.5 36.166 26.5 71.499v379
c0 50.667 -15.167 91 -45.5 121s-69.166 45 -116.499 45c-68 0 -136.667 -47.333 -206 -142v-354c0 -60 7.83301 -98.167 23.5 -114.5s48.5 -24.5 98.5 -24.5v-35h-383v35c55.333 0 89.333 8.83301 102 26.5s19 55.167 19 112.5v408c0 43.333 -7.66699 71.833 -23 85.5
s-48 20.5 -98 20.5v35l226 22h35zM179.998 958.001h-39c0.666992 46 18 86.667 52 122s72.667 53 116 53c36 0 90.333 -16.333 163 -49c68.667 -30.667 120 -46 154 -46c20.667 0 38 8 52 24s22.667 37.333 26 64h37c-0.666992 -48 -16.667 -89 -48 -123
s-68.666 -51 -111.999 -51c-48.667 0 -108.334 17 -179.001 51c-69.333 33.333 -115.333 50 -138 50c-42.667 0 -70.667 -31.667 -84 -95z" />
    <glyph glyph-name="ograve" unicode="&#xf2;" 
d="M866 360c0 -109.333 -37.833 -200.5 -113.5 -273.5s-170.167 -109.5 -283.5 -109.5s-207.833 36.5 -283.5 109.5s-113.5 164.167 -113.5 273.5c0 110.667 37.667 202.5 113 275.5s170 109.5 284 109.5s208.667 -36.5 284 -109.5s113 -164.833 113 -275.5zM715 360
c0 103.333 -22.002 186.666 -66.002 249.999s-104 95 -180 95s-136 -31 -180 -93s-66 -146 -66 -252c0 -104 21.833 -187 65.5 -249s103.834 -93 180.501 -93s136.834 31.333 180.501 94s65.5 145.334 65.5 248.001zM244.998 1286h113l133 -409h-39z" />
    <glyph glyph-name="oacute" unicode="&#xf3;" 
d="M866 360c0 -109.333 -37.833 -200.5 -113.5 -273.5s-170.167 -109.5 -283.5 -109.5s-207.833 36.5 -283.5 109.5s-113.5 164.167 -113.5 273.5c0 110.667 37.667 202.5 113 275.5s170 109.5 284 109.5s208.667 -36.5 284 -109.5s113 -164.833 113 -275.5zM715 360
c0 103.333 -22.002 186.666 -66.002 249.999s-104 95 -180 95s-136 -31 -180 -93s-66 -146 -66 -252c0 -104 21.833 -187 65.5 -249s103.834 -93 180.501 -93s136.834 31.333 180.501 94s65.5 145.334 65.5 248.001zM316.998 877l133 409h113l-207 -409h-39z" />
    <glyph glyph-name="ocircumflex" unicode="&#xf4;" 
d="M866 360c0 -109.333 -37.833 -200.5 -113.5 -273.5s-170.167 -109.5 -283.5 -109.5s-207.833 36.5 -283.5 109.5s-113.5 164.167 -113.5 273.5c0 110.667 37.667 202.5 113 275.5s170 109.5 284 109.5s208.667 -36.5 284 -109.5s113 -164.833 113 -275.5zM715 360
c0 103.333 -22.002 186.666 -66.002 249.999s-104 95 -180 95s-136 -31 -180 -93s-66 -146 -66 -252c0 -104 21.833 -187 65.5 -249s103.834 -93 180.501 -93s136.834 31.333 180.501 94s65.5 145.334 65.5 248.001zM436.998 1286h52l209 -401h-46l-196 266l-189 -266h-41z
" />
    <glyph glyph-name="otilde" unicode="&#xf5;" 
d="M866 360c0 -109.333 -37.833 -200.5 -113.5 -273.5s-170.167 -109.5 -283.5 -109.5s-207.833 36.5 -283.5 109.5s-113.5 164.167 -113.5 273.5c0 110.667 37.667 202.5 113 275.5s170 109.5 284 109.5s208.667 -36.5 284 -109.5s113 -164.833 113 -275.5zM715 360
c0 103.333 -22.002 186.666 -66.002 249.999s-104 95 -180 95s-136 -31 -180 -93s-66 -146 -66 -252c0 -104 21.833 -187 65.5 -249s103.834 -93 180.501 -93s136.834 31.333 180.501 94s65.5 145.334 65.5 248.001zM199.998 958h-39c0.666992 46 18 86.667 52 122
s72.667 53 116 53c36 0 90.333 -16.333 163 -49c68.667 -30.667 120 -46 154 -46c20.667 0 38 8 52 24s22.667 37.333 26 64h37c-0.666992 -48 -16.667 -89 -48 -123s-68.666 -51 -111.999 -51c-48.667 0 -108.334 17 -179.001 51c-69.333 33.333 -115.333 50 -138 50
c-42.667 0 -70.667 -31.667 -84 -95z" />
    <glyph glyph-name="odieresis" unicode="&#xf6;" 
d="M866 360c0 -109.333 -37.833 -200.5 -113.5 -273.5s-170.167 -109.5 -283.5 -109.5s-207.833 36.5 -283.5 109.5s-113.5 164.167 -113.5 273.5c0 110.667 37.667 202.5 113 275.5s170 109.5 284 109.5s208.667 -36.5 284 -109.5s113 -164.833 113 -275.5zM715 360
c0 103.333 -22.002 186.666 -66.002 249.999s-104 95 -180 95s-136 -31 -180 -93s-66 -146 -66 -252c0 -104 21.833 -187 65.5 -249s103.834 -93 180.501 -93s136.834 31.333 180.501 94s65.5 145.334 65.5 248.001zM619.998 1163c23.333 0 43.5 -8.5 60.5 -25.5
s25.5 -37.167 25.5 -60.5s-8.5 -43.5 -25.5 -60.5s-37.167 -25.5 -60.5 -25.5s-43.5 8.5 -60.5 25.5s-25.5 37.167 -25.5 60.5s8.5 43.5 25.5 60.5s37.167 25.5 60.5 25.5zM303.998 1163c23.333 0 43.5 -8.5 60.5 -25.5s25.5 -37.167 25.5 -60.5s-8.5 -43.5 -25.5 -60.5
s-37.167 -25.5 -60.5 -25.5s-43.5 8.5 -60.5 25.5s-25.5 37.167 -25.5 60.5s8.5 43.5 25.5 60.5s37.167 25.5 60.5 25.5z" />
    <glyph glyph-name="divide" unicode="&#xf7;" horiz-adv-x="1368" 
d="M682 311c17.333 0 31.833 -5.83301 43.5 -17.5s17.5 -26.167 17.5 -43.5s-5.83301 -32 -17.5 -44s-26.167 -18 -43.5 -18s-31.833 6 -43.5 18s-17.5 26.667 -17.5 44s5.83301 31.833 17.5 43.5s26.167 17.5 43.5 17.5zM682 1120c17.333 0 31.833 -5.83301 43.5 -17.5
s17.5 -26.167 17.5 -43.5s-5.83301 -32 -17.5 -44s-26.167 -18 -43.5 -18s-31.833 6 -43.5 18s-17.5 26.667 -17.5 44s5.83301 31.833 17.5 43.5s26.167 17.5 43.5 17.5zM145 610v88h1076v-88h-1076z" />
    <glyph glyph-name="oslash" unicode="&#xf8;" 
d="M76 -45l112 127c-77.333 74 -116 166.667 -116 278c0 110.667 37.667 202.5 113 275.5s170 109.5 284 109.5c84.667 0 166.667 -24.333 246 -73l96 106l25 -22l-99 -107c86 -70.667 129 -167 129 -289c0 -109.333 -37.833 -200.5 -113.5 -273.5
s-170.167 -109.5 -283.5 -109.5c-94 0 -178.667 28 -254 84l-113 -127zM260 162l393 438c-42.667 70 -104 105 -184 105c-76 0 -136 -31 -180 -93s-66 -146 -66 -252c0 -77.333 12.333 -143.333 37 -198zM670 571l-394.001 -442c46 -74 110.333 -111 193 -111
c76.667 0 136.834 31.333 180.501 94s65.5 145.334 65.5 248.001c0 91.333 -15 161.666 -45 210.999z" />
    <glyph glyph-name="ugrave" unicode="&#xf9;" 
d="M754 745l34 0.000976562v-608c0 -40 8.5 -67 25.5 -81s50.167 -21 99.5 -21v-35l-264 -14v133h-4c-72.667 -94.667 -157.334 -142 -254.001 -142c-69.333 0 -126.166 23.167 -170.499 69.5s-66.5 104.5 -66.5 174.5v371c0 37.333 -9.33301 62.666 -28 75.999
s-52.334 20 -101.001 20v35l233 22h35v-518c0 -50.667 14.833 -90.667 44.5 -120s69.5 -44 119.5 -44c69.333 0 133.333 39.667 192 119v391c0 50 -7.66699 81.333 -23 94s-54.666 19.667 -117.999 21v35zM245 1286h113l133 -409h-39z" />
    <glyph glyph-name="uacute" unicode="&#xfa;" 
d="M754 745l34 0.000976562v-608c0 -40 8.5 -67 25.5 -81s50.167 -21 99.5 -21v-35l-264 -14v133h-4c-72.667 -94.667 -157.334 -142 -254.001 -142c-69.333 0 -126.166 23.167 -170.499 69.5s-66.5 104.5 -66.5 174.5v371c0 37.333 -9.33301 62.666 -28 75.999
s-52.334 20 -101.001 20v35l233 22h35v-518c0 -50.667 14.833 -90.667 44.5 -120s69.5 -44 119.5 -44c69.333 0 133.333 39.667 192 119v391c0 50 -7.66699 81.333 -23 94s-54.666 19.667 -117.999 21v35zM317 877.001l133 409h113l-207 -409h-39z" />
    <glyph glyph-name="ucircumflex" unicode="&#xfb;" 
d="M754 745l34 0.000976562v-608c0 -40 8.5 -67 25.5 -81s50.167 -21 99.5 -21v-35l-264 -14v133h-4c-72.667 -94.667 -157.334 -142 -254.001 -142c-69.333 0 -126.166 23.167 -170.499 69.5s-66.5 104.5 -66.5 174.5v371c0 37.333 -9.33301 62.666 -28 75.999
s-52.334 20 -101.001 20v35l233 22h35v-518c0 -50.667 14.833 -90.667 44.5 -120s69.5 -44 119.5 -44c69.333 0 133.333 39.667 192 119v391c0 50 -7.66699 81.333 -23 94s-54.666 19.667 -117.999 21v35zM417 1286h52l209 -401h-46l-196 266l-189 -266h-41z" />
    <glyph glyph-name="udieresis" unicode="&#xfc;" 
d="M754 745l34 0.000976562v-608c0 -40 8.5 -67 25.5 -81s50.167 -21 99.5 -21v-35l-264 -14v133h-4c-72.667 -94.667 -157.334 -142 -254.001 -142c-69.333 0 -126.166 23.167 -170.499 69.5s-66.5 104.5 -66.5 174.5v371c0 37.333 -9.33301 62.666 -28 75.999
s-52.334 20 -101.001 20v35l233 22h35v-518c0 -50.667 14.833 -90.667 44.5 -120s69.5 -44 119.5 -44c69.333 0 133.333 39.667 192 119v391c0 50 -7.66699 81.333 -23 94s-54.666 19.667 -117.999 21v35zM620 1163c23.333 0 43.5 -8.5 60.5 -25.5s25.5 -37.167 25.5 -60.5
s-8.5 -43.5 -25.5 -60.5s-37.167 -25.5 -60.5 -25.5s-43.5 8.5 -60.5 25.5s-25.5 37.167 -25.5 60.5s8.5 43.5 25.5 60.5s37.167 25.5 60.5 25.5zM304 1163c23.333 0 43.5 -8.5 60.5 -25.5s25.5 -37.167 25.5 -60.5s-8.5 -43.5 -25.5 -60.5s-37.167 -25.5 -60.5 -25.5
s-43.5 8.5 -60.5 25.5s-25.5 37.167 -25.5 60.5s8.5 43.5 25.5 60.5s37.167 25.5 60.5 25.5z" />
    <glyph glyph-name="yacute" unicode="&#xfd;" horiz-adv-x="854" 
d="M381 723l0.000976562 -35.002c-41.333 -6 -62 -27 -62 -63c0 -14 3.66699 -29.667 11 -47l174 -410l127 383c10 31.333 15 56.333 15 75c0 38.667 -24.333 59.334 -73 62.001v35h256v-35c-38.667 0 -70.667 -13.167 -96 -39.5s-48.333 -69.833 -69 -130.5l-289 -854
c-28 -81.333 -63.667 -145.666 -107 -192.999s-87.666 -71 -132.999 -71c-26.667 0 -56.667 10.333 -90 31l47 125c25.333 -11.333 48.666 -17 69.999 -17c43.333 0 79.166 13.667 107.499 41s53.833 73 76.5 137l94 263l-260 600c-19.333 43.333 -38.5 72 -57.5 86
s-48.833 21.333 -89.5 22v35h348zM454.001 876.998l133 409h113l-207 -409h-39z" />
    <glyph glyph-name="thorn" unicode="&#xfe;" 
d="M145 -434l-0.00195312 1536c0 56.667 -7 91.667 -21 105s-50 20 -108 20v35l234 24h35v-663c46 44.667 87.833 76.167 125.5 94.5s79.834 27.5 126.501 27.5c94 0 172 -35.833 234 -107.5s93 -161.834 93 -270.501c0 -112 -34.167 -205 -102.5 -279
s-154.166 -111 -257.499 -111c-71.333 0 -144.333 28.667 -219 86v-477c0 -49.333 8.5 -81.833 25.5 -97.5s48.833 -23.5 95.5 -23.5v-34h-388v34c50 0 83.667 7 101 21s26 40.667 26 80zM284.998 569.001l-0.00195312 -453.999c56.667 -60 123.334 -90 200.001 -90
c64.667 0 118.834 30.333 162.501 91s65.5 136 65.5 226c0 97.333 -21.833 177.666 -65.5 240.999s-99.167 95 -166.5 95c-68 0 -133.333 -36.333 -196 -109z" />
    <glyph glyph-name="ydieresis" unicode="&#xff;" horiz-adv-x="854" 
d="M381 723l0.000976562 -35.002c-41.333 -6 -62 -27 -62 -63c0 -14 3.66699 -29.667 11 -47l174 -410l127 383c10 31.333 15 56.333 15 75c0 38.667 -24.333 59.334 -73 62.001v35h256v-35c-38.667 0 -70.667 -13.167 -96 -39.5s-48.333 -69.833 -69 -130.5l-289 -854
c-28 -81.333 -63.667 -145.666 -107 -192.999s-87.666 -71 -132.999 -71c-26.667 0 -56.667 10.333 -90 31l47 125c25.333 -11.333 48.666 -17 69.999 -17c43.333 0 79.166 13.667 107.499 41s53.833 73 76.5 137l94 263l-260 600c-19.333 43.333 -38.5 72 -57.5 86
s-48.833 21.333 -89.5 22v35h348zM600.001 1163c23.333 0 43.5 -8.5 60.5 -25.5s25.5 -37.167 25.5 -60.5s-8.5 -43.5 -25.5 -60.5s-37.167 -25.5 -60.5 -25.5s-43.5 8.5 -60.5 25.5s-25.5 37.167 -25.5 60.5s8.5 43.5 25.5 60.5s37.167 25.5 60.5 25.5zM284.001 1163
c23.333 0 43.5 -8.5 60.5 -25.5s25.5 -37.167 25.5 -60.5s-8.5 -43.5 -25.5 -60.5s-37.167 -25.5 -60.5 -25.5s-43.5 8.5 -60.5 25.5s-25.5 37.167 -25.5 60.5s8.5 43.5 25.5 60.5s37.167 25.5 60.5 25.5z" />
    <glyph glyph-name="dotlessi" unicode="&#x131;" horiz-adv-x="469" 
d="M29 0v35c58 0 95.333 6.5 112 19.5s25 39.833 25 80.5v445c0 44 -7.66699 73 -23 87s-53.333 21 -114 21v35l241 22h35v-610c0 -40 8.66699 -66.667 26 -80s49 -20 95 -20v-35h-397z" />
    <glyph glyph-name="Lslash" unicode="&#x141;" horiz-adv-x="1024" 
d="M975 256h35l-72 -256h-850v35c48 0 82.167 15 102.5 45s30.5 80.333 30.5 151v166l-158 -149v82l158 149v490c0 63.333 -9.5 107.5 -28.5 132.5s-53.833 37.5 -104.5 37.5v34h420v-34c-46.667 0 -80.167 -14.333 -100.5 -43s-30.5 -76 -30.5 -142v-352l319 305v-82
l-319 -307v-348c0 -43.333 9.16699 -73 27.5 -89s53.5 -24 105.5 -24h233c72 0 122.333 12.5 151 37.5s55.667 78.833 81 161.5z" />
    <glyph glyph-name="lslash" unicode="&#x142;" horiz-adv-x="492" 
d="M47 35h37.001c37.333 0 62.666 9.66699 75.999 29s20 55.333 20 108v365l-180 -218v72l180 215v522c0 37.333 -7.33301 63.166 -22 77.499s-40 21.5 -76 21.5h-47v35l250 24h34v-532l173 207v-72l-173 -207v-545c0 -39.333 8 -66.166 24 -80.499s45.667 -21.5 89 -21.5
h19v-35h-404v35z" />
    <glyph glyph-name="OE" unicode="&#x152;" horiz-adv-x="1878" 
d="M1100 1173h657.003v-194h-28c-4.66699 48.667 -21.834 83.667 -51.501 105s-77.5 32 -143.5 32h-307v-498h323c34.667 0 60.5 7.83301 77.5 23.5s31.5 45.5 43.5 89.5h33v-282h-33c-8.66699 42.667 -22.834 72 -42.501 88s-50.5 24 -92.5 24h-309v-391
c0 -43.333 8.66699 -73 26 -89s49 -24 95 -24h129c95.333 0 164.5 12.333 207.5 37s73.5 67.667 91.5 129h32l-51 -223h-799l-136 -3l-64 -1c-176 0 -325.167 57.833 -447.5 173.5s-183.5 257.167 -183.5 424.5c0 103.333 28.667 202 86 296s135.166 166.5 233.499 217.5
s210.833 76.5 337.5 76.5c44 0 102.333 -2 175 -6zM1071 193l-0.00195312 776c0 62.667 -16.833 106.667 -50.5 132s-106.834 38 -219.501 38c-150 0 -269.833 -50 -359.5 -150s-134.5 -233.667 -134.5 -401c0 -170 43.833 -303.667 131.5 -401s209.834 -146 366.501 -146
c60.667 0 112.834 4.5 156.501 13.5s72.834 23.5 87.501 43.5s22 51.667 22 95z" />
    <glyph glyph-name="oe" unicode="&#x153;" horiz-adv-x="1473" 
d="M1083 745c85.333 0 159.667 -29.001 223 -87.001s95 -127 95 -207v-9h-535c-0.666992 -10 -1 -20 -1 -30c0 -76 12.833 -142.667 38.5 -200s62.834 -103.166 111.501 -137.499s96 -51.5 142 -51.5c83.333 0 168 53.667 254 161v-53
c-49.333 -59.333 -95.333 -99.833 -138 -121.5s-97 -32.5 -163 -32.5c-66.667 0 -124.834 11.5 -174.501 34.5s-97.167 60.833 -142.5 113.5c-88 -98.667 -194 -148 -318 -148c-114 0 -209 36.5 -285 109.5s-114 164.167 -114 273.5c0 107.333 37.667 198.333 113 273
s167.333 112 276 112c136.667 0 246 -50.333 328 -151c73.333 100.667 170 151 290 151zM868.001 476.999l394 0.000976562c-11.333 152 -76.333 228 -195 228c-58 0 -104.333 -19.833 -139 -59.5s-54.667 -95.834 -60 -168.501zM715.001 360
c0 106.667 -21.167 191.168 -63.5 253.501s-101.833 93.5 -178.5 93.5c-76 0 -136 -32.333 -180 -97s-66 -148 -66 -250c0 -100 22 -182 66 -246s104 -96 180 -96c74.667 0 133.667 30.167 177 90.5s65 144.166 65 251.499z" />
    <glyph glyph-name="Scaron" unicode="&#x160;" horiz-adv-x="854" 
d="M696 1190l33.0029 -0.000976562v-275h-35c-8 76 -35.5 135.333 -82.5 178s-106.167 64 -177.5 64c-63.333 0 -114.333 -16 -153 -48s-58 -74.667 -58 -128c0 -49.333 16 -94.333 48 -135s101.333 -93 208 -157c124 -74 207.333 -138.667 250 -194
s64 -118.666 64 -189.999c0 -92 -32.667 -170.667 -98 -236s-144 -98 -236 -98c-53.333 0 -121.333 14.667 -204 44c-34 12 -55.667 18 -65 18c-19.333 0 -34.333 -15 -45 -45h-34v317h34c0.666992 -87.333 29.167 -157.333 85.5 -210s122.166 -79 197.499 -79
c71.333 0 128.5 19 171.5 57s64.5 88.667 64.5 152c0 47.333 -17.667 92.666 -53 135.999s-109 99.333 -221 168c-91.333 56.667 -152.333 101.334 -183 134.001s-53.334 68.5 -68.001 107.5s-22 81.833 -22 128.5c0 90 29.5 163 88.5 219s135.833 84 230.5 84
c52 0 108.667 -10.333 170 -31c28.667 -9.33301 48.667 -14 60 -14c9.33301 0 15.666 2 18.999 6s7 13 11 27zM453.003 1250h-52l-209 401h46l196 -266l189 266h41z" />
    <glyph glyph-name="scaron" unicode="&#x161;" horiz-adv-x="641" 
d="M537 745l0.000976562 -223.002h-41c-6.66699 56 -26.667 100.5 -60 133.5s-73.666 49.5 -120.999 49.5c-36 0 -65 -9 -87 -27s-33 -42 -33 -72c0 -29.333 10.167 -55.166 30.5 -77.499s64.5 -49.166 132.5 -80.499c88 -40 146.167 -78.333 174.5 -115
s42.5 -80.667 42.5 -132c0 -60.667 -22.667 -113.167 -68 -157.5s-99 -66.5 -161 -66.5c-32 0 -74.333 11.667 -127 35c-28.667 12.667 -47.667 19 -57 19c-12.667 0 -23.334 -4.66699 -32.001 -14s-13.667 -21 -15 -35h-35v247h35c12.667 -64.667 40.667 -116 84 -154
s93 -57 149 -57c36 0 66.167 12 90.5 36s36.5 53.667 36.5 89c0 34 -11.167 63.5 -33.5 88.5s-70.833 53.833 -145.5 86.5c-84 36.667 -139.333 71 -166 103s-40 70.667 -40 116c0 56.667 21.833 105.5 65.5 146.5s95.5 61.5 155.5 61.5c28 0 58.333 -6.66699 91 -20
c23.333 -9.33301 42.333 -14 57 -14c19.333 0 33.666 11.333 42.999 34h35zM357.001 884.998h-52l-209 401h46l196 -266l189 266h41z" />
    <glyph glyph-name="Ydieresis" unicode="&#x178;" horiz-adv-x="1153" 
d="M915 1006l-263.999 -416.001v-369c0 -71.333 9.16699 -120.166 27.5 -146.499s52.166 -39.5 101.499 -39.5v-35h-428v35c58 0 96.5 14 115.5 42s28.5 76 28.5 144v369l-250 389c-41.333 64.667 -75 107 -101 127s-62 31 -108 33v34h459v-34
c-80.667 0 -121 -18.333 -121 -55c0 -16.667 8 -37.334 24 -62.001l232 -356l186 295c27.333 44 41 81.667 41 113c0 43.333 -26 65 -78 65v34h322v-34c-43.333 -2.66699 -76.833 -12.167 -100.5 -28.5s-52.5 -51.166 -86.5 -104.499zM736.001 1528
c23.333 0 43.5 -8.5 60.5 -25.5s25.5 -37.167 25.5 -60.5s-8.5 -43.5 -25.5 -60.5s-37.167 -25.5 -60.5 -25.5s-43.5 8.5 -60.5 25.5s-25.5 37.167 -25.5 60.5s8.5 43.5 25.5 60.5s37.167 25.5 60.5 25.5zM420.001 1528c23.333 0 43.5 -8.5 60.5 -25.5
s25.5 -37.167 25.5 -60.5s-8.5 -43.5 -25.5 -60.5s-37.167 -25.5 -60.5 -25.5s-43.5 8.5 -60.5 25.5s-25.5 37.167 -25.5 60.5s8.5 43.5 25.5 60.5s37.167 25.5 60.5 25.5z" />
    <glyph glyph-name="Zcaron" unicode="&#x17d;" horiz-adv-x="1153" 
d="M1055 283h35.001l-43 -283h-984v31l773 1085h-506c-74 0 -127.333 -9.83301 -160 -29.5s-57.334 -57.5 -74.001 -113.5h-33l19 200h954v-36l-768 -1080h443c97.333 0 172.5 17.5 225.5 52.5s92.5 92.833 118.5 173.5zM602.001 1250h-52l-209 401h46l196 -266l189 266h41z
" />
    <glyph glyph-name="zcaron" unicode="&#x17e;" horiz-adv-x="748" 
d="M80 723l608 0.000976562v-35l-461 -653h226c76 0 131 14.667 165 44s52 76.666 54 141.999h35l-19 -221h-627v35l461 653h-203c-62 0 -113 -15.833 -153 -47.5s-63.333 -74.5 -70 -128.5h-35zM383 885.001h-52l-209 401h46l196 -266l189 266h41z" />
    <glyph glyph-name="florin" unicode="&#x192;" horiz-adv-x="1280" 
d="M815 674l141.001 0.00292969v-56h-149l-135 -727c-27.333 -147.333 -80 -259.833 -158 -337.5s-173 -116.5 -285 -116.5c-101.333 0 -179.666 15.667 -234.999 47l33 151h34c26 -104.667 84.333 -157 175 -157c48 0 95 12.667 141 38s83.667 68.166 113 128.499
s55.666 154.166 78.999 281.499l127 692h-141v56h152l63 293c20 93.333 59.667 167.166 119 221.499s130.333 81.5 213 81.5c38.667 0 85 -9 139 -27l6 25h41l-37 -185h-41c-10.667 51.333 -26.334 88.5 -47.001 111.5s-48.667 34.5 -84 34.5
c-46.667 0 -87.5 -21.667 -122.5 -65s-60.167 -102.333 -75.5 -177z" />
    <glyph glyph-name="circumflex" unicode="&#x2c6;" horiz-adv-x="682" 
d="M317 1286h52l209 -401h-46l-196 266l-189 -266h-41z" />
    <glyph glyph-name="caron" unicode="&#x2c7;" horiz-adv-x="682" 
d="M367 885h-52l-209 401h46l196 -266l189 266h41z" />
    <glyph glyph-name="macron" unicode="&#x2c9;" horiz-adv-x="682" 
d="M41 999v88h600v-88h-600z" />
    <glyph glyph-name="breve" unicode="&#x2d8;" horiz-adv-x="682" 
d="M554 1200l41 0.000976562v-16c0 -83.333 -24.833 -151 -74.5 -203s-108.834 -78 -177.501 -78c-67.333 0 -126.666 26.5 -177.999 79.5s-77 118.167 -77 195.5c0 7.33301 0.333008 14.666 1 21.999h41c28.667 -114.667 99 -172 211 -172
c113.333 0 184.333 57.333 213 172z" />
    <glyph glyph-name="dotaccent" unicode="&#x2d9;" horiz-adv-x="682" 
d="M342 1163c23.333 0 43.5 -8.5 60.5 -25.5s25.5 -37.167 25.5 -60.5s-8.5 -43.5 -25.5 -60.5s-37.167 -25.5 -60.5 -25.5s-43.5 8.5 -60.5 25.5s-25.5 37.167 -25.5 60.5s8.5 43.5 25.5 60.5s37.167 25.5 60.5 25.5z" />
    <glyph glyph-name="ring" unicode="&#x2da;" horiz-adv-x="682" 
d="M342 1186c-36 0 -66.833 -12.833 -92.5 -38.5s-38.5 -56.5 -38.5 -92.5s12.833 -66.833 38.5 -92.5s56.5 -38.5 92.5 -38.5s66.833 12.833 92.5 38.5s38.5 56.5 38.5 92.5s-12.833 66.833 -38.5 92.5s-56.5 38.5 -92.5 38.5zM342 1235c50 0 92.5 -17.5 127.5 -52.5
s52.5 -77.5 52.5 -127.5c0 -50.667 -17.5 -93.5 -52.5 -128.5s-77.5 -52.5 -127.5 -52.5s-92.5 17.5 -127.5 52.5s-52.5 77.833 -52.5 128.5c0 50 17.5 92.5 52.5 127.5s77.5 52.5 127.5 52.5z" />
    <glyph glyph-name="ogonek" unicode="&#x2db;" horiz-adv-x="682" 
d="M571 -205l27 -26c-73.333 -71.333 -151 -107 -233 -107c-51.333 0 -91.833 13.833 -121.5 41.5s-44.5 65.834 -44.5 114.501c0 65.333 29.333 130.666 88 195.999h47c-24.667 -50 -37 -97 -37 -141c0 -38 12 -68 36 -90s57 -33 99 -33c46 0 92.333 15 139 45z" />
    <glyph glyph-name="tilde" unicode="&#x2dc;" horiz-adv-x="682" 
d="M80 958h-39c0.666992 46 18 86.667 52 122s72.667 53 116 53c36 0 90.333 -16.333 163 -49c68.667 -30.667 120 -46 154 -46c20.667 0 38 8 52 24s22.667 37.333 26 64h37c-0.666992 -48 -16.667 -89 -48 -123s-68.666 -51 -111.999 -51
c-48.667 0 -108.334 17 -179.001 51c-69.333 33.333 -115.333 50 -138 50c-42.667 0 -70.667 -31.667 -84 -95z" />
    <glyph glyph-name="hungarumlaut" unicode="&#x2dd;" horiz-adv-x="682" 
d="M322 877l133 409h112l-207 -409h-38zM111 877l133 409h112l-206 -409h-39z" />
    <glyph glyph-name="pi" unicode="&#x3c0;" horiz-adv-x="1124" 
d="M1085 309c-3.33301 -103.333 -28.498 -186.167 -75.498 -248.5s-102.833 -93.5 -167.5 -93.5c-52.667 0 -98.834 30.5 -138.501 91.5s-59.5 154.833 -59.5 281.5c0 28 0.666992 54.667 2 80s3 49.333 5 72l35 329h-231c-40 -416 -72.833 -663.5 -98.5 -742.5
s-69.167 -118.5 -130.5 -118.5c-26 0 -50.667 10.333 -74 31s-35 48 -35 82c0 30.667 24.167 73.5 72.5 128.5s75.166 105.167 80.499 150.5l60 469h-97c-26.667 0 -52.834 -6.5 -78.501 -19.5s-44.5 -28.167 -56.5 -45.5l-43 -64h-35
c32.667 101.333 72.834 177.5 120.501 228.5s102.5 76.5 164.5 76.5h764v-176h-258c-8 -80 -14.167 -160 -18.5 -240s-6.5 -160.333 -6.5 -241c0 -54.667 12.667 -99 38 -133s57 -51 95 -51c23.333 0 47.833 9.5 73.5 28.5s40.167 43.833 43.5 74.5
c2 14.667 3.5 26.167 4.5 34.5s1.5 13.5 1.5 15.5h43z" />
    <glyph glyph-name="endash" unicode="&#x2013;" horiz-adv-x="1024" 
d="M-12 362v46h1048v-46h-1048z" />
    <glyph glyph-name="emdash" unicode="&#x2014;" horiz-adv-x="2048" 
d="M-12 362v46h2072v-46h-2072z" />
    <glyph glyph-name="quoteleft" unicode="&#x2018;" horiz-adv-x="598" 
d="M426 1286v-35.002c-84.667 -50.667 -127 -123 -127 -217c0 -12 3 -21.5 9 -28.5s19.333 -13.167 40 -18.5c27.333 -7.33301 45.5 -17.333 54.5 -30s13.5 -30 13.5 -52c0 -25.333 -8.16699 -46 -24.5 -62s-37.5 -24 -63.5 -24c-38 0 -68.333 14 -91 42s-34 65.333 -34 112
c0 74.667 20.167 140.334 60.5 197.001s94.5 95.334 162.5 116.001z" />
    <glyph glyph-name="quoteright" unicode="&#x2019;" horiz-adv-x="598" 
d="M172 819v35.001c84.667 48.667 127 121 127 217c0 12 -3 21.5 -9 28.5s-19.333 13.167 -40 18.5c-27.333 7.33301 -45.5 17.333 -54.5 30s-13.5 30 -13.5 52c0 25.333 8.16699 46 24.5 62s37.5 24 63.5 24c38 0 68.333 -14 91 -42s34 -65 34 -111
c0 -75.333 -20.167 -141.333 -60.5 -198s-94.5 -95.334 -162.5 -116.001z" />
    <glyph glyph-name="quotesinglbase" unicode="&#x201a;" horiz-adv-x="598" 
d="M180 -352l0.000976562 34.998c96 43.333 144 119.666 144 228.999c0 15.333 -2.16699 25.333 -6.5 30s-14.5 7 -30.5 7c-30 0 -55.333 9.5 -76 28.5s-31 42.167 -31 69.5c0 26.667 9.66699 49.334 29 68.001s42.666 28 69.999 28c44.667 0 81 -18.333 109 -55
s42 -83.667 42 -141c0 -71.333 -23.167 -134.666 -69.5 -189.999s-106.5 -91.666 -180.5 -108.999z" />
    <glyph glyph-name="quotedblleft" unicode="&#x201c;" horiz-adv-x="641" 
d="M594 1286v-35.001c-52 -26 -88.833 -56.5 -110.5 -91.5s-32.5 -80.833 -32.5 -137.5c0 -15.333 2 -25.333 6 -30s14 -7 30 -7c30 0 55.333 -9.5 76 -28.5s31 -42.167 31 -69.5c0 -26 -9.66699 -48.5 -29 -67.5s-42.333 -28.5 -69 -28.5
c-44.667 0 -81.167 18.167 -109.5 54.5s-42.5 83.5 -42.5 141.5c0 70.667 23.167 133.834 69.5 189.501s106.5 92.167 180.5 109.5zM268 1286v-35.001c-52.667 -26 -89.667 -56.167 -111 -90.5s-32 -80.5 -32 -138.5c0 -16 2.16699 -26.167 6.5 -30.5s14.5 -6.5 30.5 -6.5
c29.333 0 54.333 -9.5 75 -28.5s31 -42.167 31 -69.5c0 -26 -9.66699 -48.5 -29 -67.5s-42.333 -28.5 -69 -28.5c-44.667 0 -81.167 18.167 -109.5 54.5s-42.5 83.5 -42.5 141.5c0 70.667 23.333 133.834 70 189.501s106.667 92.167 180 109.5z" />
    <glyph glyph-name="quotedblright" unicode="&#x201d;" horiz-adv-x="641" 
d="M47 791l-0.000976562 34.001c53.333 28 90.5 59.167 111.5 93.5s31.5 79.833 31.5 136.5c0 15.333 -2.16699 25.333 -6.5 30s-14.166 7 -29.499 7c-30 0 -55.333 9.5 -76 28.5s-31 42.167 -31 69.5c0 26 9.66699 48.5 29 67.5s42.333 28.5 69 28.5
c44.667 0 81.167 -18.167 109.5 -54.5s42.5 -83.5 42.5 -141.5c0 -71.333 -23.167 -134.833 -69.5 -190.5s-106.5 -91.834 -180.5 -108.501zM372.999 791.001v34.001c52 26.667 88.833 57.5 110.5 92.5s32.5 80.833 32.5 137.5c0 15.333 -2.16699 25.333 -6.5 30
s-14.5 7 -30.5 7c-29.333 0 -54.333 9.5 -75 28.5s-31 42.167 -31 69.5c0 26 9.66699 48.5 29 67.5s42.333 28.5 69 28.5c44.667 0 81.167 -18.333 109.5 -55s42.5 -83.667 42.5 -141c0 -70.667 -23.333 -133.834 -70 -189.501s-106.667 -92.167 -180 -109.5z" />
    <glyph glyph-name="quotedblbase" unicode="&#x201e;" horiz-adv-x="641" 
d="M350 -352v34.998c52.667 26.667 89.834 57.167 111.501 91.5s32.5 80.166 32.5 137.499c0 15.333 -2.16699 25.333 -6.5 30s-14.5 7 -30.5 7c-30 0 -55.333 9.5 -76 28.5s-31 42.167 -31 69.5c0 26.667 9.66699 49.334 29 68.001s42.666 28 69.999 28
c44.667 0 81 -18.333 109 -55s42 -83.667 42 -141c0 -71.333 -23.167 -134.666 -69.5 -189.999s-106.5 -91.666 -180.5 -108.999zM37 -352.002v35.001c53.333 27.333 90.5 58 111.5 92s31.5 79.667 31.5 137c0 16 -2.16699 26.167 -6.5 30.5s-14.5 6.5 -30.5 6.5
c-29.333 0 -54.333 9.5 -75 28.5s-31 42.167 -31 69.5c0 26 9.66699 48.5 29 67.5s42.333 28.5 69 28.5c44.667 0 81.167 -18.333 109.5 -55s42.5 -83.667 42.5 -141c0 -70.667 -23.167 -133.834 -69.5 -189.501s-106.5 -92.167 -180.5 -109.5z" />
    <glyph glyph-name="dagger" unicode="&#x2020;" horiz-adv-x="854" 
d="M348 1081c0 61.333 26 92.001 78 92.001c24.667 0 44.5 -7.66699 59.5 -23s22.5 -35.333 22.5 -60c0 -22.667 -9.33301 -67.334 -28 -134.001c-26.667 -94 -40 -164.333 -40 -211c55.333 0 114 11 176 33c36.667 12.667 64.667 19 84 19c52 0 78 -23.333 78 -70
c0 -19.333 -7 -36.5 -21 -51.5s-30 -22.5 -48 -22.5c-21.333 0 -54 7.33301 -98 22c-66 22.667 -123 34 -171 34c0 -108.667 25.333 -190.667 76 -246c-38.667 -165.333 -62.667 -472 -72 -920h-38c-4 460 -27.333 766.667 -70 920c48 61.333 72 143.333 72 246
c-63.333 0 -122 -11.333 -176 -34c-30.667 -13.333 -56 -20 -76 -20c-53.333 0 -80 24.667 -80 74c0 22 6.66699 39.5 20 52.5s31.333 19.5 54 19.5c20.667 0 51.334 -7.33301 92.001 -22c63.333 -22.667 118.666 -34 165.999 -34c0 45.333 -13 122 -39 230
c-14 58 -21 93.333 -21 106z" />
    <glyph glyph-name="daggerdbl" unicode="&#x2021;" horiz-adv-x="854" 
d="M94 784c0 18.667 6.83203 33.998 20.499 45.998s30.834 18 51.501 18c23.333 0 55.333 -7 96 -21c50 -18 92.667 -27 128 -27c7.33301 0 14.666 0.333008 21.999 1c0 28.667 -10.333 79 -31 151c-19.333 67.333 -29 113.333 -29 138c0 22.667 7.66699 42.167 23 58.5
s33.666 24.5 54.999 24.5c49.333 0 74 -28.667 74 -86c0 -36.667 -9 -82.334 -27 -137.001c-19.333 -56.667 -30.333 -106.334 -33 -149.001c38.667 0 91.667 9.33301 159 28c42.667 11.333 71.667 17 87 17c20.667 0 37.834 -6.16699 51.501 -18.5
s20.5 -28.166 20.5 -47.499s-7.33301 -35 -22 -47s-34 -18 -58 -18c-18 0 -46 6.66699 -84 20c-58.667 20.667 -110 31 -154 31v-17c0 -30 5 -58.5 15 -85.5s29 -60.5 57 -100.5c-46.667 -84.667 -70 -152.334 -70 -203.001c0 -71.333 22.667 -140.666 68 -207.999
c-45.333 -85.333 -68.666 -151.666 -69.999 -198.999c48.667 0 101 9.33301 157 28c33.333 11.333 59 17 77 17c24.667 0 44.5 -5.83301 59.5 -17.5s22.5 -27.167 22.5 -46.5c0 -17.333 -7.5 -32.5 -22.5 -45.5s-32.167 -19.5 -51.5 -19.5c-17.333 0 -50.666 7 -99.999 21
c-64.667 18.667 -112 28 -142 28c0 -44.667 9.66699 -94 29 -148c18 -49.333 27 -92 27 -128c0 -30 -6.83301 -54 -20.5 -72s-32.167 -27 -55.5 -27c-22 0 -40.167 8.33301 -54.5 25s-21.5 37.667 -21.5 63c0 36 9.66699 78.333 29 127c23.333 56.667 35 110 35 160
c-36.667 -1.33301 -86.667 -10.666 -150 -27.999c-46.667 -12.667 -79.334 -19 -98.001 -19c-21.333 0 -39 6.5 -53 19.5s-21 29.167 -21 48.5c0 39.333 27.333 59 82 59c17.333 0 42.666 -5.33301 75.999 -16c56.667 -19.333 111.334 -29 164.001 -29
c-5.33301 76.667 -28.666 143 -69.999 199c46.667 64 70 136.333 70 217c0 24.667 -3.5 47.834 -10.5 69.501s-26.833 63.167 -59.5 124.5c30.667 50.667 50 87.667 58 111s12 48.333 12 75v17h-7c-41.333 0 -86 -8.66699 -134 -26c-39.333 -14 -72.333 -21 -99 -21
c-22.667 0 -41.334 6 -56.001 18s-22 27.667 -22 47z" />
    <glyph glyph-name="bullet" unicode="&#x2022;" horiz-adv-x="717" 
d="M358 905c63.333 0 117.5 -22.333 162.5 -67s67.5 -98.667 67.5 -162s-22.5 -117.5 -67.5 -162.5s-99.167 -67.5 -162.5 -67.5s-117.333 22.5 -162 67.5s-67 99.167 -67 162.5s22.333 117.333 67 162s98.667 67 162 67z" />
    <glyph glyph-name="ellipsis" unicode="&#x2026;" horiz-adv-x="2048" 
d="M1024 143c26.667 0 49.333 -9.33203 68 -27.999s28 -41.334 28 -68.001s-9.5 -49.667 -28.5 -69s-41.5 -29 -67.5 -29c-26.667 0 -49.667 9.66699 -69 29s-29 42.333 -29 69c0 26 9.66699 48.5 29 67.5s42.333 28.5 69 28.5zM339.999 143.001
c26.667 0 49.666 -9.50098 68.999 -28.501s29 -41.5 29 -67.5c0 -26.667 -9.66699 -49.667 -29 -69s-42.333 -29 -69 -29c-26 0 -48.5 9.66699 -67.5 29s-28.5 42.333 -28.5 69s9.33301 49.334 28 68.001s41.334 28 68.001 28zM1704 143
c26.667 0 49.666 -9.50098 68.999 -28.501s29 -41.5 29 -67.5c0 -26.667 -9.66699 -49.667 -29 -69s-42.333 -29 -69 -29c-26 0 -48.5 9.66699 -67.5 29s-28.5 42.333 -28.5 69s9.33301 49.334 28 68.001s41.334 28 68.001 28z" />
    <glyph glyph-name="perthousand" unicode="&#x2030;" horiz-adv-x="2028" 
d="M311 596c44 0 79 24.499 105 73.499s39 116.5 39 202.5s-13 153.667 -39 203s-61 74 -105 74c-45.333 0 -80.5 -24.667 -105.5 -74s-37.5 -119.666 -37.5 -210.999c0 -82.667 12.833 -148 38.5 -196s60.5 -72 104.5 -72zM563 871.999
c0 -94.667 -24.001 -173.167 -72.001 -235.5s-108 -93.5 -180 -93.5c-72.667 0 -132.834 31.167 -180.501 93.5s-71.5 140.833 -71.5 235.5c0 95.333 23.833 174.166 71.5 236.499s107.834 93.5 180.501 93.5s132.834 -31.167 180.501 -93.5s71.5 -141.166 71.5 -236.499z
M1098 1202h69l-852 -1202h-69zM1968 318.999c0 -94.667 -24.001 -173.167 -72.001 -235.5s-108 -93.5 -180 -93.5c-72.667 0 -132.834 31.167 -180.501 93.5s-71.5 140.833 -71.5 235.5c0 95.333 23.833 174.166 71.5 236.499s107.834 93.5 180.501 93.5
s132.834 -31.167 180.501 -93.5s71.5 -141.166 71.5 -236.499zM1716 42.999c44 0 79 24.499 105 73.499s39 116.5 39 202.5s-13 153.667 -39 203s-61 74 -105 74c-45.333 0 -80.5 -24.667 -105.5 -74s-37.5 -119.666 -37.5 -210.999c0 -82.667 12.833 -148 38.5 -196
s60.5 -72 104.5 -72zM1356 318.998c0 -94 -24 -172.331 -72 -234.998s-108 -94 -180 -94c-72.667 0 -132.834 31 -180.501 93s-71.5 140.667 -71.5 236s23.833 174.166 71.5 236.499s107.834 93.5 180.501 93.5c72 0 132 -31.333 180 -94s72 -141.334 72 -236.001zM1104 43
c44 0 78.833 24.499 104.5 73.499s38.5 116.5 38.5 202.5c0 86.667 -12.833 154.5 -38.5 203.5s-60.5 73.5 -104.5 73.5c-45.333 0 -80.5 -24.667 -105.5 -74s-37.5 -119.666 -37.5 -210.999c0 -82.667 12.833 -148 38.5 -196s60.5 -72 104.5 -72z" />
    <glyph glyph-name="guilsinglleft" unicode="&#x2039;" horiz-adv-x="532" 
d="M485 707l-264 -375l264 -375h-43l-385 375l385 375h43z" />
    <glyph glyph-name="guilsinglright" unicode="&#x203a;" horiz-adv-x="532" 
d="M47 -43l264 375l-264 375h43l385 -375l-385 -375h-43z" />
    <glyph glyph-name="trademark" unicode="&#x2122;" horiz-adv-x="2007" 
d="M616 584h19.0029v-35h-361v35h31c34.667 0 58 9.66699 70 29s18 60 18 122v574h-114c-42.667 0 -74.334 -10.667 -95.001 -32s-33 -56 -37 -104h-34v185h684v-185h-35c-6.66699 56 -19.834 92.667 -39.501 110s-57.834 26 -114.501 26h-92v-555
c0 -69.333 6.5 -115 19.5 -137s39.833 -33 80.5 -33zM858.003 1325l0.000976562 33h242l293 -627l288 627h232v-33h-31c-32.667 0 -55.5 -7 -68.5 -21s-19.5 -39 -19.5 -75v-488c0 -68.667 6.16699 -111.5 18.5 -128.5s45.166 -26.5 98.499 -28.5v-35h-346v35
c50 0 81.833 9.33301 95.5 28s20.5 61.667 20.5 129v496l-311 -688h-16l-322 676v-535c0 -48 6.33301 -77.667 19 -89s44.667 -17 96 -17v-35h-289v35c53.333 0 86.5 7 99.5 21s19.5 45 19.5 93v514c0 42 -7.66699 70.333 -23 85s-47.333 24 -96 28z" />
    <glyph glyph-name="ohm" unicode="&#x2126;" horiz-adv-x="1573" 
d="M1506 0h-603.998l33 311c107.333 39.333 182.666 106 225.999 200s65 198.333 65 313c0 151.333 -35.667 275.666 -107 372.999s-181.666 146 -330.999 146s-259.666 -48.667 -330.999 -146s-107 -221.666 -107 -372.999c0 -114.667 21.667 -219 65 -313
s118.666 -160.667 225.999 -200l33 -311h-604v332h30c10.667 -44 24 -75.833 40 -95.5s48 -29.5 96 -29.5h323l-4 57c-158.667 43.333 -272.334 117 -341.001 221s-103 214.667 -103 332c0 172.667 64 314.5 192 425.5s289.667 166.5 485 166.5s357 -55.5 485 -166.5
s192 -252.833 192 -425.5c0 -117.333 -34.333 -228 -103 -332s-182.334 -177.667 -341.001 -221l-4 -57h323c48 0 80 9.83301 96 29.5s29.333 51.5 40 95.5h30v-332z" />
    <glyph glyph-name="partialdiff" unicode="&#x2202;" horiz-adv-x="1012" 
d="M295 1120h-44.999c87.333 202 213.666 303 378.999 303c107.333 0 195.166 -42.333 263.499 -127s102.5 -210 102.5 -376c0 -238.667 -54.833 -456.834 -164.5 -654.501s-252.167 -296.5 -427.5 -296.5c-103.333 0 -185.333 30.333 -246 91s-91 142.334 -91 245.001
c0 159.333 55.5 299.5 166.5 420.5s238.833 181.5 383.5 181.5c148 0 252 -63.333 312 -190h4c6.66699 96 10 158 10 186c0 116.667 -30.833 208.667 -92.5 276s-146.167 101 -253.5 101c-129.333 0 -229.666 -53.333 -300.999 -160zM911.001 629
c-54 150 -148.669 225 -284.002 225c-118.667 0 -214 -63.5 -286 -190.5s-108 -260.167 -108 -399.5c0 -72 18 -129.5 54 -172.5s83.667 -64.5 143 -64.5c90.667 0 183.834 54.167 279.501 162.5s162.834 254.833 201.501 439.5z" />
    <glyph glyph-name="Delta" unicode="&#x2206;" horiz-adv-x="1253" 
d="M668 1409l577 -1409h-1233zM594 1059l-447 -959h844z" />
    <glyph glyph-name="product" unicode="&#x220f;" horiz-adv-x="1686" 
d="M1645 -207h-629.002v47c80 0 133.167 13.667 159.5 41s39.5 69 39.5 125v1419h-734v-1419c0 -56 13.167 -97.667 39.5 -125s79.5 -41 159.5 -41v-47h-629v47c81.333 0 134.833 13.667 160.5 41s38.5 69 38.5 125v1282c0 67.333 -16.167 118 -48.5 152
s-81.166 51 -146.499 51v47h1586v-47c-65.333 0 -114.166 -17 -146.499 -51s-48.5 -84.667 -48.5 -152v-1282c0 -56 12.833 -97.667 38.5 -125s79.167 -41 160.5 -41v-47z" />
    <glyph glyph-name="summation" unicode="&#x2211;" horiz-adv-x="1460" 
d="M1423 238c-21.333 -83.333 -39.334 -163.334 -54.001 -240.001s-26 -149.667 -34 -219c-42 7.33301 -76.167 12.833 -102.5 16.5s-44.5 5.5 -54.5 5.5h-1031c-13.333 0 -33 -1 -59 -3s-45.667 -3 -59 -3l714 815l-710 930c46.667 -4.66699 87.667 -8.16699 123 -10.5
s65.333 -3.5 90 -3.5h1018l12 -326h-41c-20.667 68 -38.167 115 -52.5 141s-41.5 48 -81.5 66c-20 8.66699 -44.833 15.334 -74.5 20.001s-64.5 7 -104.5 7h-539l559 -734l-602 -694h760c84.667 0 143.834 17.333 177.501 52s66.5 94.667 98.5 180h47z" />
    <glyph glyph-name="minus" unicode="&#x2212;" horiz-adv-x="1366" 
d="M145 610v88h1076v-88h-1076z" />
    <glyph glyph-name="fraction" unicode="&#x2215;" horiz-adv-x="299" 
d="M541 1202h69l-860 -1202h-61z" />
    <glyph glyph-name="radical" unicode="&#x221a;" horiz-adv-x="1124" 
d="M1055 1868l-307 -1946l-498 1028l-197 -96l-33 68l299 147l404 -825l260 1634z" />
    <glyph glyph-name="infinity" unicode="&#x221e;" horiz-adv-x="1460" 
d="M653 668c47.333 112.667 100.331 186.833 158.998 222.5s129.334 53.5 212.001 53.5c107.333 0 198 -38.833 272 -116.5s111 -178.167 111 -301.5c0 -124 -37.167 -225 -111.5 -303s-153.833 -117 -238.5 -117c-63.333 0 -120.166 21 -170.499 63
s-105.5 116.667 -165.5 224c-78 -155.333 -186 -233 -324 -233c-99.333 0 -181.5 34.833 -246.5 104.5s-97.5 157.5 -97.5 263.5c0 104.667 29.667 192 89 262s132 105 218 105c53.333 0 103 -14 149 -42s94 -89.667 144 -185zM749.998 464.999
c42.667 -92 87.498 -159 134.498 -201s105.833 -63 176.5 -63c84 0 153.167 30.333 207.5 91s81.5 138.667 81.5 234c0 93.333 -28 173.333 -84 240s-122.333 100 -199 100c-36.667 0 -69.167 -7.16699 -97.5 -21.5s-53.166 -35 -74.499 -62s-42.666 -65.833 -63.999 -116.5
zM613.996 556.999l10.999 33c-64 143.333 -153 215 -267 215c-73.333 0 -133.166 -25.5 -179.499 -76.5s-69.5 -117.167 -69.5 -198.5c0 -82 22.167 -151.167 66.5 -207.5s98.5 -84.5 162.5 -84.5c54.667 0 104.5 21.667 149.5 65s87.167 128 126.5 254z" />
    <glyph glyph-name="integral" unicode="&#x222b;" horiz-adv-x="561" 
d="M602 1760c0 -26 -9.83203 -47.335 -29.499 -64.002s-44.834 -25 -75.501 -25c-24.667 0 -44.667 8.33301 -60 25s-30 25 -44 25c-12 0 -21.167 -4.83301 -27.5 -14.5s-9.5 -24.167 -9.5 -43.5c0 -22.667 6.5 -108 19.5 -256s19.5 -331.667 19.5 -551
c0 -336.667 -10 -573.167 -30 -709.5s-46.333 -230.5 -79 -282.5c-17.333 -27.333 -39.833 -48 -67.5 -62s-56.167 -21 -85.5 -21c-32.667 0 -61.334 11.667 -86.001 35s-37 51.666 -37 84.999c0 25.333 8.5 47 25.5 65s38.5 27 64.5 27c22.667 0 44.5 -11 65.5 -33
s35.833 -33 44.5 -33c16.667 0 29.834 14.833 39.501 44.5s14.5 80.834 14.5 153.501c0 24.667 -2 90.334 -6 197.001s-6 294 -6 562c0 320.667 5.66699 533.5 17 638.5s25 176.833 41 215.5c19.333 46.667 42.333 81.334 69 104.001s54.667 34 84 34
c38 0 70.667 -10.833 98 -32.5s41 -49.5 41 -83.5z" />
    <glyph glyph-name="approxequal" unicode="&#x2248;" horiz-adv-x="1124" 
d="M1022 874l51 -0.000976562c-14 -103.333 -45.833 -182.666 -95.5 -237.999s-111.834 -83 -186.501 -83c-64.667 0 -166 39 -304 117c-92.667 52 -163 78 -211 78c-99.333 0 -158.666 -62.333 -177.999 -187h-47c13.333 102.667 44.5 182 93.5 238s109.5 84 181.5 84
c31.333 0 67 -6.5 107 -19.5s114.667 -48.833 224 -107.5c78.667 -41.333 143 -62 193 -62c96 0 153.333 60 172 180zM1022 486.999l51.001 -0.000976562c-14 -103.333 -45.833 -182.666 -95.5 -237.999s-111.834 -83 -186.501 -83c-64 0 -153.5 32.333 -268.5 97
s-197.167 97 -246.5 97c-99.333 0 -158.666 -62 -177.999 -186h-47c13.333 102 44.5 180.833 93.5 236.5s109.5 83.5 181.5 83.5c31.333 0 68.666 -7.16699 111.999 -21.5s116.333 -48.833 219 -103.5c78.667 -41.333 143 -62 193 -62c96 0 153.333 60 172 180z" />
    <glyph glyph-name="notequal" unicode="&#x2260;" horiz-adv-x="1124" 
d="M1106 279h-621l-184 -330l-100 57l151 273h-321v112h385l157 285h-542v112h606l186 336l101 -57l-156 -279h338v-112h-399l-160 -285h559v-112z" />
    <glyph glyph-name="lessequal" unicode="&#x2264;" horiz-adv-x="1124" 
d="M1077 240l-1018 471v127l1018 471v-127l-887 -408l887 -407v-127zM1077 0h-1018v112h1018v-112z" />
    <glyph glyph-name="greaterequal" unicode="&#x2265;" horiz-adv-x="1124" 
d="M1077 711l-1018 -471v127l887 407l-887 408v127l1018 -471v-127zM1077 0h-1018v112h1018v-112z" />
    <glyph glyph-name="lozenge" unicode="&#x25ca;" horiz-adv-x="1012" 
d="M962 763l-397 -763h-122l-397 763l397 763h122zM839 763l-335 652l-335 -652l335 -652z" />
    <glyph glyph-name="fi" unicode="&#xf001;" 
d="M645 119l0.000976562 438.001c0 51.333 -5.16699 83 -15.5 95s-36.5 18 -78.5 18h-266v-539c0 -36.667 8.5 -61.834 25.5 -75.501s48.833 -20.5 95.5 -20.5v-35h-379v35c48.667 0 80.5 7.16699 95.5 21.5s22.5 42.5 22.5 84.5v529h-100v35c42.667 18 76 34.333 100 49
c6.66699 168.667 42.667 299.5 108 392.5s154.333 139.5 267 139.5c91.333 0 176 -19 254 -57l-76 -189l-30 11c1.33301 10.667 2 21 2 31c0 50 -15.5 90.333 -46.5 121s-70.167 46 -117.5 46c-70.667 0 -125.167 -27.167 -163.5 -81.5s-57.5 -129.5 -57.5 -225.5v-219h286
c71.333 0 128.666 7.33301 171.999 22h41v-630c0 -30.667 8.33301 -51.667 25 -63s46.667 -17 90 -17v-35h-369v35c76.667 0 115 28 115 84z" />
    <glyph glyph-name="fl" unicode="&#xf002;" 
d="M645 182l0.000976562 842c0 150 -60.667 225 -182 225c-55.333 0 -99.5 -18.667 -132.5 -56s-49.5 -87.666 -49.5 -150.999v-319h245v-53h-245v-535c0 -37.333 8.66699 -63.333 26 -78s47.333 -22 90 -22v-35h-366v35c42.667 0 71.667 6.5 87 19.5s23 36.5 23 70.5v545
h-100v35c46.667 18 80 34.333 100 49v157c0 113.333 30.167 204.166 90.5 272.499s140.166 102.5 239.499 102.5c58 0 120.667 -17 188 -51c24.667 8 55.667 25 93 51h32v-1139c0 -47.333 8.16699 -77.833 24.5 -91.5s46.5 -20.5 90.5 -20.5v-35h-373v35
c43.333 0 71.5 3.5 84.5 10.5s22 20 27 39s7.5 51.5 7.5 97.5z" />
    <glyph glyph-name="foursuperior" unicode="&#xf003;" horiz-adv-x="618" 
d="M391 1199h35v-391h170v-63h-170v-197h-98v197h-285v45zM131 808h197v232z" />
    <glyph glyph-name="glyph1" horiz-adv-x="0" 
 />
    <glyph glyph-name="glyph2" horiz-adv-x="461" 
 />
    </font>
</defs>
</svg>
